<svg width="227" height="24" viewBox="0 0 227 24" fill="none" xmlns="http://www.w3.org/2000/svg">
  <path d="M1.05819 9.09804H1.74159C1.90514 10.1956 2.34905 11.0621 3.07334 11.6975C3.79762 12.3213 4.6913 12.6333 5.75436 12.6333C6.1866 12.6333 6.58379 12.5813 6.94593 12.4773C7.30807 12.3733 7.61765 12.2289 7.87465 12.0441C8.13165 11.8477 8.33025 11.6224 8.47043 11.3682C8.61062 11.1025 8.68071 10.8079 8.68071 10.4844C8.68071 10.2071 8.63398 9.97029 8.54052 9.77389C8.45875 9.56594 8.2952 9.36953 8.04988 9.18468C7.80456 8.98828 7.46578 8.79188 7.03354 8.59548C6.61299 8.39908 6.06394 8.17379 5.38638 7.91962C4.01958 7.39974 3.00909 6.79898 2.35489 6.11735C1.7007 5.42416 1.37361 4.60967 1.37361 3.67387C1.37361 3.13088 1.47874 2.6341 1.68902 2.18353C1.8993 1.73296 2.19135 1.34593 2.56517 1.02245C2.95068 0.69896 3.40628 0.450569 3.93197 0.277273C4.46934 0.0924243 5.05928 0 5.70179 0C6.29758 0 6.85831 0.0924243 7.384 0.277273C7.9097 0.462122 8.42954 0.739396 8.94355 1.10909L9.25897 0.242614H9.67952L9.87228 3.98581H9.18888C8.90851 3.03846 8.47043 2.31639 7.87465 1.81961C7.27887 1.31127 6.58963 1.0571 5.80693 1.0571C5.08265 1.0571 4.4927 1.23618 4.03711 1.59432C3.59319 1.94091 3.37123 2.39148 3.37123 2.94603C3.37123 3.18864 3.41212 3.40815 3.49389 3.60456C3.57567 3.7894 3.72753 3.96848 3.94949 4.14177C4.17145 4.31507 4.47518 4.49414 4.86069 4.67899C5.24619 4.85229 5.74268 5.04869 6.35015 5.2682C7.16789 5.58013 7.86297 5.89784 8.43539 6.22132C9.01949 6.53326 9.49261 6.87407 9.85475 7.24377C10.2286 7.60191 10.5031 7.98317 10.6783 8.38752C10.8536 8.79188 10.9412 9.23667 10.9412 9.7219C10.9412 10.3111 10.8127 10.8483 10.5557 11.3336C10.2987 11.8188 9.93653 12.2347 9.46924 12.5813C9.01365 12.9279 8.46459 13.1994 7.82208 13.3958C7.19125 13.5922 6.49033 13.6904 5.71932 13.6904C5.0184 13.6904 4.38757 13.598 3.82683 13.4131C3.26609 13.2167 2.68783 12.9048 2.09205 12.4773L1.74159 13.5171H1.32104L1.05819 9.09804Z" fill="#061F4A" />
  <path d="M24.9962 8.14491C24.9962 9.12692 24.8852 9.97029 24.6632 10.675C24.4529 11.3682 24.12 11.9401 23.6644 12.3907C23.2088 12.8412 22.6189 13.1705 21.8946 13.3784C21.182 13.5864 20.3233 13.6904 19.3187 13.6904C17.4379 13.6904 16.0594 13.3034 15.1833 12.5293C14.3188 11.7437 13.8866 10.496 13.8866 8.7861V4.03779C13.8866 3.58723 13.8807 3.21175 13.869 2.91137C13.8573 2.59944 13.8398 2.33949 13.8165 2.13154C13.7931 1.92359 13.7581 1.75607 13.7113 1.62898C13.6763 1.49034 13.6295 1.37481 13.5711 1.28239C13.466 1.12065 13.3141 1.01089 13.1155 0.953128C12.9169 0.895362 12.6132 0.86648 12.2043 0.86648V0.173296H18.4951V0.86648C18.0045 0.86648 17.6423 0.895362 17.4087 0.953128C17.175 0.99934 16.994 1.09754 16.8655 1.24773C16.7837 1.34016 16.7136 1.45569 16.6552 1.59432C16.6085 1.72141 16.5676 1.8947 16.5325 2.11421C16.5092 2.32217 16.4916 2.58211 16.48 2.89404C16.4683 3.20597 16.4624 3.58723 16.4624 4.03779V8.57815C16.4624 9.8952 16.7428 10.8714 17.3035 11.5069C17.876 12.1307 18.7521 12.4426 19.932 12.4426C22.3385 12.4426 23.5417 11.1198 23.5417 8.47417V4.47104C23.5417 3.98581 23.5301 3.5699 23.5067 3.2233C23.495 2.87671 23.4658 2.58211 23.4191 2.33949C23.384 2.09688 23.3315 1.8947 23.2614 1.73296C23.203 1.57122 23.127 1.43836 23.0336 1.33438C22.87 1.17264 22.6598 1.05711 22.4027 0.987786C22.1457 0.906915 21.7894 0.86648 21.3338 0.86648V0.173296H27.0113V0.86648C26.5791 0.86648 26.2461 0.901139 26.0125 0.970457C25.7788 1.02822 25.5978 1.13798 25.4693 1.29972C25.3758 1.4037 25.2999 1.54233 25.2415 1.71563C25.1831 1.87737 25.1363 2.08533 25.1013 2.33949C25.0662 2.58211 25.037 2.87671 25.0137 3.2233C25.002 3.5699 24.9962 3.98581 24.9962 4.47104V8.14491Z" fill="#061F4A" />
  <path d="M38.8899 13.6904L31.1272 2.7554H31.0571V10.2071C31.0571 10.7848 31.0746 11.2411 31.1096 11.5762C31.1564 11.9112 31.244 12.1712 31.3725 12.356C31.5127 12.5408 31.6996 12.6622 31.9332 12.7199C32.1785 12.7777 32.494 12.8123 32.8795 12.8239V13.5171H27.6751V12.8239C28.1074 12.8123 28.452 12.7777 28.709 12.7199C28.9777 12.6506 29.1821 12.5293 29.3223 12.356C29.4742 12.1827 29.5735 11.9401 29.6202 11.6282C29.6669 11.3047 29.6903 10.8714 29.6903 10.3284V3.36194C29.6903 2.87671 29.6669 2.47813 29.6202 2.1662C29.5735 1.84271 29.4858 1.58855 29.3573 1.4037C29.2288 1.21885 29.0419 1.09176 28.7966 1.02245C28.563 0.941574 28.2475 0.889585 27.8504 0.86648V0.173296H32.7393L39.8011 10.1898H39.8712V3.48325C39.8712 2.91715 39.8478 2.46658 39.8011 2.13154C39.766 1.78495 39.6784 1.51923 39.5382 1.33438C39.4097 1.14953 39.2228 1.02822 38.9775 0.970457C38.7438 0.912692 38.4343 0.878033 38.0488 0.86648V0.173296H43.2531V0.86648C42.8209 0.878033 42.4704 0.918468 42.2017 0.987786C41.9447 1.04555 41.7403 1.16108 41.5884 1.33438C41.4482 1.50767 41.3548 1.75607 41.308 2.07955C41.2613 2.40304 41.2379 2.8305 41.2379 3.36194V13.6904H38.8899Z" fill="#061F4A" />
  <path d="M44.2419 13.5171V12.8239C44.6274 12.8123 44.937 12.7835 45.1706 12.7373C45.416 12.6795 45.6029 12.5813 45.7314 12.4426C45.8716 12.2925 45.965 12.0961 46.0117 11.8534C46.0585 11.5993 46.0818 11.2642 46.0818 10.8483V2.84205C46.0818 2.4377 46.0643 2.11421 46.0293 1.8716C45.9942 1.61743 45.9183 1.42103 45.8015 1.28239C45.6847 1.1322 45.5211 1.034 45.3108 0.987786C45.1122 0.930021 44.8494 0.889585 44.5223 0.86648V0.173296H51.181C52.3025 0.173296 53.3364 0.346592 54.2826 0.693184C55.2289 1.03978 56.0466 1.51923 56.7358 2.13154C57.4251 2.74385 57.9625 3.47169 58.348 4.31507C58.7335 5.15844 58.9262 6.07691 58.9262 7.07047C58.9262 8.01783 58.7451 8.89008 58.383 9.68724C58.0209 10.4728 57.5127 11.1487 56.8585 11.7148C56.216 12.2809 55.4391 12.7257 54.5279 13.0492C53.6284 13.3611 52.6354 13.5171 51.549 13.5171H44.2419ZM48.9556 1.2304C48.757 1.2304 48.6577 1.3286 48.6577 1.525V10.4844C48.6577 11.1545 48.868 11.6513 49.2886 11.9747C49.7091 12.2982 50.3575 12.46 51.2336 12.46C52.764 12.46 53.938 12.0036 54.7557 11.0909C55.5852 10.1782 55.9999 8.84964 55.9999 7.10513C55.9999 6.18089 55.8889 5.35484 55.6669 4.627C55.445 3.89916 55.1237 3.28685 54.7032 2.79006C54.2826 2.28173 53.7686 1.8947 53.1611 1.62898C52.5654 1.36326 51.8936 1.2304 51.146 1.2304H48.9556Z" fill="#061F4A" />
  <path d="M67.9114 9.47929H62.9524C62.4034 10.7039 62.1288 11.5531 62.1288 12.0267C62.1288 12.3733 62.2573 12.5928 62.5143 12.6853C62.783 12.7777 63.1802 12.8239 63.7059 12.8239V13.5171H58.9046V12.8239C59.185 12.7892 59.4244 12.743 59.623 12.6853C59.8333 12.6275 60.0144 12.5466 60.1662 12.4426C60.3298 12.3387 60.47 12.2058 60.5868 12.0441C60.7036 11.8708 60.8146 11.6628 60.9197 11.4202L65.5283 0H66.825L71.013 10.1205C71.2583 10.7097 71.4628 11.1718 71.6263 11.5069C71.8015 11.8419 71.9826 12.1018 72.1695 12.2867C72.3681 12.46 72.5901 12.5813 72.8354 12.6506C73.0924 12.7199 73.4195 12.7719 73.8167 12.8066V13.5171H67.193V12.8066C67.7537 12.7835 68.1567 12.7257 68.4021 12.6333C68.6474 12.5408 68.7701 12.356 68.7701 12.0787C68.7701 11.917 68.7292 11.709 68.6474 11.4549C68.5656 11.2007 68.4546 10.8888 68.3145 10.5191L67.9114 9.47929ZM63.3554 8.43951H67.5259L65.5108 3.18865H65.4407L63.3554 8.43951Z" fill="#061F4A" />
  <path d="M85.4799 3.51791C85.4799 4.47681 85.1995 5.27975 84.6388 5.92672C84.0781 6.57369 83.1844 7.00693 81.9578 7.22644L86.0231 11.8361C86.3035 12.1596 86.6364 12.408 87.0219 12.5813C87.4074 12.743 87.7988 12.8239 88.196 12.8239V13.5171H84.043L79.6973 8.24889C79.4053 7.90229 79.1482 7.67123 78.9263 7.5557C78.716 7.42862 78.5174 7.36508 78.3305 7.36508V10.7617C78.3305 11.1891 78.3597 11.5415 78.4181 11.8188C78.4765 12.0845 78.5934 12.2925 78.7686 12.4426C78.9438 12.5928 79.195 12.6968 79.5221 12.7546C79.8609 12.8008 80.3106 12.8239 80.8713 12.8239V13.5171H73.9147V12.8239C74.3002 12.8239 74.6098 12.8008 74.8434 12.7546C75.0887 12.6968 75.2757 12.5986 75.4042 12.46C75.5443 12.3098 75.6378 12.1076 75.6845 11.8534C75.7313 11.5877 75.7546 11.2527 75.7546 10.8483V2.84205C75.7546 2.4377 75.7371 2.11421 75.702 1.8716C75.667 1.61743 75.5911 1.42103 75.4743 1.28239C75.3574 1.1322 75.188 1.034 74.9661 0.987786C74.7558 0.930021 74.4696 0.889585 74.1075 0.86648V0.173296H80.1704C81.8643 0.173296 83.1727 0.467899 84.0956 1.0571C85.0185 1.64631 85.4799 2.46658 85.4799 3.51791ZM78.3305 6.3253H79.4695C80.5676 6.3253 81.3854 6.11735 81.9227 5.70144C82.4718 5.27397 82.7463 4.57501 82.7463 3.60456C82.7463 2.86516 82.5185 2.27018 82.0629 1.81961C81.6073 1.36904 80.9765 1.14375 80.1704 1.14375H78.6459C78.4356 1.14375 78.3305 1.24195 78.3305 1.43836V6.3253Z" fill="#061F4A" />
  <path d="M94.4767 13.5171H88.221V12.8239C88.6182 12.8123 88.9336 12.7777 89.1673 12.7199C89.4126 12.6506 89.5995 12.5293 89.728 12.356C89.8565 12.1827 89.9441 11.9401 89.9909 11.6282C90.0376 11.3047 90.0609 10.8714 90.0609 10.3284V3.36194C90.0609 2.87671 90.0376 2.47813 89.9909 2.1662C89.9558 1.84271 89.8799 1.58855 89.763 1.4037C89.6462 1.21885 89.4768 1.09176 89.2549 1.02245C89.0446 0.941574 88.7584 0.889585 88.3963 0.86648V0.173296H94.3015V0.86648C93.9394 0.889585 93.6473 0.941574 93.4254 1.02245C93.2151 1.09176 93.0515 1.21885 92.9347 1.4037C92.8179 1.58855 92.7361 1.84271 92.6894 2.1662C92.6544 2.47813 92.6368 2.87671 92.6368 3.36194V10.3284C92.6368 10.8714 92.6544 11.3047 92.6894 11.6282C92.7361 11.9401 92.8237 12.1827 92.9522 12.356C93.0924 12.5293 93.2793 12.6506 93.513 12.7199C93.7583 12.7777 94.0796 12.8123 94.4767 12.8239V13.5171Z" fill="#061F4A" />
  <path d="M109.938 10.2764L113.986 0.173296H119.102V0.86648C118.717 0.86648 118.402 0.906915 118.156 0.987786C117.923 1.05711 117.742 1.18997 117.613 1.38637C117.485 1.58277 117.397 1.85427 117.35 2.20086C117.315 2.5359 117.298 2.96336 117.298 3.48325V10.2071C117.298 10.7848 117.321 11.2411 117.368 11.5762C117.414 11.9112 117.508 12.1712 117.648 12.356C117.788 12.5408 117.987 12.6622 118.244 12.7199C118.513 12.7777 118.863 12.8123 119.295 12.8239V13.5171H112.707V12.8239C113.139 12.8123 113.483 12.7777 113.74 12.7199C114.009 12.6506 114.214 12.5293 114.354 12.356C114.506 12.1827 114.605 11.9401 114.652 11.6282C114.698 11.3047 114.722 10.8714 114.722 10.3284V2.21819H114.634L109.92 13.6904H108.624L103.752 2.21819H103.682V10.2071C103.682 10.7848 103.706 11.2411 103.752 11.5762C103.799 11.9112 103.892 12.1712 104.033 12.356C104.173 12.5408 104.371 12.6622 104.628 12.7199C104.897 12.7777 105.248 12.8123 105.68 12.8239V13.5171H100.283V12.8239C100.715 12.8123 101.065 12.7777 101.334 12.7199C101.603 12.6506 101.807 12.5293 101.947 12.356C102.099 12.1827 102.199 11.9401 102.245 11.6282C102.292 11.3047 102.315 10.8714 102.315 10.3284V3.36194C102.315 2.87671 102.292 2.47236 102.245 2.14887C102.199 1.82538 102.111 1.57122 101.982 1.38637C101.854 1.18997 101.667 1.05711 101.422 0.987786C101.188 0.906915 100.873 0.86648 100.476 0.86648V0.173296H105.785L109.868 10.2764H109.938Z" fill="#061F4A" />
  <path d="M128.592 9.47929H123.633C123.084 10.7039 122.809 11.5531 122.809 12.0267C122.809 12.3733 122.938 12.5928 123.195 12.6853C123.463 12.7777 123.861 12.8239 124.386 12.8239V13.5171H119.585V12.8239C119.865 12.7892 120.105 12.743 120.303 12.6853C120.514 12.6275 120.695 12.5466 120.847 12.4426C121.01 12.3387 121.15 12.2058 121.267 12.0441C121.384 11.8708 121.495 11.6628 121.6 11.4202L126.209 0H127.505L131.693 10.1205C131.939 10.7097 132.143 11.1718 132.307 11.5069C132.482 11.8419 132.663 12.1018 132.85 12.2867C133.048 12.46 133.27 12.5813 133.516 12.6506C133.773 12.7199 134.1 12.7719 134.497 12.8066V13.5171H127.873V12.8066C128.434 12.7835 128.837 12.7257 129.082 12.6333C129.328 12.5408 129.45 12.356 129.45 12.0787C129.45 11.917 129.41 11.709 129.328 11.4549C129.246 11.2007 129.135 10.8888 128.995 10.5191L128.592 9.47929ZM124.036 8.43951H128.206L126.191 3.18865H126.121L124.036 8.43951Z" fill="#061F4A" />
  <path d="M146.945 3.98581H146.192C146.157 3.41971 146.069 2.95181 145.929 2.58211C145.801 2.20086 145.614 1.90048 145.368 1.68097C145.123 1.44991 144.825 1.29394 144.475 1.21307C144.124 1.12065 143.715 1.07443 143.248 1.07443C142.792 1.07443 142.424 1.08599 142.144 1.10909C141.875 1.12065 141.665 1.14953 141.513 1.19574C141.373 1.2304 141.28 1.28239 141.233 1.35171C141.186 1.42103 141.163 1.50767 141.163 1.61165V10.6924C141.163 11.0621 141.186 11.3798 141.233 11.6455C141.291 11.9112 141.402 12.1307 141.566 12.304C141.729 12.4658 141.969 12.5928 142.284 12.6853C142.6 12.7661 143.014 12.8123 143.528 12.8239V13.5171H136.186V12.8239C136.712 12.8123 137.132 12.7661 137.448 12.6853C137.763 12.5928 138.003 12.4658 138.166 12.304C138.342 12.1307 138.453 11.9112 138.499 11.6455C138.558 11.3798 138.587 11.0621 138.587 10.6924V1.61165C138.587 1.50767 138.564 1.42103 138.517 1.35171C138.482 1.28239 138.4 1.2304 138.271 1.19574C138.143 1.14953 137.956 1.12065 137.711 1.10909C137.477 1.08599 137.167 1.07443 136.782 1.07443C136.361 1.07443 135.958 1.09754 135.573 1.14375C135.187 1.17841 134.849 1.29394 134.557 1.49035C134.265 1.67519 134.025 1.96402 133.838 2.35682C133.663 2.73808 133.569 3.28107 133.558 3.98581H132.874L133.05 0.173296H146.77L146.945 3.98581Z" fill="#061F4A" />
  <path d="M152.187 6.13468C152.935 6.13468 153.537 6.11157 153.992 6.06536C154.448 6.01915 154.798 5.92672 155.044 5.78808C155.301 5.63789 155.482 5.42416 155.587 5.14689C155.692 4.86962 155.774 4.49414 155.832 4.02047H156.48V9.09804H155.832C155.762 8.63591 155.669 8.26622 155.552 7.98894C155.435 7.71167 155.248 7.50371 154.991 7.36508C154.734 7.21489 154.384 7.12246 153.94 7.0878C153.507 7.04159 152.923 7.01848 152.187 7.01848V10.5884C152.187 10.9581 152.234 11.27 152.328 11.5242C152.433 11.7783 152.602 11.9863 152.836 12.148C153.069 12.2982 153.379 12.408 153.764 12.4773C154.15 12.5351 154.623 12.564 155.184 12.564C155.85 12.564 156.41 12.5177 156.866 12.4253C157.333 12.3329 157.719 12.1712 158.023 11.9401C158.326 11.709 158.572 11.4029 158.758 11.0216C158.945 10.6288 159.103 10.1378 159.232 9.5486H159.933L159.652 13.5171H147.772V12.8239C148.157 12.8123 148.472 12.7777 148.718 12.7199C148.963 12.6622 149.15 12.564 149.279 12.4253C149.407 12.2867 149.495 12.0903 149.541 11.8361C149.588 11.5819 149.611 11.2527 149.611 10.8483V2.84205C149.611 2.4377 149.588 2.11421 149.541 1.8716C149.506 1.61743 149.43 1.42103 149.314 1.28239C149.197 1.1322 149.027 1.034 148.805 0.987786C148.595 0.930021 148.315 0.889585 147.964 0.86648V0.173296H159.039L159.161 3.5699H158.408C158.338 3.08467 158.227 2.68609 158.075 2.37415C157.923 2.05067 157.713 1.7965 157.444 1.61165C157.176 1.41525 156.825 1.28239 156.393 1.21307C155.972 1.1322 155.452 1.09176 154.833 1.09176H152.853C152.549 1.09176 152.363 1.1322 152.292 1.21307C152.222 1.28239 152.187 1.45569 152.187 1.73296V6.13468Z" fill="#061F4A" />
  <path d="M172.719 3.51791C172.719 4.47681 172.438 5.27975 171.877 5.92672C171.317 6.57369 170.423 7.00693 169.196 7.22644L173.262 11.8361C173.542 12.1596 173.875 12.408 174.261 12.5813C174.646 12.743 175.037 12.8239 175.435 12.8239V13.5171H171.282L166.936 8.24889C166.644 7.90229 166.387 7.67123 166.165 7.5557C165.955 7.42862 165.756 7.36508 165.569 7.36508V10.7617C165.569 11.1891 165.598 11.5415 165.657 11.8188C165.715 12.0845 165.832 12.2925 166.007 12.4426C166.182 12.5928 166.434 12.6968 166.761 12.7546C167.1 12.8008 167.549 12.8239 168.11 12.8239V13.5171H161.153V12.8239C161.539 12.8239 161.848 12.8008 162.082 12.7546C162.327 12.6968 162.514 12.5986 162.643 12.46C162.783 12.3098 162.876 12.1076 162.923 11.8534C162.97 11.5877 162.993 11.2527 162.993 10.8483V2.84205C162.993 2.4377 162.976 2.11421 162.941 1.8716C162.906 1.61743 162.83 1.42103 162.713 1.28239C162.596 1.1322 162.427 1.034 162.205 0.987786C161.994 0.930021 161.708 0.889585 161.346 0.86648V0.173296H167.409C169.103 0.173296 170.411 0.467899 171.334 1.0571C172.257 1.64631 172.719 2.46658 172.719 3.51791ZM165.569 6.3253H166.708C167.806 6.3253 168.624 6.11735 169.161 5.70144C169.71 5.27397 169.985 4.57501 169.985 3.60456C169.985 2.86516 169.757 2.27018 169.302 1.81961C168.846 1.36904 168.215 1.14375 167.409 1.14375H165.885C165.674 1.14375 165.569 1.24195 165.569 1.43836V6.3253Z" fill="#061F4A" />
  <path d="M186.569 13.6904L178.807 2.7554H178.736V10.2071C178.736 10.7848 178.754 11.2411 178.789 11.5762C178.836 11.9112 178.923 12.1712 179.052 12.356C179.192 12.5408 179.379 12.6622 179.613 12.7199C179.858 12.7777 180.173 12.8123 180.559 12.8239V13.5171H175.355V12.8239C175.787 12.8123 176.131 12.7777 176.388 12.7199C176.657 12.6506 176.862 12.5293 177.002 12.356C177.154 12.1827 177.253 11.9401 177.3 11.6282C177.346 11.3047 177.37 10.8714 177.37 10.3284V3.36194C177.37 2.87671 177.346 2.47813 177.3 2.1662C177.253 1.84271 177.165 1.58855 177.037 1.4037C176.908 1.21885 176.721 1.09176 176.476 1.02245C176.242 0.941574 175.927 0.889585 175.53 0.86648V0.173296H180.419L187.48 10.1898H187.551V3.48325C187.551 2.91715 187.527 2.46658 187.48 2.13154C187.445 1.78495 187.358 1.51923 187.218 1.33438C187.089 1.14953 186.902 1.02822 186.657 0.970457C186.423 0.912692 186.114 0.878033 185.728 0.86648V0.173296H190.933V0.86648C190.5 0.878033 190.15 0.918468 189.881 0.987786C189.624 1.04555 189.42 1.16108 189.268 1.33438C189.128 1.50767 189.034 1.75607 188.987 2.07955C188.941 2.40304 188.917 2.8305 188.917 3.36194V13.6904H186.569Z" fill="#061F4A" />
  <path d="M198.195 13.5171H191.939V12.8239C192.336 12.8123 192.651 12.7777 192.885 12.7199C193.13 12.6506 193.317 12.5293 193.446 12.356C193.574 12.1827 193.662 11.9401 193.709 11.6282C193.755 11.3047 193.779 10.8714 193.779 10.3284V3.36194C193.779 2.87671 193.755 2.47813 193.709 2.1662C193.674 1.84271 193.598 1.58855 193.481 1.4037C193.364 1.21885 193.195 1.09176 192.973 1.02245C192.762 0.941574 192.476 0.889585 192.114 0.86648V0.173296H198.019V0.86648C197.657 0.889585 197.365 0.941574 197.143 1.02245C196.933 1.09176 196.769 1.21885 196.653 1.4037C196.536 1.58855 196.454 1.84271 196.407 2.1662C196.372 2.47813 196.355 2.87671 196.355 3.36194V10.3284C196.355 10.8714 196.372 11.3047 196.407 11.6282C196.454 11.9401 196.542 12.1827 196.67 12.356C196.81 12.5293 196.997 12.6506 197.231 12.7199C197.476 12.7777 197.797 12.8123 198.195 12.8239V13.5171Z" fill="#061F4A" />
  <path d="M213.102 3.98581H212.348C212.313 3.41971 212.225 2.95181 212.085 2.58211C211.957 2.20086 211.77 1.90048 211.525 1.68097C211.279 1.44991 210.981 1.29394 210.631 1.21307C210.28 1.12065 209.872 1.07443 209.404 1.07443C208.949 1.07443 208.581 1.08599 208.3 1.10909C208.032 1.12065 207.821 1.14953 207.669 1.19574C207.529 1.2304 207.436 1.28239 207.389 1.35171C207.342 1.42103 207.319 1.50767 207.319 1.61165V10.6924C207.319 11.0621 207.342 11.3798 207.389 11.6455C207.448 11.9112 207.559 12.1307 207.722 12.304C207.886 12.4658 208.125 12.5928 208.441 12.6853C208.756 12.7661 209.171 12.8123 209.685 12.8239V13.5171H202.342V12.8239C202.868 12.8123 203.289 12.7661 203.604 12.6853C203.92 12.5928 204.159 12.4658 204.323 12.304C204.498 12.1307 204.609 11.9112 204.656 11.6455C204.714 11.3798 204.743 11.0621 204.743 10.6924V1.61165C204.743 1.50767 204.72 1.42103 204.673 1.35171C204.638 1.28239 204.556 1.2304 204.428 1.19574C204.299 1.14953 204.112 1.12065 203.867 1.10909C203.633 1.08599 203.324 1.07443 202.938 1.07443C202.518 1.07443 202.115 1.09754 201.729 1.14375C201.344 1.17841 201.005 1.29394 200.713 1.49035C200.421 1.67519 200.181 1.96402 199.994 2.35682C199.819 2.73808 199.726 3.28107 199.714 3.98581H199.031L199.206 0.173296H212.926L213.102 3.98581Z" fill="#061F4A" />
  <path d="M215.084 2.35682C214.909 2.05644 214.746 1.80805 214.594 1.61165C214.454 1.41525 214.307 1.26506 214.156 1.16108C214.004 1.04555 213.84 0.970457 213.665 0.935798C213.49 0.889586 213.291 0.86648 213.069 0.86648V0.173296H218.957V0.86648C218.466 0.86648 218.122 0.912692 217.923 1.00512C217.724 1.09754 217.625 1.23618 217.625 1.42103C217.625 1.53656 217.66 1.67519 217.73 1.83694C217.8 1.99868 217.911 2.21819 218.063 2.49546L220.569 7.22644H220.639L222.847 3.58723C223.233 2.94025 223.501 2.4608 223.653 2.14887C223.805 1.82538 223.881 1.57122 223.881 1.38637C223.881 1.18997 223.787 1.05711 223.601 0.987786C223.425 0.906915 223.092 0.86648 222.602 0.86648V0.173296H227V0.86648C226.743 0.86648 226.509 0.906915 226.299 0.987786C226.089 1.06866 225.867 1.2304 225.633 1.47302C225.411 1.70408 225.154 2.03334 224.862 2.4608C224.582 2.87671 224.243 3.42548 223.846 4.10711L221.287 8.43951V10.2071C221.287 10.7848 221.311 11.2469 221.358 11.5935C221.416 11.9401 221.509 12.2058 221.638 12.3907C221.778 12.564 221.965 12.6795 222.199 12.7373C222.432 12.795 222.736 12.8239 223.11 12.8239V13.5171H216.872V12.8239C217.234 12.8239 217.532 12.795 217.765 12.7373C218.011 12.6795 218.203 12.564 218.344 12.3907C218.484 12.2174 218.577 11.969 218.624 11.6455C218.682 11.3104 218.712 10.8714 218.712 10.3284V8.73411L215.084 2.35682Z" fill="#061F4A" />
  <path d="M4.42622 21.9306H1.98921C1.71939 22.5324 1.58448 22.9497 1.58448 23.1824C1.58448 23.3528 1.64763 23.4606 1.77393 23.5061C1.90597 23.5515 2.10116 23.5742 2.3595 23.5742V23.9148H0V23.5742C0.137781 23.5572 0.255469 23.5344 0.353064 23.5061C0.4564 23.4777 0.545383 23.4379 0.620015 23.3868C0.700387 23.3357 0.769278 23.2704 0.826687 23.191C0.884095 23.1058 0.938634 23.0036 0.990302 22.8844L3.25508 17.2722H3.89232L5.95042 22.2457C6.07098 22.5352 6.17144 22.7623 6.25182 22.927C6.33793 23.0916 6.42691 23.2193 6.51877 23.3102C6.61636 23.3953 6.72544 23.455 6.846 23.489C6.9723 23.5231 7.13304 23.5486 7.32823 23.5657V23.9148H4.07315V23.5657C4.34872 23.5543 4.54678 23.5259 4.66734 23.4805C4.78789 23.4351 4.84817 23.3442 4.84817 23.208C4.84817 23.1285 4.82808 23.0263 4.78789 22.9014C4.74771 22.7765 4.69317 22.6232 4.62428 22.4415L4.42622 21.9306ZM2.18727 21.4196H4.23677L3.24647 18.8391H3.21202L2.18727 21.4196Z" fill="#061F4A" />
  <path d="M18.0114 24L14.1966 18.6262H14.1621V22.2882C14.1621 22.5721 14.1707 22.7964 14.188 22.961C14.2109 23.1257 14.254 23.2534 14.3171 23.3442C14.386 23.4351 14.4779 23.4947 14.5927 23.5231C14.7132 23.5515 14.8682 23.5685 15.0577 23.5742V23.9148H12.5001V23.5742C12.7125 23.5685 12.8819 23.5515 13.0082 23.5231C13.1402 23.489 13.2407 23.4294 13.3096 23.3442C13.3842 23.2591 13.433 23.1399 13.456 22.9866C13.479 22.8276 13.4904 22.6147 13.4904 22.3478V18.9243C13.4904 18.6859 13.479 18.49 13.456 18.3367C13.433 18.1777 13.39 18.0528 13.3268 17.962C13.2637 17.8711 13.1718 17.8087 13.0513 17.7746C12.9364 17.7349 12.7814 17.7093 12.5862 17.698V17.3573H14.9888L18.4592 22.2797H18.4936V18.9839C18.4936 18.7057 18.4821 18.4843 18.4592 18.3197C18.4419 18.1493 18.3989 18.0187 18.33 17.9279C18.2668 17.8371 18.175 17.7775 18.0544 17.7491C17.9396 17.7207 17.7875 17.7036 17.598 17.698V17.3573H20.1556V17.698C19.9432 17.7036 19.771 17.7235 19.6389 17.7576C19.5126 17.786 19.4122 17.8427 19.3375 17.9279C19.2686 18.0131 19.2227 18.1351 19.1997 18.2941C19.1768 18.4531 19.1653 18.6631 19.1653 18.9243V24H18.0114Z" fill="#061F4A" />
  <path d="M25.8083 23.9148V23.5742C25.9978 23.5685 26.1499 23.5543 26.2647 23.5316C26.3853 23.5032 26.4771 23.455 26.5403 23.3868C26.6092 23.313 26.6551 23.2165 26.6781 23.0973C26.701 22.9724 26.7125 22.8077 26.7125 22.6033V18.6688C26.7125 18.4701 26.7039 18.3111 26.6867 18.1919C26.6695 18.067 26.6321 17.9705 26.5747 17.9024C26.5173 17.8286 26.4369 17.7803 26.3336 17.7576C26.236 17.7292 26.1068 17.7093 25.9461 17.698V17.3573H29.2184C29.7695 17.3573 30.2776 17.4425 30.7426 17.6128C31.2076 17.7831 31.6095 18.0187 31.9482 18.3197C32.2869 18.6206 32.551 18.9782 32.7404 19.3927C32.9299 19.8072 33.0246 20.2585 33.0246 20.7468C33.0246 21.2123 32.9356 21.641 32.7577 22.0327C32.5797 22.4188 32.33 22.7509 32.0085 23.0291C31.6927 23.3073 31.311 23.5259 30.8632 23.6849C30.4211 23.8382 29.9331 23.9148 29.3992 23.9148H25.8083ZM28.1248 17.8768C28.0272 17.8768 27.9784 17.9251 27.9784 18.0216V22.4245C27.9784 22.7538 28.0817 22.9979 28.2884 23.1569C28.4951 23.3159 28.8137 23.3953 29.2442 23.3953C29.9963 23.3953 30.5732 23.1711 30.9751 22.7226C31.3827 22.274 31.5865 21.6211 31.5865 20.7638C31.5865 20.3096 31.532 19.9037 31.4229 19.546C31.3138 19.1883 31.1559 18.8874 30.9493 18.6433C30.7426 18.3935 30.49 18.2033 30.1915 18.0727C29.8987 17.9421 29.5686 17.8768 29.2012 17.8768H28.1248Z" fill="#061F4A" />
  <path d="M49.813 24C49.2963 24 48.8284 23.9262 48.4093 23.7786C47.996 23.6253 47.6429 23.4095 47.3501 23.1313C47.0631 22.8475 46.8392 22.5068 46.6785 22.1094C46.5234 21.7063 46.4459 21.2549 46.4459 20.7553C46.4459 20.2387 46.5292 19.7674 46.6957 19.3416C46.8679 18.9101 47.1062 18.5411 47.4104 18.2345C47.7147 17.9279 48.0792 17.6923 48.5041 17.5276C48.9289 17.3573 49.3996 17.2722 49.9163 17.2722C50.2722 17.2722 50.611 17.3204 50.9324 17.4169C51.2539 17.5135 51.6013 17.6696 51.9744 17.8853L52.138 17.3573H52.448V19.5119H52.0175C51.9027 18.9782 51.6702 18.5638 51.32 18.2686C50.9755 17.9733 50.5421 17.8257 50.0196 17.8257C49.3594 17.8257 48.8456 18.0784 48.4782 18.5837C48.1165 19.0833 47.9357 19.7845 47.9357 20.6872C47.9357 21.5729 48.1137 22.2513 48.4696 22.7226C48.8255 23.1938 49.3422 23.4294 50.0196 23.4294C50.5076 23.4294 50.8865 23.3073 51.1563 23.0632C51.4319 22.8134 51.5697 22.4699 51.5697 22.0327C51.5697 21.7716 51.5008 21.5814 51.363 21.4622C51.2252 21.3372 50.9927 21.2606 50.6655 21.2322V20.8916H53.4556V21.2322C53.1743 21.2322 52.9791 21.2947 52.87 21.4196C52.7609 21.5388 52.7064 21.7574 52.7064 22.0753V23.208C52.5801 23.208 52.4739 23.2137 52.3878 23.225C52.3016 23.2307 52.2155 23.2477 52.1294 23.2761C52.049 23.2988 51.9572 23.3386 51.8539 23.3953C51.7505 23.4521 51.6213 23.5259 51.4663 23.6168C51.0243 23.8723 50.4732 24 49.813 24Z" fill="#061F4A" />
  <path d="M61.2228 20.2869C61.5902 20.2869 61.8858 20.2756 62.1097 20.2528C62.3336 20.2301 62.5059 20.1847 62.6264 20.1166C62.7527 20.0428 62.8417 19.9377 62.8934 19.8015C62.945 19.6652 62.9852 19.4807 63.0139 19.2479H63.3325V21.7432H63.0139C62.9795 21.5161 62.9336 21.3344 62.8761 21.1982C62.8187 21.0619 62.7269 20.9597 62.6006 20.8916C62.4743 20.8178 62.3021 20.7723 62.0839 20.7553C61.8715 20.7326 61.5844 20.7212 61.2228 20.7212V22.4756C61.2228 22.6573 61.2457 22.8106 61.2917 22.9355C61.3433 23.0604 61.4266 23.1626 61.5414 23.2421C61.6562 23.3159 61.8083 23.3698 61.9978 23.4039C62.1872 23.4322 62.4197 23.4464 62.6953 23.4464C63.0225 23.4464 63.2981 23.4237 63.522 23.3783C63.7516 23.3329 63.9411 23.2534 64.0903 23.1399C64.2396 23.0263 64.3602 22.8759 64.452 22.6885C64.5439 22.4955 64.6214 22.2542 64.6845 21.9646H65.029L64.8912 23.9148H59.0527V23.5742C59.2422 23.5685 59.3972 23.5515 59.5177 23.5231C59.6383 23.4947 59.7301 23.4464 59.7933 23.3783C59.8564 23.3102 59.8995 23.2137 59.9225 23.0888C59.9454 22.9639 59.9569 22.802 59.9569 22.6033V18.6688C59.9569 18.4701 59.9454 18.3111 59.9225 18.1919C59.9052 18.067 59.8679 17.9705 59.8105 17.9024C59.7531 17.8286 59.6699 17.7803 59.5608 17.7576C59.4575 17.7292 59.3197 17.7093 59.1474 17.698V17.3573H64.5898L64.6501 19.0265H64.2798C64.2453 18.788 64.1908 18.5922 64.1162 18.4389C64.0415 18.2799 63.9382 18.155 63.8062 18.0642C63.6741 17.9676 63.5019 17.9024 63.2895 17.8683C63.0828 17.8286 62.8273 17.8087 62.5231 17.8087H61.55C61.4007 17.8087 61.3089 17.8286 61.2744 17.8683C61.24 17.9024 61.2228 17.9875 61.2228 18.1238V20.2869Z" fill="#061F4A" />
  <path d="M76.2639 24L72.4491 18.6262H72.4147V22.2882C72.4147 22.5721 72.4233 22.7964 72.4405 22.961C72.4635 23.1257 72.5065 23.2534 72.5697 23.3442C72.6385 23.4351 72.7304 23.4947 72.8452 23.5231C72.9658 23.5515 73.1208 23.5685 73.3102 23.5742V23.9148H70.7527V23.5742C70.9651 23.5685 71.1344 23.5515 71.2607 23.5231C71.3928 23.489 71.4932 23.4294 71.5621 23.3442C71.6368 23.2591 71.6856 23.1399 71.7085 22.9866C71.7315 22.8276 71.743 22.6147 71.743 22.3478V18.9243C71.743 18.6859 71.7315 18.49 71.7085 18.3367C71.6856 18.1777 71.6425 18.0528 71.5794 17.962C71.5162 17.8711 71.4244 17.8087 71.3038 17.7746C71.189 17.7349 71.034 17.7093 70.8388 17.698V17.3573H73.2413L76.7117 22.2797H76.7461V18.9839C76.7461 18.7057 76.7347 18.4843 76.7117 18.3197C76.6945 18.1493 76.6514 18.0187 76.5825 17.9279C76.5194 17.8371 76.4275 17.7775 76.307 17.7491C76.1922 17.7207 76.04 17.7036 75.8506 17.698V17.3573H78.4081V17.698C78.1957 17.7036 78.0235 17.7235 77.8914 17.7576C77.7652 17.786 77.6647 17.8427 77.5901 17.9279C77.5212 18.0131 77.4752 18.1351 77.4523 18.2941C77.4293 18.4531 77.4178 18.6631 77.4178 18.9243V24H76.2639Z" fill="#061F4A" />
  <path d="M86.2309 20.2869C86.5983 20.2869 86.894 20.2756 87.1179 20.2528C87.3418 20.2301 87.514 20.1847 87.6346 20.1166C87.7609 20.0428 87.8498 19.9377 87.9015 19.8015C87.9532 19.6652 87.9934 19.4807 88.0221 19.2479H88.3407V21.7432H88.0221C87.9876 21.5161 87.9417 21.3344 87.8843 21.1982C87.8269 21.0619 87.735 20.9597 87.6087 20.8916C87.4824 20.8178 87.3102 20.7723 87.092 20.7553C86.8796 20.7326 86.5926 20.7212 86.2309 20.7212V22.4756C86.2309 22.6573 86.2539 22.8106 86.2998 22.9355C86.3515 23.0604 86.4347 23.1626 86.5495 23.2421C86.6643 23.3159 86.8165 23.3698 87.0059 23.4039C87.1954 23.4322 87.4279 23.4464 87.7034 23.4464C88.0307 23.4464 88.3062 23.4237 88.5301 23.3783C88.7598 23.3329 88.9492 23.2534 89.0985 23.1399C89.2477 23.0263 89.3683 22.8759 89.4602 22.6885C89.552 22.4955 89.6295 22.2542 89.6927 21.9646H90.0371L89.8993 23.9148H84.0609V23.5742C84.2503 23.5685 84.4053 23.5515 84.5259 23.5231C84.6464 23.4947 84.7383 23.4464 84.8014 23.3783C84.8646 23.3102 84.9076 23.2137 84.9306 23.0888C84.9536 22.9639 84.965 22.802 84.965 22.6033V18.6688C84.965 18.4701 84.9536 18.3111 84.9306 18.1919C84.9134 18.067 84.8761 17.9705 84.8187 17.9024C84.7612 17.8286 84.678 17.7803 84.5689 17.7576C84.4656 17.7292 84.3278 17.7093 84.1556 17.698V17.3573H89.5979L89.6582 19.0265H89.2879C89.2535 18.788 89.1989 18.5922 89.1243 18.4389C89.0497 18.2799 88.9464 18.155 88.8143 18.0642C88.6823 17.9676 88.51 17.9024 88.2976 17.8683C88.091 17.8286 87.8355 17.8087 87.5312 17.8087H86.5581C86.4089 17.8087 86.317 17.8286 86.2826 17.8683C86.2481 17.9024 86.2309 17.9875 86.2309 18.1238V20.2869Z" fill="#061F4A" />
  <path d="M101.487 19.001C101.487 19.4722 101.35 19.8668 101.074 20.1847C100.798 20.5027 100.359 20.7156 99.7565 20.8234L101.754 23.0888C101.892 23.2477 102.056 23.3698 102.245 23.455C102.435 23.5344 102.627 23.5742 102.822 23.5742V23.9148H100.781L98.6456 21.3259C98.5021 21.1556 98.3758 21.042 98.2667 20.9852C98.1634 20.9228 98.0658 20.8916 97.9739 20.8916V22.5608C97.9739 22.7708 97.9883 22.944 98.017 23.0802C98.0457 23.2108 98.1031 23.313 98.1892 23.3868C98.2753 23.4606 98.3988 23.5117 98.5595 23.5401C98.726 23.5628 98.947 23.5742 99.2226 23.5742V23.9148H95.8039V23.5742C95.9933 23.5742 96.1454 23.5628 96.2603 23.5401C96.3808 23.5117 96.4727 23.4635 96.5358 23.3953C96.6047 23.3215 96.6507 23.2222 96.6736 23.0973C96.6966 22.9667 96.7081 22.802 96.7081 22.6033V18.6688C96.7081 18.4701 96.6994 18.3111 96.6822 18.1919C96.665 18.067 96.6277 17.9705 96.5703 17.9024C96.5129 17.8286 96.4296 17.7803 96.3205 17.7576C96.2172 17.7292 96.0766 17.7093 95.8986 17.698V17.3573H98.8781C99.7105 17.3573 100.354 17.5021 100.807 17.7916C101.261 18.0812 101.487 18.4843 101.487 19.001ZM97.9739 20.3806H98.5337C99.0733 20.3806 99.4752 20.2784 99.7392 20.074C100.009 19.8639 100.144 19.5204 100.144 19.0435C100.144 18.6802 100.032 18.3878 99.8081 18.1664C99.5842 17.9449 99.2742 17.8342 98.8781 17.8342H98.1289C98.0256 17.8342 97.9739 17.8825 97.9739 17.979V20.3806Z" fill="#061F4A" />
  <path d="M112.005 21.9306H109.568C109.299 22.5324 109.164 22.9497 109.164 23.1824C109.164 23.3528 109.227 23.4606 109.353 23.5061C109.485 23.5515 109.68 23.5742 109.939 23.5742V23.9148H107.579V23.5742C107.717 23.5572 107.835 23.5344 107.932 23.5061C108.036 23.4777 108.125 23.4379 108.199 23.3868C108.28 23.3357 108.349 23.2704 108.406 23.191C108.463 23.1058 108.518 23.0036 108.57 22.8844L110.834 17.2722H111.472L113.53 22.2457C113.65 22.5352 113.751 22.7623 113.831 22.927C113.917 23.0916 114.006 23.2193 114.098 23.3102C114.196 23.3953 114.305 23.455 114.425 23.489C114.552 23.5231 114.712 23.5486 114.907 23.5657V23.9148H111.652V23.5657C111.928 23.5543 112.126 23.5259 112.247 23.4805C112.367 23.4351 112.427 23.3442 112.427 23.208C112.427 23.1285 112.407 23.0263 112.367 22.9014C112.327 22.7765 112.272 22.6232 112.204 22.4415L112.005 21.9306ZM109.767 21.4196H111.816L110.826 18.8391H110.791L109.767 21.4196Z" fill="#061F4A" />
  <path d="M126.056 23.9148H120.122V23.5742C120.312 23.5685 120.467 23.5515 120.587 23.5231C120.708 23.4947 120.8 23.4464 120.863 23.3783C120.926 23.3102 120.969 23.2137 120.992 23.0888C121.015 22.9639 121.027 22.802 121.027 22.6033V18.6688C121.027 18.4701 121.015 18.3111 120.992 18.1919C120.975 18.067 120.938 17.9705 120.88 17.9024C120.823 17.8286 120.74 17.7803 120.631 17.7576C120.527 17.7292 120.389 17.7093 120.217 17.698V17.3573H123.188V17.698C122.993 17.7036 122.835 17.7207 122.714 17.7491C122.6 17.7775 122.511 17.8286 122.447 17.9024C122.384 17.9762 122.341 18.0784 122.318 18.2089C122.301 18.3395 122.292 18.5127 122.292 18.7284V22.2967C122.292 22.5352 122.315 22.7311 122.361 22.8844C122.413 23.032 122.499 23.1484 122.62 23.2335C122.74 23.313 122.901 23.3698 123.102 23.4039C123.303 23.4322 123.553 23.4464 123.851 23.4464C124.184 23.4464 124.463 23.4266 124.686 23.3868C124.91 23.3471 125.097 23.2733 125.246 23.1654C125.401 23.0519 125.525 22.9014 125.616 22.714C125.708 22.5267 125.786 22.2826 125.849 21.9816H126.193L126.056 23.9148Z" fill="#061F4A" />
  <path d="M145.622 22.5437C145.622 22.7595 145.631 22.9355 145.648 23.0717C145.671 23.2023 145.714 23.3045 145.777 23.3783C145.846 23.4464 145.938 23.4947 146.053 23.5231C146.173 23.5515 146.331 23.5685 146.527 23.5742V23.9148H143.366V23.5742C143.579 23.5685 143.748 23.5515 143.874 23.5231C144.006 23.4947 144.107 23.4464 144.176 23.3783C144.25 23.3102 144.299 23.2137 144.322 23.0888C144.345 22.9639 144.356 22.802 144.356 22.6033V20.8234H141.162V22.5437C141.162 22.7595 141.173 22.9355 141.196 23.0717C141.219 23.2023 141.265 23.3045 141.334 23.3783C141.403 23.4464 141.5 23.4947 141.627 23.5231C141.759 23.5515 141.931 23.5685 142.143 23.5742V23.9148H138.992V23.5742C139.187 23.5685 139.342 23.5515 139.457 23.5231C139.577 23.4947 139.669 23.4464 139.732 23.3783C139.795 23.3102 139.838 23.2137 139.861 23.0888C139.884 22.9639 139.896 22.802 139.896 22.6033V18.6688C139.896 18.4701 139.884 18.3111 139.861 18.1919C139.844 18.067 139.807 17.9705 139.749 17.9024C139.692 17.8286 139.609 17.7803 139.5 17.7576C139.396 17.7292 139.259 17.7093 139.086 17.698V17.3573H142.057V17.698C141.862 17.7036 141.704 17.7207 141.584 17.7491C141.469 17.7775 141.38 17.8286 141.317 17.9024C141.254 17.9762 141.21 18.0784 141.188 18.2089C141.17 18.3395 141.162 18.5127 141.162 18.7284V20.2954H144.356V18.6688C144.356 18.4701 144.345 18.3111 144.322 18.1919C144.299 18.067 144.256 17.9705 144.193 17.9024C144.13 17.8286 144.038 17.7803 143.917 17.7576C143.803 17.7292 143.647 17.7093 143.452 17.698V17.3573H146.432V17.698C146.26 17.7036 146.119 17.7207 146.01 17.7491C145.907 17.7775 145.826 17.8286 145.769 17.9024C145.711 17.9762 145.671 18.0784 145.648 18.2089C145.631 18.3395 145.622 18.5127 145.622 18.7284V22.5437Z" fill="#061F4A" />
  <path d="M155.961 17.2722C156.478 17.2722 156.96 17.3602 157.408 17.5362C157.856 17.7122 158.243 17.9535 158.57 18.26C158.903 18.5666 159.164 18.9271 159.354 19.3416C159.543 19.7561 159.638 20.2046 159.638 20.6872C159.638 21.1471 159.54 21.5785 159.345 21.9816C159.156 22.3847 158.895 22.7368 158.562 23.0377C158.234 23.3329 157.847 23.5685 157.399 23.7445C156.951 23.9148 156.472 24 155.961 24C155.45 24 154.971 23.9148 154.523 23.7445C154.075 23.5685 153.685 23.3329 153.352 23.0377C153.019 22.7368 152.758 22.3847 152.568 21.9816C152.379 21.5785 152.284 21.1471 152.284 20.6872C152.284 20.2046 152.379 19.7561 152.568 19.3416C152.758 18.9271 153.016 18.5666 153.343 18.26C153.676 17.9535 154.067 17.7122 154.514 17.5362C154.962 17.3602 155.444 17.2722 155.961 17.2722ZM155.961 23.4464C156.294 23.4464 156.595 23.384 156.865 23.2591C157.135 23.1285 157.365 22.9468 157.554 22.714C157.744 22.4756 157.887 22.1889 157.985 21.8539C158.088 21.5133 158.14 21.1329 158.14 20.7127C158.14 20.2699 158.088 19.8725 157.985 19.5204C157.887 19.1628 157.744 18.859 157.554 18.6092C157.365 18.3537 157.135 18.1607 156.865 18.0301C156.595 17.8938 156.294 17.8257 155.961 17.8257C155.622 17.8257 155.318 17.8938 155.048 18.0301C154.784 18.1607 154.557 18.3537 154.368 18.6092C154.179 18.859 154.032 19.1628 153.929 19.5204C153.831 19.8725 153.782 20.2699 153.782 20.7127C153.782 21.1329 153.831 21.5133 153.929 21.8539C154.032 22.1889 154.179 22.4756 154.368 22.714C154.557 22.9468 154.784 23.1285 155.048 23.2591C155.318 23.384 155.622 23.4464 155.961 23.4464Z" fill="#061F4A" />
  <path d="M165.652 21.7432H165.988C166.068 22.2826 166.286 22.7084 166.642 23.0206C166.998 23.3272 167.437 23.4805 167.96 23.4805C168.172 23.4805 168.367 23.455 168.545 23.4039C168.723 23.3528 168.875 23.2818 169.002 23.191C169.128 23.0944 169.226 22.9837 169.294 22.8588C169.363 22.7282 169.398 22.5835 169.398 22.4245C169.398 22.2882 169.375 22.1718 169.329 22.0753C169.289 21.9731 169.208 21.8766 169.088 21.7858C168.967 21.6893 168.801 21.5927 168.588 21.4962C168.382 21.3997 168.112 21.289 167.779 21.1641C167.107 20.9086 166.611 20.6134 166.289 20.2784C165.968 19.9377 165.807 19.5375 165.807 19.0776C165.807 18.8108 165.859 18.5666 165.962 18.3452C166.065 18.1238 166.209 17.9336 166.392 17.7746C166.582 17.6156 166.806 17.4936 167.064 17.4084C167.328 17.3176 167.618 17.2722 167.934 17.2722C168.227 17.2722 168.502 17.3176 168.761 17.4084C169.019 17.4993 169.274 17.6355 169.527 17.8172L169.682 17.3914H169.889L169.983 19.2309H169.648C169.51 18.7653 169.294 18.4105 169.002 18.1664C168.709 17.9166 168.37 17.7916 167.986 17.7916C167.63 17.7916 167.34 17.8797 167.116 18.0557C166.898 18.226 166.789 18.4474 166.789 18.7199C166.789 18.8391 166.809 18.947 166.849 19.0435C166.889 19.1344 166.964 19.2224 167.073 19.3075C167.182 19.3927 167.331 19.4807 167.521 19.5715C167.71 19.6567 167.954 19.7532 168.252 19.8611C168.654 20.0144 168.996 20.1705 169.277 20.3295C169.564 20.4828 169.797 20.6503 169.975 20.832C170.158 21.008 170.293 21.1953 170.38 21.394C170.466 21.5927 170.509 21.8113 170.509 22.0498C170.509 22.3393 170.446 22.6033 170.319 22.8418C170.193 23.0802 170.015 23.2846 169.785 23.455C169.561 23.6253 169.292 23.7587 168.976 23.8552C168.666 23.9517 168.321 24 167.942 24C167.598 24 167.288 23.9546 167.012 23.8637C166.737 23.7672 166.453 23.6139 166.16 23.4039L165.988 23.9148H165.781L165.652 21.7432Z" fill="#061F4A" />
  <path d="M182.092 19.1798C182.092 19.793 181.851 20.2614 181.368 20.585C180.886 20.9029 180.186 21.0619 179.267 21.0619H178.535V22.5608C178.535 22.7765 178.55 22.9525 178.578 23.0888C178.607 23.2193 178.667 23.3215 178.759 23.3953C178.851 23.4692 178.977 23.5174 179.138 23.5401C179.299 23.5628 179.514 23.5742 179.784 23.5742V23.9148H176.365V23.5742C176.555 23.5685 176.71 23.5515 176.83 23.5231C176.951 23.4947 177.043 23.4464 177.106 23.3783C177.169 23.3102 177.212 23.2137 177.235 23.0888C177.258 22.9639 177.269 22.802 177.269 22.6033V18.6688C177.269 18.4701 177.258 18.3111 177.235 18.1919C177.218 18.067 177.18 17.9705 177.123 17.9024C177.065 17.8286 176.982 17.7803 176.873 17.7576C176.77 17.7292 176.632 17.7093 176.46 17.698V17.3573H179.439C180.312 17.3573 180.972 17.5106 181.42 17.8172C181.868 18.1238 182.092 18.578 182.092 19.1798ZM178.535 20.5509H179.095C179.652 20.5509 180.059 20.4402 180.318 20.2188C180.576 19.9974 180.705 19.6482 180.705 19.1713C180.705 18.7455 180.596 18.4162 180.378 18.1834C180.16 17.9506 179.818 17.8342 179.353 17.8342H178.69C178.587 17.8342 178.535 17.8825 178.535 17.979V20.5509Z" fill="#061F4A" />
  <path d="M190.787 23.9148H187.713V23.5742C187.908 23.5685 188.063 23.5515 188.178 23.5231C188.299 23.489 188.39 23.4294 188.454 23.3442C188.517 23.2591 188.56 23.1399 188.583 22.9866C188.606 22.8276 188.617 22.6147 188.617 22.3478V18.9243C188.617 18.6859 188.606 18.49 188.583 18.3367C188.566 18.1777 188.528 18.0528 188.471 17.962C188.413 17.8711 188.33 17.8087 188.221 17.7746C188.118 17.7349 187.977 17.7093 187.799 17.698V17.3573H190.701V17.698C190.523 17.7093 190.38 17.7349 190.271 17.7746C190.167 17.8087 190.087 17.8711 190.03 17.962C189.972 18.0528 189.932 18.1777 189.909 18.3367C189.892 18.49 189.883 18.6859 189.883 18.9243V22.3478C189.883 22.6147 189.892 22.8276 189.909 22.9866C189.932 23.1399 189.975 23.2591 190.038 23.3442C190.107 23.4294 190.199 23.489 190.314 23.5231C190.434 23.5515 190.592 23.5685 190.787 23.5742V23.9148Z" fill="#061F4A" />
  <path d="M203.28 19.2309H202.91C202.892 18.9527 202.849 18.7228 202.78 18.5411C202.717 18.3537 202.625 18.2061 202.505 18.0982C202.384 17.9847 202.238 17.908 202.066 17.8683C201.893 17.8229 201.692 17.8002 201.463 17.8002C201.239 17.8002 201.058 17.8058 200.92 17.8172C200.788 17.8229 200.685 17.8371 200.61 17.8598C200.541 17.8768 200.496 17.9024 200.473 17.9364C200.45 17.9705 200.438 18.0131 200.438 18.0642V22.5267C200.438 22.7084 200.45 22.8645 200.473 22.9951C200.501 23.1257 200.556 23.2335 200.636 23.3187C200.717 23.3982 200.834 23.4606 200.989 23.5061C201.144 23.5458 201.348 23.5685 201.601 23.5742V23.9148H197.993V23.5742C198.251 23.5685 198.458 23.5458 198.613 23.5061C198.768 23.4606 198.885 23.3982 198.966 23.3187C199.052 23.2335 199.106 23.1257 199.129 22.9951C199.158 22.8645 199.172 22.7084 199.172 22.5267V18.0642C199.172 18.0131 199.161 17.9705 199.138 17.9364C199.121 17.9024 199.08 17.8768 199.017 17.8598C198.954 17.8371 198.862 17.8229 198.742 17.8172C198.627 17.8058 198.475 17.8002 198.285 17.8002C198.079 17.8002 197.881 17.8115 197.691 17.8342C197.502 17.8513 197.335 17.908 197.192 18.0046C197.048 18.0954 196.93 18.2373 196.839 18.4304C196.752 18.6177 196.707 18.8846 196.701 19.2309H196.365L196.451 17.3573H203.194L203.28 19.2309Z" fill="#061F4A" />
  <path d="M212.21 21.9306H209.773C209.503 22.5324 209.368 22.9497 209.368 23.1824C209.368 23.3528 209.431 23.4606 209.557 23.5061C209.689 23.5515 209.885 23.5742 210.143 23.5742V23.9148H207.783V23.5742C207.921 23.5572 208.039 23.5344 208.136 23.5061C208.24 23.4777 208.329 23.4379 208.403 23.3868C208.484 23.3357 208.553 23.2704 208.61 23.191C208.667 23.1058 208.722 23.0036 208.774 22.8844L211.038 17.2722H211.676L213.734 22.2457C213.854 22.5352 213.955 22.7623 214.035 22.927C214.121 23.0916 214.21 23.2193 214.302 23.3102C214.4 23.3953 214.509 23.455 214.629 23.489C214.756 23.5231 214.916 23.5486 215.112 23.5657V23.9148H211.857V23.5657C212.132 23.5543 212.33 23.5259 212.451 23.4805C212.571 23.4351 212.632 23.3442 212.632 23.208C212.632 23.1285 212.611 23.0263 212.571 22.9014C212.531 22.7765 212.477 22.6232 212.408 22.4415L212.21 21.9306ZM209.971 21.4196H212.02L211.03 18.8391H210.995L209.971 21.4196Z" fill="#061F4A" />
  <path d="M226.26 23.9148H220.327V23.5742C220.516 23.5685 220.671 23.5515 220.792 23.5231C220.912 23.4947 221.004 23.4464 221.067 23.3783C221.13 23.3102 221.173 23.2137 221.196 23.0888C221.219 22.9639 221.231 22.802 221.231 22.6033V18.6688C221.231 18.4701 221.219 18.3111 221.196 18.1919C221.179 18.067 221.142 17.9705 221.084 17.9024C221.027 17.8286 220.944 17.7803 220.835 17.7576C220.731 17.7292 220.594 17.7093 220.421 17.698V17.3573H223.392V17.698C223.197 17.7036 223.039 17.7207 222.919 17.7491C222.804 17.7775 222.715 17.8286 222.652 17.9024C222.588 17.9762 222.545 18.0784 222.522 18.2089C222.505 18.3395 222.497 18.5127 222.497 18.7284V22.2967C222.497 22.5352 222.52 22.7311 222.565 22.8844C222.617 23.032 222.703 23.1484 222.824 23.2335C222.944 23.313 223.105 23.3698 223.306 23.4039C223.507 23.4322 223.757 23.4464 224.055 23.4464C224.388 23.4464 224.667 23.4266 224.891 23.3868C225.114 23.3471 225.301 23.2733 225.45 23.1654C225.605 23.0519 225.729 22.9014 225.821 22.714C225.912 22.5267 225.99 22.2826 226.053 21.9816H226.398L226.26 23.9148Z" fill="#061F4A" />
</svg>
