<svg width="119" height="46" viewBox="0 0 119 46" fill="none" xmlns="http://www.w3.org/2000/svg">
  <path d="M41.7635 10.0272C41.7064 10.3243 41.7121 10.5985 41.7807 10.8498C41.8606 11.1012 41.9749 11.324 42.1234 11.5182C42.2834 11.7124 42.4776 11.8666 42.7061 11.9809C42.9346 12.0837 43.1859 12.1351 43.4601 12.1351C43.5744 12.1351 43.7286 12.118 43.9228 12.0837C44.117 12.038 44.4198 11.918 44.8311 11.7238L45.3966 8.48491H46.5791L45.8764 12.4607C45.5108 12.6435 45.1795 12.792 44.8825 12.9063C44.5854 13.0091 44.3227 13.0891 44.0942 13.1462C43.8771 13.2033 43.6943 13.2376 43.5458 13.249C43.3973 13.2719 43.283 13.2833 43.2031 13.2833C42.7346 13.2833 42.3176 13.1919 41.952 13.0091C41.5979 12.8149 41.3065 12.5635 41.078 12.2551C40.861 11.9352 40.7067 11.5639 40.6153 11.1412C40.5354 10.7184 40.5411 10.2672 40.6325 9.78733L41.575 4.44055C41.6893 3.90359 41.8664 3.41804 42.1063 2.9839C42.3462 2.54976 42.6318 2.18416 42.9631 1.88712C43.2944 1.57865 43.6658 1.34445 44.077 1.1845C44.4998 1.02455 44.9453 0.94458 45.4137 0.94458C45.5851 0.956005 45.7793 0.984566 45.9964 1.03027C46.2135 1.07596 46.4077 1.13309 46.5791 1.20164L47.6587 1.6472L47.0418 2.8468L45.825 2.34982C45.5851 2.23558 45.3737 2.17845 45.191 2.17845C44.9168 2.17845 44.6426 2.24129 44.3684 2.36696C44.1056 2.49263 43.86 2.65829 43.6315 2.86394C43.4144 3.06958 43.2259 3.3095 43.066 3.58369C42.906 3.85789 42.8032 4.14351 42.7575 4.44055L41.7635 10.0272Z" fill="#061F4A" />
  <path d="M55.7508 1.11595L55.5451 2.31555H51.7578L51.0209 6.47987H53.9856L53.7629 7.67946H50.7981L50.0612 11.8781H53.8828L53.6772 13.0948H48.6731L50.781 1.11595H55.7508Z" fill="#061F4A" />
  <path d="M63.4819 1.11595L63.2762 2.31555H59.4889L58.752 6.47987H61.7168L61.494 7.67946H58.5293L57.7924 11.8781H61.6139L61.4083 13.0948H56.4043L58.5121 1.11595H63.4819Z" fill="#061F4A" />
  <path d="M71.6243 2.26414H68.9337L67.0315 13.1119H65.8833L67.7856 2.26414H65.0094L65.215 1.11595H71.8299L71.6243 2.26414Z" fill="#061F4A" />
  <path d="M76.0074 2.43551H75.9902C75.5904 3.47516 75.1848 4.50339 74.7735 5.52019C74.3622 6.52557 73.9566 7.54808 73.5568 8.58773H76.2473L76.0074 2.43551ZM71.7231 13.0948H70.5578L75.4076 1.09881H77.0356L77.6697 13.0948H76.5215L76.333 9.8216H73.0255L71.7231 13.0948Z" fill="#061F4A" />
  <path d="M5.46138 24.6515L8.97449 17.3511H10.6368L8.52892 29.3471H7.39788L9.11159 19.5618H9.09445L6.00977 25.8854H4.38174L3.54203 19.5961L1.82831 29.3471H0.697266L2.80513 17.3511H4.48457L5.39283 24.6515H5.46138Z" fill="#061F4A" />
  <path d="M15.2866 28.3874C15.4808 28.3874 15.7093 28.3588 15.9721 28.3017C16.2462 28.2446 16.509 28.1418 16.7604 27.9933C17.0117 27.8333 17.2402 27.6219 17.4458 27.3592C17.6515 27.0964 17.7943 26.7537 17.8743 26.331L19.4509 17.334H20.5477L18.971 26.331C18.9139 26.6623 18.7997 27.0164 18.6283 27.3935C18.4569 27.759 18.217 28.0961 17.9085 28.4045C17.6001 28.713 17.2116 28.9701 16.7432 29.1757C16.2862 29.3699 15.7378 29.467 15.0981 29.467C14.4583 29.467 13.9442 29.3699 13.5557 29.1757C13.1673 28.9701 12.8759 28.713 12.6817 28.4045C12.4875 28.0961 12.3675 27.759 12.3219 27.3935C12.2876 27.0164 12.299 26.6623 12.3561 26.331L13.9327 17.334H15.0467L13.47 26.331C13.3901 26.7537 13.3958 27.0964 13.4872 27.3592C13.59 27.6219 13.7385 27.8333 13.9327 27.9933C14.127 28.1418 14.344 28.2446 14.5839 28.3017C14.8353 28.3588 15.0695 28.3874 15.2866 28.3874Z" fill="#061F4A" />
  <path d="M23.8235 17.3511H25.006L23.1038 28.1646H26.8397L26.634 29.3471H21.7157L23.8235 17.3511Z" fill="#061F4A" />
  <path d="M35.4797 18.4993H32.7892L30.887 29.3471H29.7388L31.641 18.4993H28.8648L29.0704 17.3511H35.6854L35.4797 18.4993Z" fill="#061F4A" />
  <path d="M37.9971 17.3511H39.111L37.0032 29.3471H35.8893L37.9971 17.3511Z" fill="#061F4A" />
  <path d="M51.4464 25.7826C51.355 26.2624 51.1893 26.7194 50.9494 27.1535C50.7095 27.5877 50.4125 27.9647 50.0583 28.2846C49.7041 28.6045 49.31 28.8615 48.8758 29.0558C48.4417 29.2385 47.9904 29.3299 47.522 29.3299C47.0764 29.3299 46.648 29.2728 46.2367 29.1586C45.8254 29.0329 45.4598 28.8958 45.1399 28.7473C44.7629 28.5759 44.4202 28.3817 44.1117 28.1646L44.7115 27.0336C45.0657 27.2392 45.4256 27.4163 45.7912 27.5648C46.0882 27.7019 46.4081 27.8276 46.7508 27.9418C47.105 28.0447 47.4249 28.0961 47.7105 28.0961C48.0076 28.0961 48.2932 28.0389 48.5674 27.9247C48.853 27.799 49.11 27.6334 49.3385 27.4277C49.567 27.2221 49.7613 26.9822 49.9212 26.708C50.0811 26.4338 50.1897 26.1367 50.2468 25.8168C50.3039 25.4969 50.2754 25.2285 50.1611 25.0114C50.0469 24.7943 49.8869 24.6172 49.6813 24.4801C49.4756 24.3316 49.2357 24.2174 48.9615 24.1374C48.6988 24.0574 48.4417 23.9946 48.1904 23.9489C47.7791 23.8803 47.3963 23.7604 47.0422 23.589C46.6994 23.4062 46.4081 23.1777 46.1682 22.9035C45.9397 22.6293 45.774 22.3094 45.6712 21.9439C45.5798 21.5668 45.5741 21.1441 45.6541 20.6757C45.734 20.1959 45.894 19.7446 46.1339 19.3219C46.3852 18.8992 46.688 18.5336 47.0422 18.2251C47.3963 17.9052 47.7848 17.6539 48.2075 17.4711C48.6416 17.2768 49.0815 17.1797 49.527 17.1797C49.8012 17.1797 50.0811 17.214 50.3668 17.2826C50.6638 17.3397 50.9323 17.4082 51.1722 17.4882C51.4578 17.5796 51.732 17.6824 51.9948 17.7967L51.4121 18.962C51.1722 18.8592 50.9266 18.7678 50.6752 18.6878C50.4582 18.6193 50.224 18.5564 49.9726 18.4993C49.7327 18.4307 49.4985 18.3965 49.27 18.3965C48.9844 18.3965 48.7045 18.4593 48.4303 18.585C48.1675 18.7107 47.9219 18.8763 47.6934 19.082C47.4763 19.2876 47.2878 19.5275 47.1278 19.8017C46.9793 20.0645 46.8822 20.3387 46.8365 20.6243C46.7794 20.9556 46.7965 21.2469 46.8879 21.4983C46.9793 21.7382 47.1164 21.9439 47.2992 22.1152C47.482 22.2866 47.6877 22.4237 47.9162 22.5265C48.1447 22.6293 48.3731 22.7036 48.6016 22.7493C49.0586 22.8293 49.4813 22.9435 49.8698 23.092C50.2582 23.2406 50.5838 23.4348 50.8466 23.6747C51.1094 23.9146 51.2922 24.2059 51.395 24.5487C51.5092 24.8914 51.5264 25.3027 51.4464 25.7826Z" fill="#061F4A" />
  <path d="M58.057 18.3965C57.8742 18.3965 57.6743 18.4193 57.4572 18.465C57.2516 18.4993 57.0574 18.545 56.8746 18.6021C56.6689 18.6592 56.4576 18.7221 56.2405 18.7906L55.4351 23.332H57.1831C57.9599 23.332 58.6169 23.1206 59.1538 22.6979C59.7022 22.2637 60.0564 21.624 60.2163 20.7785C60.2849 20.3672 60.2792 20.0131 60.1992 19.716C60.1306 19.4076 59.9993 19.1562 59.805 18.962C59.6108 18.7678 59.3652 18.625 59.0681 18.5336C58.7711 18.4422 58.4341 18.3965 58.057 18.3965ZM58.4169 17.1797C58.8968 17.1797 59.3366 17.2654 59.7365 17.4368C60.1478 17.6082 60.4905 17.8538 60.7647 18.1737C61.0389 18.4822 61.2331 18.8592 61.3474 19.3047C61.473 19.7389 61.4902 20.2301 61.3988 20.7785C61.296 21.3269 61.1132 21.8353 60.8504 22.3037C60.5876 22.7607 60.262 23.1606 59.8736 23.5033C59.4966 23.8346 59.0681 24.0917 58.5883 24.2745C58.1085 24.4573 57.6115 24.5487 57.0974 24.5487H55.2123L54.3726 29.3471H53.2415L55.2466 17.8824C55.5779 17.7567 55.9263 17.6424 56.2919 17.5396C56.6004 17.4482 56.9374 17.3682 57.303 17.2997C57.68 17.2197 58.0513 17.1797 58.4169 17.1797Z" fill="#061F4A" />
  <path d="M69.4899 17.3511L69.2843 18.5507H65.497L64.7601 22.715H67.7248L67.502 23.9146H64.5373L63.8004 28.1132H67.622L67.4163 29.3299H62.4123L64.5201 17.3511H69.4899Z" fill="#061F4A" />
  <path d="M71.4837 26.0739C71.4266 26.4166 71.4266 26.7251 71.4837 26.9993C71.5522 27.2735 71.6665 27.5077 71.8264 27.7019C71.9864 27.8961 72.1863 28.0504 72.4262 28.1646C72.6662 28.2674 72.9232 28.3246 73.1974 28.336C73.2774 28.336 73.3574 28.3303 73.4373 28.3189C73.5173 28.3074 73.6201 28.2846 73.7458 28.2503C73.8829 28.2046 74.0428 28.1475 74.2256 28.0789C74.4199 28.0104 74.6712 27.919 74.9797 27.8047L75.5795 27.5648L75.8365 28.7473L74.2428 29.2785C74.0485 29.3471 73.8315 29.4042 73.5916 29.4499C73.3516 29.4956 73.1517 29.5185 72.9918 29.5185C72.5576 29.5185 72.1578 29.4442 71.7922 29.2957C71.4266 29.1357 71.1181 28.9129 70.8668 28.6273C70.6268 28.3303 70.4555 27.9761 70.3527 27.5648C70.2498 27.1421 70.2441 26.6737 70.3355 26.1596L71.2952 20.7271C71.3866 20.2587 71.5522 19.8131 71.7922 19.3904C72.0435 18.9563 72.2891 18.625 72.5291 18.3965C72.7576 18.1794 72.9518 18.0137 73.1117 17.8995C73.2717 17.7852 73.4316 17.6824 73.5916 17.591L73.6944 17.5568L73.643 17.5739C73.7801 17.5053 73.9743 17.4254 74.2256 17.334C74.477 17.2311 74.8026 17.1797 75.2025 17.1797C75.3738 17.1797 75.568 17.2083 75.7851 17.2654C76.0022 17.3225 76.1907 17.3797 76.3506 17.4368L77.6873 17.9852L77.1047 19.0991L75.6309 18.4993C75.5281 18.4536 75.4195 18.4136 75.3053 18.3793C75.2024 18.3451 75.1053 18.3279 75.0139 18.3279C74.7283 18.3279 74.4427 18.3965 74.1571 18.5336C73.8829 18.6707 73.6258 18.8535 73.3859 19.082C73.1574 19.299 72.9575 19.5504 72.7861 19.836C72.6262 20.1216 72.5176 20.4186 72.4605 20.7271L71.4837 26.0739Z" fill="#061F4A" />
  <path d="M80.3505 17.3511H81.4645L79.3566 29.3471H78.2427L80.3505 17.3511Z" fill="#061F4A" />
  <path d="M87.2697 18.6707H87.2525C86.8527 19.7103 86.4471 20.7385 86.0358 21.7553C85.6245 22.7607 85.2189 23.7832 84.819 24.8229H87.5096L87.2697 18.6707ZM82.9854 29.3299H81.8201L86.6699 17.334H88.2979L88.932 29.3299H87.7838L87.5953 26.0568H84.2878L82.9854 29.3299Z" fill="#061F4A" />
  <path d="M93.4531 17.3511H94.6355L92.7333 28.1646H96.4692L96.2636 29.3471H91.3452L93.4531 17.3511Z" fill="#061F4A" />
  <path d="M100.632 17.3511H101.746L99.638 29.3471H98.524L100.632 17.3511Z" fill="#061F4A" />
  <path d="M110.447 18.4993H107.757L105.854 29.3471H104.706L106.608 18.4993H103.832L104.038 17.3511H110.653L110.447 18.4993Z" fill="#061F4A" />
  <path d="M114.918 24.0003H114.73L113.787 29.3471H112.673L113.616 24.0003H113.479L111.868 17.3511H113.033L114.387 22.7664L117.66 17.3511H118.826L114.918 24.0003Z" fill="#061F4A" />
  <path d="M26.8204 33.5863L25.8779 38.9159H29.7338L30.6763 33.5863H31.8759L29.768 45.5651H28.5684L29.5281 40.1326H25.6723L24.7126 45.5651H23.5301L25.638 33.5863H26.8204Z" fill="#061F4A" />
  <path d="M39.9917 36.6709C40.0716 36.2482 40.0488 35.9112 39.9231 35.6599C39.8089 35.3971 39.6489 35.1972 39.4433 35.0601C39.2376 34.9115 39.0091 34.8144 38.7578 34.7687C38.5179 34.723 38.3122 34.7002 38.1408 34.7002C37.9695 34.7002 37.7524 34.7287 37.4896 34.7859C37.2383 34.8316 36.9812 34.9287 36.7185 35.0772C36.4671 35.2143 36.2329 35.4142 36.0158 35.677C35.8102 35.9283 35.6731 36.2654 35.6046 36.6881L34.5592 42.5832C34.4906 43.0174 34.5135 43.3601 34.6277 43.6115C34.7534 43.8514 34.9191 44.0399 35.1247 44.177C35.3304 44.3027 35.5531 44.3826 35.7931 44.4169C36.0444 44.4512 36.2558 44.4683 36.4271 44.4683C36.5985 44.4683 36.8099 44.4512 37.0612 44.4169C37.324 44.3712 37.581 44.2855 37.8324 44.1599C38.0951 44.0228 38.3294 43.8343 38.535 43.5943C38.7406 43.343 38.8777 43.006 38.9463 42.5832L39.9917 36.6709ZM40.0945 42.5832C40.0488 42.8346 39.946 43.1431 39.786 43.5087C39.6261 43.8628 39.3919 44.2056 39.0834 44.5369C38.7749 44.8682 38.3808 45.1538 37.9009 45.3937C37.4211 45.6222 36.8498 45.7365 36.1872 45.7365C35.536 45.7365 35.0162 45.6222 34.6277 45.3937C34.2507 45.1538 33.9594 44.8682 33.7537 44.5369C33.5595 44.2056 33.4396 43.8628 33.3939 43.5087C33.3596 43.1431 33.3653 42.8346 33.411 42.5832L34.4564 36.6881C34.5021 36.4367 34.6049 36.1283 34.7648 35.7627C34.9362 35.3857 35.1761 35.0258 35.4846 34.683C35.8045 34.3403 36.1986 34.049 36.6671 33.809C37.1469 33.5577 37.7181 33.432 38.3808 33.432C39.032 33.432 39.5461 33.552 39.9231 33.7919C40.3116 34.0318 40.6029 34.3232 40.7971 34.6659C40.9913 35.0086 41.1056 35.3685 41.1398 35.7455C41.1855 36.1111 41.1855 36.4196 41.1398 36.6709L40.0945 42.5832Z" fill="#061F4A" />
  <path d="M49.5804 42.0177C49.489 42.4976 49.3233 42.9546 49.0834 43.3887C48.8435 43.8228 48.5465 44.1998 48.1923 44.5197C47.8381 44.8396 47.444 45.0967 47.0098 45.2909C46.5757 45.4737 46.1244 45.5651 45.656 45.5651C45.2104 45.5651 44.782 45.508 44.3707 45.3937C43.9594 45.2681 43.5938 45.131 43.2739 44.9824C42.8969 44.8111 42.5542 44.6168 42.2457 44.3998L42.8455 43.2687C43.1997 43.4744 43.5596 43.6515 43.9252 43.8C44.2222 43.9371 44.5421 44.0627 44.8848 44.177C45.239 44.2798 45.5589 44.3312 45.8445 44.3312C46.1416 44.3312 46.4272 44.2741 46.7014 44.1599C46.987 44.0342 47.244 43.8685 47.4725 43.6629C47.701 43.4572 47.8952 43.2173 48.0552 42.9431C48.2151 42.6689 48.3237 42.3719 48.3808 42.052C48.4379 41.7321 48.4094 41.4636 48.2951 41.2465C48.1809 41.0295 48.0209 40.8524 47.8153 40.7153C47.6096 40.5668 47.3697 40.4525 47.0955 40.3726C46.8327 40.2926 46.5757 40.2298 46.3243 40.1841C45.9131 40.1155 45.5303 39.9955 45.1762 39.8242C44.8334 39.6414 44.5421 39.4129 44.3022 39.1387C44.0737 38.8645 43.908 38.5446 43.8052 38.179C43.7138 37.802 43.7081 37.3793 43.7881 36.9109C43.868 36.431 44.028 35.9797 44.2679 35.557C44.5192 35.1343 44.822 34.7687 45.1762 34.4603C45.5303 34.1404 45.9188 33.889 46.3415 33.7062C46.7756 33.512 47.2155 33.4149 47.661 33.4149C47.9352 33.4149 48.2151 33.4492 48.5008 33.5177C48.7978 33.5748 49.0663 33.6434 49.3062 33.7234C49.5918 33.8148 49.866 33.9176 50.1288 34.0318L49.5461 35.1972C49.3062 35.0943 49.0606 35.0029 48.8092 34.923C48.5922 34.8544 48.3579 34.7916 48.1066 34.7345C47.8667 34.6659 47.6325 34.6316 47.404 34.6316C47.1184 34.6316 46.8385 34.6945 46.5643 34.8201C46.3015 34.9458 46.0559 35.1115 45.8274 35.3171C45.6103 35.5228 45.4218 35.7627 45.2618 36.0369C45.1133 36.2996 45.0162 36.5738 44.9705 36.8595C44.9134 37.1908 44.9305 37.4821 45.0219 37.7334C45.1133 37.9734 45.2504 38.179 45.4332 38.3504C45.616 38.5218 45.8217 38.6588 46.0502 38.7617C46.2786 38.8645 46.5071 38.9388 46.7356 38.9845C47.1926 39.0644 47.6153 39.1787 48.0038 39.3272C48.3922 39.4757 48.7178 39.6699 48.9806 39.9099C49.2434 40.1498 49.4262 40.4411 49.529 40.7839C49.6432 41.1266 49.6604 41.5379 49.5804 42.0177Z" fill="#061F4A" />
  <path d="M56.191 34.6316C56.0082 34.6316 55.8083 34.6545 55.5912 34.7002C55.3856 34.7344 55.1914 34.7801 55.0086 34.8373C54.8029 34.8944 54.5916 34.9572 54.3745 35.0258L53.5691 39.5671H55.317C56.0939 39.5671 56.7509 39.3558 57.2878 38.933C57.8362 38.4989 58.1904 37.8591 58.3503 37.0137C58.4189 36.6024 58.4132 36.2482 58.3332 35.9512C58.2646 35.6427 58.1332 35.3914 57.939 35.1972C57.7448 35.0029 57.4992 34.8601 57.2021 34.7687C56.9051 34.6773 56.5681 34.6316 56.191 34.6316ZM56.5509 33.4149C57.0308 33.4149 57.4706 33.5006 57.8705 33.6719C58.2818 33.8433 58.6245 34.089 58.8987 34.4088C59.1729 34.7173 59.3671 35.0943 59.4814 35.5399C59.607 35.974 59.6242 36.4653 59.5328 37.0137C59.43 37.5621 59.2472 38.0705 58.9844 38.5389C58.7216 38.9959 58.396 39.3957 58.0076 39.7385C57.6306 40.0698 57.2021 40.3269 56.7223 40.5097C56.2425 40.6925 55.7455 40.7839 55.2314 40.7839H53.3463L52.5066 45.5822H51.3755L53.3806 34.1175C53.7119 33.9918 54.0603 33.8776 54.4259 33.7748C54.7344 33.6834 55.0714 33.6034 55.437 33.5349C55.814 33.4549 56.1853 33.4149 56.5509 33.4149Z" fill="#061F4A" />
  <path d="M62.6541 33.5863H63.7681L61.6602 45.5822H60.5463L62.6541 33.5863Z" fill="#061F4A" />
  <path d="M72.4694 34.7345H69.7789L67.8767 45.5822H66.7285L68.6307 34.7345H65.8545L66.0601 33.5863H72.6751L72.4694 34.7345Z" fill="#061F4A" />
  <path d="M76.8525 34.9058H76.8354C76.4355 35.9455 76.0299 36.9737 75.6186 37.9905C75.2073 38.9959 74.8018 40.0184 74.4019 41.058H77.0924L76.8525 34.9058ZM72.5682 45.5651H71.4029L76.2527 33.5691H77.8807L78.5148 45.5651H77.3666L77.1781 42.2919H73.8707L72.5682 45.5651Z" fill="#061F4A" />
  <path d="M83.0359 33.5863H84.2184L82.3162 44.3998H86.052L85.8464 45.5822H80.9281L83.0359 33.5863Z" fill="#061F4A" />
  <path d="M95.0132 42.0177C94.9218 42.4976 94.7561 42.9546 94.5162 43.3887C94.2763 43.8228 93.9792 44.1998 93.6251 44.5197C93.2709 44.8396 92.8767 45.0967 92.4426 45.2909C92.0084 45.4737 91.5572 45.5651 91.0888 45.5651C90.6432 45.5651 90.2148 45.508 89.8035 45.3937C89.3922 45.2681 89.0266 45.131 88.7067 44.9824C88.3297 44.8111 87.9869 44.6168 87.6785 44.3998L88.2783 43.2687C88.6324 43.4744 88.9923 43.6515 89.3579 43.8C89.655 43.9371 89.9748 44.0627 90.3176 44.177C90.6718 44.2798 90.9916 44.3312 91.2773 44.3312C91.5743 44.3312 91.8599 44.2741 92.1341 44.1599C92.4197 44.0342 92.6768 43.8685 92.9053 43.6629C93.1338 43.4572 93.328 43.2173 93.488 42.9431C93.6479 42.6689 93.7564 42.3719 93.8136 42.052C93.8707 41.7321 93.8421 41.4636 93.7279 41.2465C93.6136 41.0295 93.4537 40.8524 93.248 40.7153C93.0424 40.5668 92.8025 40.4525 92.5283 40.3726C92.2655 40.2926 92.0084 40.2298 91.7571 40.1841C91.3458 40.1155 90.9631 39.9955 90.6089 39.8242C90.2662 39.6414 89.9748 39.4129 89.7349 39.1387C89.5064 38.8645 89.3408 38.5446 89.2379 38.179C89.1465 37.802 89.1408 37.3793 89.2208 36.9109C89.3008 36.431 89.4607 35.9797 89.7006 35.557C89.952 35.1343 90.2548 34.7687 90.6089 34.4603C90.9631 34.1404 91.3515 33.889 91.7742 33.7062C92.2084 33.512 92.6482 33.4149 93.0938 33.4149C93.368 33.4149 93.6479 33.4492 93.9335 33.5177C94.2306 33.5748 94.499 33.6434 94.739 33.7234C95.0246 33.8148 95.2988 33.9176 95.5615 34.0318L94.9789 35.1972C94.739 35.0943 94.4933 35.0029 94.242 34.923C94.0249 34.8544 93.7907 34.7916 93.5394 34.7345C93.2994 34.6659 93.0652 34.6316 92.8367 34.6316C92.5511 34.6316 92.2712 34.6945 91.997 34.8201C91.7343 34.9458 91.4886 35.1115 91.2601 35.3171C91.0431 35.5228 90.8546 35.7627 90.6946 36.0369C90.5461 36.2996 90.449 36.5738 90.4033 36.8595C90.3461 37.1908 90.3633 37.4821 90.4547 37.7334C90.5461 37.9734 90.6832 38.179 90.866 38.3504C91.0488 38.5218 91.2544 38.6588 91.4829 38.7617C91.7114 38.8645 91.9399 38.9388 92.1684 38.9845C92.6254 39.0644 93.0481 39.1787 93.4365 39.3272C93.825 39.4757 94.1506 39.6699 94.4134 39.9099C94.6761 40.1498 94.8589 40.4411 94.9617 40.7839C95.076 41.1266 95.0931 41.5379 95.0132 42.0177Z" fill="#061F4A" />
</svg>
