<?xml version="1.0" encoding="UTF-8"?>
<svg width="36px" height="36px" viewBox="0 0 36 36" version="1.1" xmlns="http://www.w3.org/2000/svg" xmlns:xlink="http://www.w3.org/1999/xlink">
    <title>Group 3</title>
    <g id="Page-1" stroke="none" stroke-width="1" fill="none" fill-rule="evenodd">
        <g id="Artboard-Copy-2" transform="translate(-87.000000, -9.000000)">
            <g id="Group-3" transform="translate(88.000000, 10.000000)">
                <rect id="Rectangle-Copy-2" stroke="#061F4A" x="0" y="0" width="34" height="34" rx="17"></rect>
                <g id="image7" transform="translate(10.000000, 7.000000)">
                    <polygon id="Path" points="6.5575 10.4725 6.54625 10.4725 6.55625 10.47875"></polygon>
                    <path d="M5.59,11.37625 C5.46711664,11.37625 5.3675,11.4758666 5.3675,11.59875 C5.3675,11.7216334 5.46711664,11.82125 5.59,11.82125 C5.71288336,11.82125 5.8125,11.7216334 5.8125,11.59875 C5.8125,11.4758666 5.71288336,11.37625 5.59,11.37625 L5.59,11.37625 Z" id="Path" fill="#FF6567" fill-rule="nonzero"></path>
                    <path d="M8.96375,13.51375 C8.97013505,13.4268452 8.92738922,13.3436658 8.85301213,13.2982646 C8.77863504,13.2528634 8.68511496,13.2528634 8.61073787,13.2982646 C8.53636078,13.3436658 8.49361495,13.4268452 8.5,13.51375 C8.49978623,13.541947 8.50487458,13.5699329 8.515,13.59625 C8.42985479,13.6086292 8.36659279,13.6814603 8.36624982,13.7675 C8.36621675,13.7911029 8.37089126,13.8144755 8.38,13.83625 C8.40500792,13.8993563 8.46586999,13.9409207 8.53375,13.94125 L8.53375,13.94125 C8.62970948,13.94125 8.7075,13.8634595 8.7075,13.7675 C8.70811467,13.7600126 8.70811467,13.7524874 8.7075,13.745 L8.72875,13.745 C8.79062877,13.7456663 8.85022013,13.7216368 8.89432807,13.6782327 C8.93843601,13.6348286 8.96342089,13.5756315 8.96375,13.51375 Z" id="Path" fill="#FF6567" fill-rule="nonzero"></path>
                    <path d="M6.69374638,13.79125 C6.69324377,13.8793325 6.74591378,13.9590237 6.82714657,13.9930828 C6.90837936,14.0271419 7.00213427,14.0088433 7.06459828,13.9467383 C7.12706229,13.8846333 7.14590093,13.7909854 7.11231062,13.7095576 C7.0787203,13.6281299 6.99933398,13.5749964 6.91125,13.5749964 C6.85368066,13.5746672 6.79835496,13.5973036 6.75752946,13.6378945 C6.71670396,13.6784854 6.69374638,13.7336797 6.69374638,13.79125 Z" id="Path" fill="#FF6567" fill-rule="nonzero"></path>
                    <path d="M5.9975,12.66125 C6.11090379,12.6526343 6.19852322,12.5581056 6.19852322,12.444375 C6.19852322,12.3306444 6.11090379,12.2361157 5.9975,12.2275 C5.94035579,12.2271105 5.88543499,12.249619 5.845,12.29 C5.82934258,12.2179872 5.76618521,12.1662189 5.6925,12.165 C5.60620551,12.165 5.53625,12.2349555 5.53625,12.32125 C5.53625,12.4075445 5.60620551,12.4775 5.6925,12.4775 C5.72434695,12.4773397 5.75535825,12.4672938 5.78125,12.44875 C5.78395425,12.5664307 5.87979003,12.6606046 5.9975,12.66125 L5.9975,12.66125 Z" id="Path" fill="#FF6567" fill-rule="nonzero"></path>
                    <path d="M8.385,11.87125 C8.34850689,11.8710885 8.31250475,11.8796604 8.28,11.89625 C8.25426151,11.8105923 8.16770006,11.7584685 8.07995207,11.7757892 C7.99220409,11.79311 7.93194112,11.8742158 7.94068128,11.9632289 C7.94942144,12.0522419 8.02430889,12.1200774 8.11375,12.12 C8.1270146,12.1219146 8.1404854,12.1219146 8.15375,12.12 C8.15973224,12.2435109 8.26134544,12.34073 8.385,12.34125 C8.40185177,12.3410996 8.41862972,12.3390024 8.435,12.335 C8.54412236,12.3229442 8.62689473,12.2310346 8.6275,12.12125 C8.6275,12.0833493 8.61712998,12.0461711 8.5975,12.01375 C8.56152104,11.928042 8.47795045,11.8720005 8.385,11.87125 Z" id="Path" fill="#FF6567" fill-rule="nonzero"></path>
                    <path d="M7.54875361,10.4875 C7.54936081,10.3807149 7.47235942,10.2892818 7.36702687,10.271718 C7.26169432,10.2541542 7.15919171,10.3156558 7.12512089,10.4168616 C7.09105007,10.5180674 7.13549041,10.6290371 7.23,10.67875 C7.1533688,10.7012966 7.10642144,10.7783879 7.12155846,10.8568198 C7.13669549,10.9352517 7.20895917,10.9893358 7.28847701,10.9817463 C7.36799484,10.9741567 7.42872293,10.9073792 7.42875,10.8275 C7.42857228,10.7777737 7.40435589,10.7312037 7.36375,10.7025 C7.47036803,10.6869306 7.54925798,10.5952476 7.54875361,10.4875 Z" id="Path" fill="#FF6567" fill-rule="nonzero"></path>
                    <path d="M5.64625,13.60625 C5.55029052,13.60625 5.4725,13.6840405 5.4725,13.78 C5.4725,13.8759595 5.55029052,13.95375 5.64625,13.95375 C5.74220948,13.95375 5.82,13.8759595 5.82,13.78 C5.82,13.7339186 5.80169425,13.6897246 5.7691098,13.6571402 C5.73652536,13.6245558 5.69233137,13.60625 5.64625,13.60625 Z" id="Path" fill="#FF6567" fill-rule="nonzero"></path>
                    <path d="M6.8725,11.36625 C6.8725,11.4295605 6.91070778,11.4866124 6.96924802,11.5107219 C7.02778825,11.5348314 7.09509109,11.5212326 7.13967826,11.4762858 C7.18426542,11.4313391 7.1973232,11.3639292 7.17274433,11.3055845 C7.14816545,11.2472398 7.09080852,11.2094935 7.0275,11.209995 C6.94169406,11.2106865 6.8725,11.2804413 6.8725,11.36625 L6.8725,11.36625 Z" id="Path" fill="#FF6567" fill-rule="nonzero"></path>
                    <path d="M7.59,15.57125 C7.58978189,15.4766159 7.53397341,15.390945 7.4475,15.3525 C7.46270705,15.3267283 7.47089565,15.2974217 7.47125,15.2675 C7.47125,15.1715405 7.39345948,15.09375 7.2975,15.09375 C7.20154052,15.09375 7.12375,15.1715405 7.12375,15.2675 C7.12507711,15.3158 7.14689475,15.3612535 7.18375,15.3925 C7.13497755,15.4376024 7.10732383,15.50107 7.10749916,15.5675 C7.10749916,15.7007387 7.2155113,15.80875 7.34875,15.80875 C7.4819887,15.80875 7.59,15.7007387 7.59,15.5675 L7.59,15.57125 Z" id="Path" fill="#FF6567" fill-rule="nonzero"></path>
                    <path d="M7.01375,17.39125 C7.07472579,17.3446088 7.10986341,17.2717315 7.10838261,17.1949769 C7.10690182,17.1182224 7.06897941,17.0467546 7.00625,17.0025 C7.04252936,16.9589898 7.06243054,16.9041509 7.0625,16.8475 C7.06250087,16.7836309 7.03704371,16.7223957 6.99176426,16.6773509 C6.94648482,16.6323061 6.88511826,16.6071673 6.82125,16.6075 C6.80183637,16.607452 6.7825018,16.6099739 6.76375,16.615 C6.79132362,16.5572002 6.80583373,16.4940386 6.80625,16.43 C6.80613656,16.3700875 6.7933571,16.310876 6.76875,16.25625 C6.88198796,16.2487588 6.97450119,16.1629761 6.99050818,16.0506252 C7.00651516,15.9382742 6.94164015,15.8300679 6.835,15.79125 C6.93496815,15.7045624 6.98885729,15.5762594 6.98077126,15.4441875 C6.97268523,15.3121156 6.90354667,15.1913448 6.79375,15.1175 C6.92609237,14.9682304 6.93599458,14.7467335 6.8175,14.58625 C6.89551395,14.5567529 6.941563,14.4759838 6.92720799,14.3938243 C6.91285298,14.3116647 6.8421441,14.2512957 6.75875,14.25 C6.70240053,14.249847 6.64958209,14.2774248 6.6175,14.32375 C6.53709176,14.2239032 6.41569823,14.1659654 6.2875,14.16625 C6.22718615,14.1663748 6.16756916,14.1791499 6.1125,14.20375 C6.0588845,14.1039564 5.94305604,14.0549094 5.83407992,14.0858544 C5.7251038,14.1167994 5.6523374,14.2194 5.6591693,14.3324784 C5.6660012,14.4455567 5.75059093,14.5386503 5.8625,14.55625 C5.86187844,14.564989 5.86187844,14.573761 5.8625,14.5825 C5.78594225,14.519851 5.6901732,14.4854271 5.59125,14.485 C5.44209378,14.4847223 5.30384315,14.5631119 5.2275,14.69125 C5.14213383,14.5977792 5.01243415,14.5585657 4.8895812,14.5890833 C4.76672825,14.6196009 4.67045445,14.714948 4.63875,14.8375 C4.5335119,14.7656908 4.39718854,14.7579763 4.28452095,14.8174543 C4.17185337,14.8769323 4.10132241,14.9938467 4.10125,15.12125 C4.10155288,15.1473119 4.10448439,15.1732767 4.11,15.19875 C3.98709551,15.0870957 3.8178045,15.0417282 3.65553658,15.0769607 C3.49326866,15.1121932 3.35803483,15.2236807 3.2925,15.37625 C3.17498644,15.2953753 3.01973361,15.2954853 2.90233483,15.3765266 C2.78493604,15.4575678 2.72979097,15.602697 2.76375,15.74125 L6.93625,19.98 C6.99254621,19.9570057 7.02917685,19.9020597 7.02875,19.84125 C6.9739247,19.8142979 6.9406966,19.7570099 6.94452443,19.696038 C6.94835227,19.6350661 6.98848435,19.5823836 7.04625,19.5625 C7.04654524,19.5020957 7.01057941,19.4474079 6.955,19.42375 C7.00994171,19.3867135 7.04313267,19.3250064 7.04375,19.25875 C7.04312568,19.1670329 6.97944104,19.0878154 6.89,19.0675 C7.07108786,18.9424526 7.17906352,18.7363172 7.17875,18.51625 C7.17856896,18.3822189 7.13758513,18.2514195 7.06125,18.14125 C7.19629847,18.0593255 7.27457186,17.9090878 7.26432642,17.7514657 C7.25408098,17.5938435 7.15701749,17.4550027 7.0125,17.39125 L7.01375,17.39125 Z" id="Path" fill="#FF6567" fill-rule="nonzero"></path>
                    <path d="M11.7,15.49375 C11.660249,15.4934514 11.6210854,15.5033499 11.58625,15.5225 C11.556642,15.4183787 11.4795543,15.3343829 11.37835,15.2959696 C11.2771458,15.2575564 11.1637389,15.2692476 11.0725,15.3275 C11.0725,15.31875 11.0725,15.31 11.0725,15.30125 C11.0728682,15.1606581 11.0034816,15.0290374 10.887278,14.9498987 C10.7710744,14.8707601 10.6231855,14.8544087 10.4925,14.90625 C10.4809109,14.7799138 10.3734526,14.6841389 10.2466206,14.6871038 C10.1197886,14.6900687 10.0169231,14.7907602 10.01125,14.9175 C10.0100173,14.9278802 10.0100173,14.9383698 10.01125,14.94875 C9.94867201,14.8464272 9.83744131,14.7839487 9.7175,14.78375 C9.69835505,14.7824596 9.67914495,14.7824596 9.66,14.78375 C9.65726139,14.5509839 9.46778218,14.3637339 9.235,14.36375 C9.21194924,14.3639146 9.18895255,14.3660052 9.16625,14.37 C9.15512071,14.2582541 9.06835966,14.1689651 8.95697933,14.154632 C8.84559899,14.1402989 8.73905852,14.2047125 8.7,14.31 L8.67375,14.31 C8.62679988,14.3102482 8.58010891,14.3169784 8.535,14.33 C8.49404856,14.2336705 8.40417231,14.167046 8.30009791,14.1558693 C8.19602352,14.1446925 8.09405001,14.1907138 8.03357825,14.2761513 C7.97310648,14.3615888 7.96360691,14.4730622 8.00875,14.5675 C7.96616161,14.5314642 7.91203565,14.5119434 7.85625,14.5125 C7.73214576,14.5097592 7.62643068,14.6021085 7.61247296,14.7254558 C7.59851524,14.8488031 7.68092137,14.9624398 7.8025,14.9875 C7.70540948,15.1725137 7.75860833,15.4007368 7.9275,15.52375 C7.88686887,15.598089 7.8657928,15.681533 7.86625,15.76625 C7.86586456,15.8973788 7.91600194,16.0236175 8.00625,16.11875 C7.97656792,16.1838975 7.96122197,16.2546594 7.96125,16.32625 C7.9612083,16.3547504 7.96371832,16.3831973 7.96875,16.41125 C7.93216611,16.3851055 7.88868818,16.370323 7.84375,16.36875 C7.90500082,16.284951 7.90543989,16.171273 7.8448382,16.0870034 C7.78423652,16.0027338 7.67632925,15.9669721 7.5773942,15.9983692 C7.47845914,16.0297664 7.41091958,16.1212065 7.41,16.225 C7.4094185,16.2863539 7.43272925,16.3455273 7.475,16.39 C7.36057472,16.4239902 7.28820936,16.5365501 7.30478388,16.6547608 C7.32135839,16.7729715 7.42188914,16.8612893 7.54125,16.8625 L7.56375,16.8625 C7.51708256,16.9402814 7.49245321,17.0292928 7.4925,17.12 C7.49239311,17.2927578 7.57933018,17.4539439 7.72375,17.54875 C7.56129605,17.6183264 7.44586354,17.7663417 7.41796226,17.9408515 C7.39006098,18.1153613 7.4535883,18.2919894 7.58625,18.40875 C7.4710013,18.4879508 7.40224722,18.6189109 7.4025,18.75875 C7.40207381,18.81591 7.41356832,18.8725311 7.43625,18.925 C7.36687699,19.0420245 7.37275163,19.1888904 7.45125,19.3 C7.50070276,19.4266349 7.47774565,19.5701169 7.39125,19.675 C7.39063447,19.6841563 7.39063447,19.6933437 7.39125,19.7025 C7.34955818,19.7356969 7.32841418,19.7883855 7.33559201,19.8411938 C7.34276984,19.8940021 7.37721004,19.9391356 7.42625,19.96 L11.92625,15.815 C11.9352961,15.7888637 11.9399426,15.7614075 11.94,15.73375 C11.94,15.6012017 11.8325483,15.49375 11.7,15.49375 Z" id="Path" fill="#FF6567" fill-rule="nonzero"></path>
                    <path d="M11.35,10.83625 L11.35,10.83625 C11.3061913,10.8257002 11.2613104,10.8202474 11.21625,10.82 C11.0673972,10.82 10.9246411,10.8791315 10.8193863,10.9843863 C10.7141315,11.0896411 10.655,11.2323972 10.655,11.38125 C10.6555799,11.4097201 10.6580857,11.4381183 10.6625,11.46625 C10.6286896,11.4511439 10.5920306,11.443471 10.555,11.44375 C10.4697006,11.4434479 10.3893714,11.4838447 10.33875,11.5525 C10.2856845,11.5341329 10.229904,11.5248362 10.17375,11.525 C9.89879923,11.5247636 9.6726503,11.7415356 9.66125,12.01625 C9.64293746,12.0150152 9.62456254,12.0150152 9.60625,12.01625 C9.45713312,12.01625 9.33625,12.1371331 9.33625,12.28625 C9.33622429,12.3298531 9.34695822,12.3727888 9.3675,12.41125 C9.32347353,12.3856665 9.27341957,12.37229 9.2225,12.3725 C9.14392961,12.3725 9.06857727,12.403712 9.01301962,12.4592696 C8.95746196,12.5148273 8.92625,12.5901796 8.92625,12.66875 C8.92579732,12.7510478 8.9603331,12.8296622 9.02125,12.885 L9.02125,12.885 C8.95376519,12.8910393 8.89606514,12.9360257 8.87375,13 C8.84222836,13.0702872 8.86663586,13.1530605 8.93125,13.195 C8.97485833,13.2286619 9.03184629,13.2396491 9.08484358,13.2246126 C9.13784087,13.2095762 9.18056745,13.1702979 9.2,13.11875 C9.24163548,13.1419786 9.28857402,13.1540362 9.33625,13.15375 C9.35772263,13.1537939 9.37912383,13.1512761 9.4,13.14625 C9.4,13.16375 9.4,13.18125 9.4,13.2 C9.40023764,13.2659584 9.41296173,13.3312755 9.4375,13.3925 C9.33942741,13.4147161 9.26985376,13.5019427 9.27,13.6025 C9.27042699,13.6330203 9.27679561,13.6631651 9.28875,13.69125 C9.32082387,13.7716396 9.39844941,13.8245436 9.485,13.825 C9.55621844,13.8246776 9.62248053,13.7884919 9.66125,13.72875 C9.67519145,13.708782 9.68614043,13.686884 9.69375,13.66375 C9.76231636,13.6969598 9.83756509,13.7140618 9.91375,13.71375 C9.93748261,13.7150353 9.96126739,13.7150353 9.985,13.71375 C9.97028305,13.7537535 9.96307895,13.7961305 9.96375,13.83875 C9.96383973,13.8922536 9.97669577,13.9449634 10.00125,13.9925 L9.9675,13.9925 C9.87473284,13.9915633 9.79759396,14.0636708 9.79228089,14.1562904 C9.78696781,14.2489101 9.855355,14.3293656 9.94762074,14.3390432 C10.0398865,14.3487208 10.1234794,14.2842063 10.1375,14.1925 C10.1850519,14.3808071 10.3545317,14.512682 10.54875,14.5125 C10.6343169,14.5124162 10.7179016,14.4867313 10.78875,14.43875 C10.8044458,14.5665946 10.8902954,14.674937 11.0111672,14.719441 C11.132039,14.763945 11.267648,14.7371418 11.3625,14.65 C11.3619022,14.6604081 11.3619022,14.6708419 11.3625,14.68125 C11.3625,14.915971 11.552779,15.10625 11.7875,15.10625 C11.8646585,15.1063143 11.9403437,15.0851225 12.00625,15.045 C11.9727124,15.0901672 11.9547293,15.1449937 11.955,15.20125 C11.954965,15.3162618 12.0291206,15.4181665 12.1385675,15.4535087 C12.2480144,15.4888509 12.367764,15.4495614 12.435,15.35625 L12.435,15.35625 L14.735,13.23875 L14.735,11.67625 C14.735,11.20625 14.22875,10.61875 13.61,10.40875 C13.47375,10.36125 12.56625,10.06625 12.56625,10.06625 C12.4629889,10.0745685 12.377521,10.1498616 12.35625,10.25125 C12.3237452,10.2346604 12.2877431,10.2260885 12.25125,10.22625 C12.12264,10.2262482 12.0181878,10.3301419 12.0175,10.45875 C12.0168204,10.4708238 12.0168204,10.4829262 12.0175,10.495 C11.9453164,10.4409727 11.8576626,10.4116087 11.7675,10.41125 C11.5357131,10.415341 11.3499639,10.604427 11.35,10.83625 L11.35,10.83625 Z" id="Path" fill="#FF6567" fill-rule="nonzero"></path>
                    <path d="M3.9725,3.5775 C3.9725,4.845 4.44625,6.62375 5.37125,7.715 L5.25875,8.87125 L2.77875,9.775 C2.81964518,9.97231924 2.99348748,10.1137945 3.195,10.11375 C3.23035225,10.1134427 3.26556365,10.1092508 3.3,10.10125 C3.34839975,10.2881134 3.51697033,10.4186528 3.71,10.41875 C3.73081493,10.4199882 3.75168507,10.4199882 3.7725,10.41875 C3.82135098,10.604427 3.98925426,10.7338204 4.18125,10.73375 C4.2374072,10.7334658 4.29299083,10.7224339 4.345,10.70125 C4.35850576,10.8388621 4.47422672,10.943768 4.6125,10.94375 C4.63963,10.9434638 4.66657585,10.9392536 4.6925,10.93125 C4.72283139,11.1108246 4.86451073,11.2509357 5.04441176,11.2792666 C5.22431279,11.3075975 5.40219644,11.2178112 5.48625,11.05625 C5.55957366,11.1130752 5.64973445,11.1438618 5.7425,11.14375 C5.80298629,11.1439814 5.86276551,11.1307445 5.9175,11.105 C5.97340342,11.2240155 6.07614078,11.314533 6.20125,11.355 C6.19571791,11.3706703 6.19276291,11.3871339 6.1925,11.40375 C6.1925,11.4900445 6.26245551,11.56 6.34875,11.56 C6.43504449,11.56 6.505,11.4900445 6.505,11.40375 C6.50494624,11.3849695 6.50156042,11.3663475 6.495,11.34875 C6.63007946,11.3015637 6.73601337,11.1949672 6.78235661,11.0595962 C6.82869984,10.9242252 6.81032022,10.7750709 6.7325,10.655 C6.80275663,10.6451223 6.85733798,10.5888041 6.86501087,10.5182726 C6.87268375,10.4477411 6.83148918,10.3810039 6.765,10.35625 C6.83266531,10.2786594 6.86996226,10.1792009 6.87,10.07625 C6.8712415,10.0562693 6.8712415,10.0362307 6.87,10.01625 C7.00279535,9.96587106 7.10152038,9.85231374 7.13294299,9.71380286 C7.1643656,9.57529198 7.12430647,9.43025005 7.02625,9.3275 C7.03961891,9.3315958 7.05351784,9.3337017 7.0675,9.33375 C7.13563287,9.3342922 7.19626147,9.29062252 7.21733333,9.22582778 C7.23840519,9.16103304 7.21506119,9.09005468 7.15964261,9.0504168 C7.10422402,9.01077891 7.02951018,9.01162186 6.975,9.0525 C6.94438461,8.99305346 6.88728898,8.95174036 6.82125,8.94125 C6.87588889,8.85254437 6.90487816,8.75043293 6.905,8.64625 C6.90475074,8.57826503 6.89204068,8.51090168 6.8675,8.4475 C7.03364926,8.38580841 7.14385442,8.22723267 7.14375,8.05 C7.14394698,7.94835744 7.10705765,7.85013403 7.04,7.77375 C7.14987649,7.73744057 7.22855327,7.64047757 7.24145041,7.52547808 C7.25434755,7.41047859 7.19910387,7.29849648 7.1,7.23875 C7.14159933,7.18648886 7.16448452,7.1217942 7.165,7.055 C7.1662265,7.03752149 7.1662265,7.01997851 7.165,7.0025 C7.2243095,7.00013615 7.28146533,6.97962986 7.32875,6.94375 C7.32689514,6.96245413 7.32689514,6.98129587 7.32875,7 C7.32879277,7.1013696 7.38066326,7.19567959 7.46625,7.25 C7.39120233,7.45231129 7.4806658,7.67866465 7.67375,7.775 C7.6602273,7.8247263 7.65308663,7.87597113 7.6525,7.9275 C7.6527563,8.10004386 7.73253823,8.26283588 7.86875,8.36875 C7.75017844,8.42078301 7.67360111,8.5380139 7.67360111,8.6675 C7.67360111,8.7969861 7.75017844,8.91421699 7.86875,8.96625 C7.84456988,9.00709727 7.83203346,9.05378465 7.8325,9.10125 C7.83239905,9.20572018 7.89284888,9.30078242 7.9875,9.345 C7.95981239,9.41152727 7.94578437,9.48294263 7.94625,9.555 C7.94611136,9.64176978 7.96622838,9.72737413 8.005,9.805 C7.9869721,9.82514625 7.97027035,9.84644098 7.955,9.86875 C7.92575275,9.83884075 7.88558104,9.82214015 7.84375,9.8225 C7.75745551,9.8225 7.6875,9.89245551 7.6875,9.97875 C7.6875,10.0650445 7.75745551,10.135 7.84375,10.135 L7.86625,10.135 C7.86625,10.15 7.86625,10.16375 7.86625,10.17875 C7.86640671,10.2825356 7.89540211,10.3842359 7.95,10.4725 C7.83070919,10.7027769 7.86602288,10.9827995 8.03875,11.17625 C7.98289593,11.266021 7.98057133,11.37914 8.03269022,11.4711298 C8.0848091,11.5631197 8.18303633,11.6192688 8.28875,11.6175406 C8.42858558,11.6173996 8.54843497,11.5175251 8.57375,11.38 C8.64974931,11.3716845 8.72352008,11.3492141 8.79125,11.31375 C8.83215283,11.4013619 8.92624416,11.4511747 9.02169552,11.4357498 C9.11714688,11.420325 9.19075939,11.3434115 9.20198495,11.2473757 C9.2132105,11.1513399 9.1593208,11.0595227 9.07,11.0225 C9.09218924,10.9743039 9.10815095,10.9234785 9.1175,10.87125 C9.165151,10.8843551 9.21433004,10.8910804 9.26375,10.89125 L9.2825,10.89125 C9.3230855,10.9933175 9.42267851,11.0595468 9.5325,11.0575 C9.61477744,11.0575012 9.69219999,11.0185581 9.74125,10.9525 C9.76532537,11.0407278 9.83888724,11.1066466 9.92921733,11.1209376 C10.0195474,11.1352286 10.1098653,11.0952371 10.16,11.01875 C10.205804,11.0483375 10.2592213,11.0639718 10.31375,11.06375 C10.4770799,11.0630652 10.6093152,10.9308299 10.61,10.7675 C10.610168,10.7146763 10.5959048,10.66281 10.56875,10.6175 C10.5921881,10.6249826 10.6166465,10.6287779 10.64125,10.62875 C10.7029128,10.62875 10.7620501,10.6042545 10.8056523,10.5606523 C10.8492545,10.5170501 10.87375,10.4579128 10.87375,10.39625 C10.8743682,10.3854255 10.8743682,10.3745745 10.87375,10.36375 C10.9237853,10.4627519 11.0253226,10.5251248 11.13625,10.525 C11.2976114,10.5195795 11.4251978,10.386446 11.42375,10.225 C11.5032295,10.1762159 11.5550986,10.0928549 11.56375,10 C11.5785558,10.0055295 11.5941975,10.0084887 11.61,10.00875 C11.6515423,10.0090864 11.6914808,9.99273243 11.7208566,9.96335663 C11.7502324,9.93398084 11.7665864,9.89404229 11.7662806,9.8525 C11.766619,9.83501567 11.7636493,9.81762144 11.7575,9.80125 L11.52125,9.725 L9.04875,8.9275 L9.03875,7.87 C9.4253939,7.43354398 9.72456805,6.92685755 9.92,6.3775 C10.3225,5.305 10.53875,4.17125 10.53875,3.5775 C10.53875,2.03875 9.07,0.045 7.25875,0.045 C5.4475,0.045 3.9725,1.62625 3.9725,3.5775 Z" id="Shape" fill="#FF6567" fill-rule="nonzero"></path>
                    <path d="M3.315,14.775 C3.315,14.7575 3.315,14.74125 3.315,14.725 C3.42369993,14.8609576 3.61687202,14.8942022 3.76476831,14.8024045 C3.91266461,14.7106068 3.96859813,14.5227449 3.895,14.365 C3.96283393,14.3418074 4.02179664,14.2981313 4.06375,14.24 C4.10852156,14.2865618 4.17040569,14.3127609 4.235,14.3125 C4.29886826,14.3128327 4.36023482,14.2876939 4.40551426,14.2426491 C4.45079371,14.1976043 4.47625087,14.1363691 4.47625,14.0725 C4.47531104,14.0059417 4.44786724,13.942506 4.4,13.89625 C4.4891647,13.8535491 4.55532796,13.7741531 4.58125,13.67875 C4.63847575,13.7406495 4.7161853,13.7797263 4.8,13.78875 C4.73087741,13.8704328 4.72381955,13.9878872 4.78266338,14.0772596 C4.84150722,14.166632 4.95219031,14.2065643 5.05454036,14.1753475 C5.15689042,14.1441307 5.22644792,14.049225 5.22539829,13.9422254 C5.22434867,13.8352258 5.15294275,13.7417029 5.05,13.7125 C5.12954322,13.6475727 5.17548487,13.5501764 5.175,13.4475 C5.17478525,13.4166716 5.17058373,13.3860005 5.1625,13.35625 L5.19375,13.35625 C5.24055182,13.3563185 5.28688865,13.3469661 5.33,13.32875 C5.33345562,13.4229924 5.4114573,13.4972725 5.50575597,13.4961203 C5.60005463,13.4949682 5.67621824,13.4188046 5.67737035,13.324506 C5.67852245,13.2302073 5.60424237,13.1522056 5.51,13.14875 C5.52796148,13.1055604 5.53730346,13.0592752 5.5375,13.0125 C5.5377053,12.9837823 5.5339191,12.9551755 5.52625,12.9275 L5.52625,12.9275 C5.61254449,12.9275 5.6825,12.8575445 5.6825,12.77125 C5.6825,12.6849555 5.61254449,12.615 5.52625,12.615 L5.51375,12.615 C5.50440436,12.4887822 5.43992852,12.3730915 5.3375,12.29875 C5.33817875,12.2887615 5.33817875,12.2787385 5.3375,12.26875 C5.33719149,12.1149836 5.25384955,11.973376 5.11956795,11.8984582 C4.98528634,11.8235405 4.82101025,11.8269983 4.69,11.9075 C4.70023052,11.8825215 4.70533171,11.8557403 4.705,11.82875 C4.705,11.7058666 4.60538336,11.60625 4.4825,11.60625 C4.46128269,11.6064257 4.44021291,11.6097968 4.42,11.61625 C4.4212517,11.5958525 4.4212517,11.5753975 4.42,11.555 C4.42,11.320279 4.22972102,11.13 3.995,11.13 C3.92487299,11.1302489 3.85583948,11.1474001 3.79375,11.18 C3.73962892,11.0913322 3.65456861,11.0258669 3.555,10.99625 C3.56892565,10.9673987 3.57618799,10.9357862 3.57625,10.90375 C3.57556236,10.7806647 3.4755872,10.6812481 3.3525,10.68125 C3.32456881,10.6808223 3.29686815,10.6863625 3.27125,10.6975 C3.26987501,10.4637559 3.07999816,10.274996 2.84625,10.275 C2.80947741,10.2748973 2.77287172,10.2799464 2.7375,10.29 C2.71038093,10.2247497 2.65372627,10.1763777 2.5850317,10.1598218 C2.51633713,10.1432659 2.44386663,10.1605179 2.39,10.20625 C2.37501886,10.0961526 2.28111169,10.0139839 2.17,10.01375 C2.12903908,10.0139797 2.08889125,10.0252038 2.05375,10.04625 C1.47375,10.275 0.98375,10.46375 0.79875,10.5375 C0.372791609,10.7165932 0.0897858593,11.1269516 0.07375,11.58875 L0.07375,13.0075 L2.3725,15.34125 C2.39632811,15.3463406 2.42063441,15.348855 2.445,15.3487532 C2.56793875,15.3488103 2.68147932,15.2829759 2.7425,15.17625 C2.79006871,15.1941347 2.84043119,15.2034454 2.89125,15.20375 C3.00440294,15.2034216 3.11275342,15.1579839 3.19229433,15.0775045 C3.27183523,14.997025 3.31599889,14.888149 3.315,14.775 L3.315,14.775 Z" id="Path" fill="#FF6567" fill-rule="nonzero"></path>
                </g>
            </g>
        </g>
    </g>
</svg>