<?xml version="1.0" encoding="UTF-8"?>
<svg width="36px" height="36px" viewBox="0 0 36 36" version="1.1" xmlns="http://www.w3.org/2000/svg" xmlns:xlink="http://www.w3.org/1999/xlink">
    <title>Group 2</title>
    <g id="Page-1" stroke="none" stroke-width="1" fill="none" fill-rule="evenodd">
        <g id="Artboard-Copy-2" transform="translate(-49.000000, -9.000000)">
            <g id="Group-2" transform="translate(50.000000, 10.000000)">
                <rect id="Rectangle-Copy" stroke="#061F4A" x="0" y="0" width="34" height="34" rx="17"></rect>
                <g id="fire-svgrepo-com" transform="translate(9.000000, 7.000000)" fill="#FF6567" fill-rule="nonzero">
                    <path d="M15.9688181,11.1514372 C15.1681832,9.98849996 14.7597328,9.11589705 14.6508704,7.66395888 C14.5693403,6.5788886 15.0254555,5.32588442 15.0254555,5.32588442 C14.4601447,5.70241901 14.4538783,5.66208554 14.0806931,5.97048657 C12.1383036,7.57595859 11.6307904,9.18269728 11.5713928,9.3904313 C11.5673263,9.40516468 11.564993,9.41363138 11.564993,9.41363138 L11.5713928,9.3904313 C11.5713928,9.3904313 13.0895325,3.45094484 8.8634337,0.685135617 C8.5127143,0.455668186 7.70374644,0 7.70374644,0 C7.70374644,0 9.80199641,5.14428381 6.04521233,8.19609399 C5.30577505,5.17801726 1.40206348,5.1408838 1.40206348,5.1408838 C1.40206348,5.1408838 1.70205156,6.19242064 1.75024964,6.4411548 C2.38289117,9.72109907 0.443834882,10.7590359 0.0499838633,13.8596462 C0.0949154114,13.5037783 0.0770494546,13.6454455 0.0497172072,13.8615795 C0.0495838792,13.8623129 0.0494505511,13.8631129 0.0494505511,13.8639129 C0.0495172151,13.8635129 0.0495172151,13.8632462 0.0495838792,13.8628462 C0.0494505511,13.8637795 0.0493838871,13.8646462 0.0493172231,13.8654462 C-0.258070564,16.299521 0.901750022,18.1847273 2.68407921,19.4567315 C2.7672759,18.5975953 3.11946191,17.7453258 3.60890913,17.0341901 C4.16282046,16.2297208 4.44547589,15.6260521 4.52047291,14.6217154 C4.57647069,13.8710462 4.26134988,13.00411 4.26134988,13.00411 C4.65186769,13.2648442 4.65680083,13.2369775 4.91485724,13.4502448 C6.00648054,14.3525145 6.44292987,15.2554509 6.59032401,15.6394521 C6.59525715,15.6364521 6.60032361,15.6335188 6.60565673,15.6305854 C6.41946413,14.790116 5.89461832,11.514905 8.52404718,9.79403265 C8.76650421,9.63556545 9.32621531,9.32029773 9.32621531,9.32029773 C9.32621531,9.32029773 7.8372078,12.5763086 11.1153442,15.2210507 C11.0421471,14.1386471 11.4550641,13.1392438 12.2277667,12.3691746 C12.64755,11.9511732 13.4040533,11.7503058 13.4040533,11.7503058 C13.4040533,11.7503058 13.1962615,12.4781749 13.1630629,12.6500422 C12.7253469,14.9195831 14.6306046,16.6843223 14.2235541,18.8340628 C14.1472238,19.2369975 14.0378948,19.6280654 13.8854342,20 L14.0674269,20 C15.0337885,19.4839316 15.9306196,18.812796 16.5447952,17.8919263 C17.942273,15.7967193 17.3142313,13.105577 15.9688181,11.1514372 Z" id="Path"></path>
                </g>
            </g>
        </g>
    </g>
</svg>