<?xml version="1.0" encoding="UTF-8"?>
<svg width="36px" height="36px" viewBox="0 0 36 36" version="1.1" xmlns="http://www.w3.org/2000/svg" xmlns:xlink="http://www.w3.org/1999/xlink">
    <title>Group</title>
    <g id="Page-1" stroke="none" stroke-width="1" fill="none" fill-rule="evenodd">
        <g id="Artboard-Copy-2" transform="translate(-11.000000, -9.000000)">
            <g id="Group" transform="translate(12.000000, 10.000000)">
                <rect id="Rectangle" stroke="#061F4A" x="0" y="0" width="34" height="34" rx="17"></rect>
                <g id="danger-dead-svgrepo-com" transform="translate(7.000000, 7.000000)" fill="#FF6567" fill-rule="nonzero">
                    <circle id="Oval" cx="8.07692308" cy="9.61538462" r="1.15384615"></circle>
                    <circle id="Oval" cx="12.6923077" cy="9.61538462" r="1.15384615"></circle>
                    <polygon id="Path" points="10.7692504 11.5384615 10 13.0769231 11.5384615 13.0769231"></polygon>
                    <path d="M17.9705407,14.6528619 L15.9608332,12.690367 C16.3800716,11.8620415 16.6058559,10.9425689 16.6058559,9.99996286 C16.6058559,9.03430271 16.3735001,8.12077189 15.9611577,7.30924184 L17.9705407,5.34706382 C18.7107693,5.63591417 19.5771953,5.48083338 20.1710656,4.90091442 C20.9686124,4.12218306 20.9686124,2.85495713 20.1711062,2.07618616 C19.8957516,1.80737946 19.5565072,1.62536254 19.1896787,1.54241512 C19.1047357,1.18424385 18.9184211,0.852969101 18.643107,0.584083175 C17.8455197,-0.194648178 16.5478887,-0.194648178 15.750423,0.584083175 C15.1565121,1.16396253 14.9977005,2.00991537 15.2935404,2.73295232 L13.3299957,4.65036882 C12.45282,4.18813696 11.4498526,3.9254305 10.3851453,3.9254305 C9.32043797,3.9254305 8.31747048,4.18813696 7.44033535,4.65044805 L5.47675014,2.73299193 C5.77263062,2.0100342 5.61377841,1.16408137 5.01990808,0.584122787 C4.22236131,-0.19468779 2.92468972,-0.194727402 2.12722408,0.584122787 C1.85195057,0.852929489 1.66555479,1.18428346 1.58061186,1.54245473 C1.21386448,1.62540215 0.874498411,1.80741907 0.599224906,2.07622577 C0.212762973,2.45345039 0,2.95505653 0,3.48862951 C0,4.0222025 0.212762973,4.52376903 0.599103211,4.90099364 C1.19293298,5.480873 2.05923728,5.63595379 2.79966865,5.34714305 L4.80905165,7.30932106 C4.39670931,8.12085111 4.16439405,9.03438193 4.16439405,10.0000421 C4.16439405,10.9426481 4.39013779,11.8621207 4.80933561,12.6904462 L2.79962809,14.6529411 C2.05915615,14.3639719 1.19293298,14.5191319 0.599062646,15.0990509 C0.212762973,15.4762755 0,15.9778421 0,16.5113754 C0,17.0449088 0.212762973,17.5465149 0.599143776,17.9237792 C0.874457846,18.1926651 1.21374278,18.3746028 1.58053073,18.4575502 C1.66547366,18.8157215 1.85186944,19.1470755 2.12714295,19.4158822 C2.52589605,19.8053073 3.04971078,20 3.57348495,20 C4.09725911,20 4.62107384,19.8052676 5.01986751,19.4158425 C5.61377841,18.835884 5.77259005,17.9900104 5.47670957,17.2669734 L6.10250449,16.6558798 L6.12899338,16.696284 C6.18379658,16.7798256 7.50430622,18.7420036 10.3850641,18.7420036 C13.265822,18.7420036 14.5863317,16.779786 14.6410943,16.696284 L14.6675832,16.6558798 L15.2933781,17.2670526 C14.9975382,17.9900104 15.1563904,18.8359632 15.7502608,19.4158822 C16.1490544,19.8053469 16.6727475,20 17.1966028,20 C17.7203769,20 18.2442322,19.805228 18.6430259,19.4158822 C18.91834,19.1470755 19.1046546,18.8157611 19.1895975,18.4575502 C19.5563855,18.3746028 19.895711,18.1925859 20.1709439,17.9237792 C20.9684907,17.1449686 20.9684907,15.8777823 20.1709439,15.0990509 C19.5771547,14.5190131 18.710891,14.3639719 17.9705407,14.6528619 Z M17.0515426,2.88684475 L16.6617949,2.42342453 C16.4357267,2.15465744 16.4556846,1.76598497 16.7081606,1.51940057 C16.9775928,1.25637721 17.4158967,1.2563376 17.6852071,1.51940057 C17.8369199,1.66754927 17.9085576,1.87230345 17.8817847,2.08117727 L17.7735981,2.92526834 L18.6379958,2.81958365 C18.8519352,2.7935586 19.0615747,2.86335486 19.2132469,3.01154317 C19.4826385,3.27460614 19.4826385,3.70261327 19.2132469,3.96563663 C18.9607709,4.21218142 18.5627074,4.23178933 18.2874744,4.01091309 L17.8128649,3.63032146 L15.2108285,6.17130931 C14.9837461,5.89889792 14.7332578,5.64589639 14.4619597,5.41551328 L17.0515426,2.88684475 Z M2.95726334,3.63036107 L2.48269442,4.01091309 C2.20746148,4.2316705 1.80947911,4.21222103 1.55692195,3.96559702 C1.42638406,3.83820498 1.3545436,3.66882428 1.3545436,3.48862951 C1.3545436,3.30843475 1.42638406,3.13897482 1.55688139,3.01154317 C1.70859417,2.86339447 1.91811195,2.79347938 2.13213243,2.81958365 L2.99648961,2.92526834 L2.88830299,2.08117727 C2.86153015,1.87230345 2.93316778,1.66754927 3.08488056,1.51940057 C3.35423159,1.2563376 3.79253548,1.25637721 4.06192707,1.51940057 C4.3144031,1.76602458 4.33436103,2.15461782 4.10829277,2.42342453 L3.71858564,2.88680513 L6.30816861,5.41551328 C6.03691103,5.64585677 5.78638212,5.89889792 5.55929973,6.17130931 L2.95726334,3.63036107 Z M3.71866677,17.1131206 L4.10841446,17.5765408 C4.33448273,17.8453475 4.31452479,18.2339804 4.06204877,18.4805648 C3.79265718,18.7436277 3.35431272,18.7436277 3.08500226,18.4805648 C2.93328948,18.3324161 2.86165184,18.1276619 2.88842468,17.9187881 L2.99653018,17.0746574 L2.132173,17.1803421 C1.91811195,17.2064067 1.70859417,17.1364916 1.55692195,16.9883826 C1.42642463,16.8609509 1.35458416,16.691491 1.35458416,16.5112962 C1.35458416,16.3311014 1.42642463,16.1616811 1.55696252,16.0342495 C1.80943854,15.7877047 2.20742091,15.7682156 2.48273498,15.988973 L2.95730391,16.369525 L5.55808279,13.8298444 C5.70265614,14.0037408 5.85720846,14.1707052 6.02210484,14.3292323 L6.02210484,14.8638352 L6.02210484,14.8638352 L3.71866677,17.1131206 Z M13.6203188,13.5490353 L13.393561,13.7463028 L13.393561,16.1182268 C13.2801009,16.2510457 13.0760594,16.4640788 12.7793676,16.6780625 C12.6231116,16.7907981 12.46,16.8901449 12.2910066,16.9773308 L12.2910066,15.4689473 L10.9364224,15.4689473 L10.9364224,17.3864034 C10.757085,17.4078335 10.573407,17.4192417 10.3851047,17.4192417 C10.1968429,17.4192417 10.0132461,17.4078335 9.83382752,17.3863242 L9.83382752,15.4689473 L8.47924336,15.4689473 L8.47924336,16.9770931 C8.3262325,16.8982258 8.17796774,16.809495 8.0353415,16.7097125 C7.71524377,16.4857861 7.49647719,16.2582551 7.37660787,16.1178307 L7.37660787,13.7463028 L7.14985,13.5490353 C6.11337589,12.647388 5.51893765,11.3537805 5.51893765,9.99996286 C5.51893765,7.37979072 7.70189791,5.24815278 10.3850641,5.24815278 C13.0683115,5.24815278 15.2511906,7.37983033 15.2511906,9.99996286 C15.2511906,11.3537409 14.6567929,12.6473088 13.6203188,13.5490353 Z M19.2132469,16.9884222 C19.0615747,17.1365313 18.8518135,17.2064463 18.6380364,17.1803817 L17.7736387,17.074697 L17.8818253,17.9187881 C17.9085981,18.1276619 17.8369605,18.3324161 17.6852477,18.4805251 C17.4158155,18.7436277 16.9775928,18.7435881 16.7081606,18.4805251 C16.4556035,18.2339804 16.4357267,17.8453475 16.6617949,17.5765012 L17.0515426,17.113081 L14.7481451,14.8638352 L14.7481451,14.3292719 C14.9130009,14.1707448 15.0675127,14.0037805 15.2121266,13.829884 L17.8129461,16.3696043 L18.287515,15.9890126 C18.5628291,15.7682948 18.9606897,15.7877443 19.2132874,16.0342891 C19.4825979,16.2973917 19.4825979,16.7253988 19.2132469,16.9884222 Z" id="Shape"></path>
                </g>
            </g>
        </g>
    </g>
</svg>