<?xml version="1.0" encoding="UTF-8"?>
<svg width="40px" height="40px" viewBox="0 0 40 40" version="1.1" xmlns="http://www.w3.org/2000/svg" xmlns:xlink="http://www.w3.org/1999/xlink">
    <title>Group 8 Copy</title>
    <g id="Page-1" stroke="none" stroke-width="1" fill="none" fill-rule="evenodd">
        <g id="Rapid-Stain-Copy" transform="translate(-100.000000, -1041.000000)">
            <g id="Group-8-Copy" transform="translate(120.000000, 1061.000000) scale(-1, 1) translate(-120.000000, -1061.000000) translate(100.000000, 1041.000000)">
                <circle id="Oval" fill="#0871CD" cx="20" cy="20" r="20"></circle>
                <path d="M15.974026,31.8068182 C16.0714286,31.8068182 16.1728896,31.786526 16.2784091,31.7459416 C16.3839286,31.7053571 16.4772727,31.6444805 16.5584416,31.5633117 L16.5584416,31.5633117 L28.2467532,19.8506494 C28.4090909,19.6883117 28.4902597,19.4935065 28.4902597,19.2662338 C28.4902597,19.038961 28.4090909,18.8441558 28.2467532,18.6818182 L28.2467532,18.6818182 L16.7288961,7.13961039 C16.5665584,6.97727273 16.3676948,6.8961039 16.1323052,6.8961039 C15.8969156,6.8961039 15.6980519,6.97727273 15.5357143,7.13961039 C15.3733766,7.30194805 15.2922078,7.50081169 15.2922078,7.7362013 C15.2922078,7.97159091 15.3733766,8.17045455 15.5357143,8.33279221 L15.5357143,8.33279221 L26.4935065,19.2662338 L15.3652597,30.3944805 C15.2029221,30.5568182 15.1217532,30.7516234 15.1217532,30.9788961 C15.1217532,31.2061688 15.2029221,31.400974 15.3652597,31.5633117 C15.4464286,31.6444805 15.5397727,31.7053571 15.6452922,31.7459416 C15.7508117,31.786526 15.8603896,31.8068182 15.974026,31.8068182 Z" id="" fill="#FBFBFB" fill-rule="nonzero"></path>
            </g>
        </g>
    </g>
</svg>