<?xml version="1.0" encoding="utf-8"?>
<!-- Generator: Adobe Illustrator 23.1.0, SVG Export Plug-In . SVG Version: 6.00 Build 0)  -->
<svg version="1.1" id="Layer_1" xmlns="http://www.w3.org/2000/svg" xmlns:xlink="http://www.w3.org/1999/xlink" x="0px" y="0px"
	 viewBox="0 0 295.1 331.8" style="enable-background:new 0 0 295.1 331.8;" xml:space="preserve">
<style type="text/css">
	.st0{opacity:0;}
	.st1{fill:#061F4A;}
</style>
<g>
	<g id="Layer_1-2">
		<g class="st0">
			<rect class="st1" width="295.1" height="331.8"/>
		</g>
		<path class="st1" d="M147.6,323.9c-48,0-85.7-16.8-85.7-38.2V121.3c0.1-1.8,1.7-3.2,3.5-3.1c1.7,0.1,3,1.4,3.1,3.1v164.4
			c0,17.1,36.2,31.6,79.1,31.6s79.1-14.5,79.1-31.6V121.3c0.1-1.8,1.7-3.2,3.5-3.1c1.7,0.1,3,1.4,3.1,3.1v164.4
			C233.2,307.1,195.6,323.9,147.6,323.9z"/>
		<path class="st1" d="M147.6,159.5c-48,0-85.7-16.8-85.7-38.2c0.1-1.8,1.7-3.2,3.5-3.1c1.7,0.1,3,1.4,3.1,3.1
			c0,17.1,36.2,31.6,79.1,31.6s79.1-14.5,79.1-31.6c0-1.8,1.5-3.3,3.3-3.3s3.3,1.5,3.3,3.3C233.2,142.7,195.6,159.5,147.6,159.5z"/>
		<path class="st1" d="M65.2,161.3c0,19.3,36.9,34.9,82.3,34.9s82.4-15.6,82.4-34.9l0,0v74.4c0,19.3-36.9,34.9-82.4,34.9
			s-82.4-15.6-82.4-34.9L65.2,161.3"/>
		<path class="st1" d="M147.6,78.9c-23,0-40.4-8.2-40.4-19V28.4c0.1-1.8,1.7-3.2,3.5-3.1c1.7,0.1,3,1.4,3.1,3.1v31.5
			c0,5.9,14.4,12.4,33.8,12.4s33.8-6.6,33.8-12.4V28.4c0-1.8,1.5-3.3,3.3-3.3s3.3,1.5,3.3,3.3v31.5
			C187.9,70.8,170.6,78.9,147.6,78.9z"/>
		<path class="st1" d="M147.6,47.4c-23,0-40.4-8.2-40.4-19s17.4-19,40.4-19s40.4,8.2,40.4,19S170.6,47.4,147.6,47.4z M147.6,16
			c-19.3,0-33.8,6.5-33.8,12.4s14.4,12.4,33.8,12.4s33.8-6.5,33.8-12.4S166.9,16,147.6,16L147.6,16z"/>
		<path class="st1" d="M65.2,124.6c-1.8,0-3.3-1.5-3.3-3.3c0,0,0,0,0,0c0-18.8,19-36,32.9-48.6c5.3-4.8,12-10.8,12.3-12.9
			c0-1.8,1.5-3.3,3.3-3.3c0,0,0,0,0,0c1.8,0,3.3,1.5,3.3,3.3c0,4.4-4.7,8.9-14.5,17.7c-13,11.7-30.7,27.7-30.7,43.7
			C68.5,123.1,67,124.6,65.2,124.6C65.2,124.6,65.2,124.6,65.2,124.6z"/>
		<path class="st1" d="M229.9,124.6c-1.8,0-3.3-1.5-3.3-3.3c0,0,0,0,0,0c0-15.9-17.8-31.9-30.7-43.7c-9.8-8.8-14.5-13.3-14.5-17.7
			c0-1.8,1.5-3.3,3.3-3.3s3.3,1.5,3.3,3.3c0.4,2,7,8,12.4,12.8c13.9,12.5,32.9,29.7,32.9,48.6C233.2,123.1,231.7,124.6,229.9,124.6
			L229.9,124.6z"/>
		<path class="st1" d="M193.5,314.6c7.5-5.4,20.1-16,19.8-37.6c-0.8-50.1-5-134.9-6-134.9c0,0-10.4-35.8-46.8-67.5
			c0,0,16.8-1.8,26-10.8c0,0,37.7,30.7,42,49s1.4,167.7,1.4,167.7S232.5,301.3,193.5,314.6z"/>
		<polygon class="st1" points="168.9,41.2 168.9,73 184.6,63.8 184.6,31.7 		"/>
		<polygon class="st1" points="130.5,75.4 119.8,70.7 119.8,37 130.5,41.7 		"/>
		<polygon class="st1" points="102,210.5 91.2,205.8 91.2,147.5 102,152.1 		"/>
	</g>
</g>
</svg>
