<svg width="219" height="16" viewBox="0 0 219 16" fill="none" xmlns="http://www.w3.org/2000/svg">
  <path d="M16.7888 14.5456V11.228C17.3901 11.7326 18.0432 12.1127 18.7482 12.3685C19.4532 12.6173 20.1651 12.7417 20.8839 12.7417C21.3056 12.7417 21.6719 12.7037 21.9829 12.6276C22.3008 12.5516 22.5635 12.4479 22.7708 12.3166C22.9851 12.1784 23.1441 12.0194 23.2477 11.8397C23.3514 11.6531 23.4032 11.4527 23.4032 11.2384C23.4032 10.9481 23.3203 10.6889 23.1544 10.4608C22.9885 10.2327 22.7605 10.0219 22.4702 9.82841C22.1868 9.63488 21.8481 9.44827 21.4542 9.26857C21.0602 9.08886 20.6351 8.9057 20.1789 8.71909C19.0178 8.23527 18.1504 7.64432 17.5767 6.94624C17.0099 6.24816 16.7266 5.40494 16.7266 4.41656C16.7266 3.64246 16.8821 2.97894 17.1931 2.426C17.5041 1.86615 17.9257 1.40653 18.4579 1.04712C18.997 0.687712 19.6191 0.425068 20.3241 0.259188C21.0291 0.086396 21.7755 0 22.5635 0C23.3376 0 24.0218 0.0483818 24.6162 0.145145C25.2176 0.234997 25.7705 0.376687 26.2751 0.570214V3.6701C26.0262 3.49731 25.7532 3.34525 25.456 3.21393C25.1657 3.08261 24.8651 2.97548 24.554 2.89254C24.243 2.80269 23.932 2.73703 23.621 2.69556C23.3169 2.65409 23.0266 2.63335 22.7501 2.63335C22.37 2.63335 22.0244 2.67137 21.7133 2.74739C21.4023 2.81651 21.1397 2.91673 20.9254 3.04805C20.7111 3.17937 20.5453 3.33834 20.4278 3.52496C20.3103 3.70466 20.2515 3.90856 20.2515 4.13664C20.2515 4.38546 20.3172 4.61009 20.4485 4.81053C20.5798 5.00406 20.7664 5.19067 21.0083 5.37038C21.2503 5.54317 21.544 5.71596 21.8896 5.88875C22.2352 6.05463 22.6257 6.22743 23.0611 6.40713C23.6555 6.65595 24.1877 6.92205 24.6577 7.20543C25.1346 7.4819 25.5424 7.79638 25.8811 8.14887C26.2198 8.50137 26.4789 8.9057 26.6586 9.36187C26.8384 9.81113 26.9282 10.3364 26.9282 10.9377C26.9282 11.7671 26.7692 12.4652 26.4513 13.032C26.1403 13.5918 25.7152 14.048 25.1761 14.4005C24.637 14.7461 24.008 14.9949 23.2892 15.147C22.5773 15.299 21.8239 15.375 21.0291 15.375C20.2135 15.375 19.4359 15.3059 18.6964 15.1677C17.9638 15.0295 17.3279 14.8221 16.7888 14.5456Z" fill="#061F4A" />
  <path d="M42.4484 15.1158H38.799L37.7415 11.8086H32.4541L31.407 15.1158H27.7783L33.1902 0.248821H37.1609L42.4484 15.1158ZM36.9743 9.23746L35.3777 4.24032C35.2602 3.86709 35.1773 3.42128 35.1289 2.90291H35.046C35.0114 3.33834 34.925 3.77032 34.7868 4.19885L33.1695 9.23746H36.9743Z" fill="#061F4A" />
  <path d="M53.158 15.1158H44.3042V0.248821H47.6529V12.3996H53.158V15.1158Z" fill="#061F4A" />
  <path d="M67.289 8.67762C67.289 13.1426 65.2086 15.375 61.0477 15.375C57.0113 15.375 54.9931 13.1944 54.9931 8.83313V0.248821H58.3522V8.8746C58.3522 11.2799 59.2922 12.4825 61.1721 12.4825C63.0175 12.4825 63.9403 11.3213 63.9403 8.99901V0.248821H67.289V8.67762Z" fill="#061F4A" />
  <path d="M76.7338 9.21673C76.7338 11.2073 76.2707 12.7313 75.3445 13.7888C74.4253 14.8463 73.0913 15.375 71.3427 15.375C70.5616 15.375 69.8394 15.2403 69.1759 14.9707V11.8293C69.7495 12.2648 70.3923 12.4825 71.1042 12.4825C72.6317 12.4825 73.3954 11.349 73.3954 9.08195V0.248821H76.7338V9.21673Z" fill="#061F4A" />
  <path d="M93.0626 15.1158H89.4133L88.3558 11.8086H83.0683L82.0212 15.1158H78.3926L83.8044 0.248821H87.7752L93.0626 15.1158ZM87.5886 9.23746L85.992 4.24032C85.8745 3.86709 85.7915 3.42128 85.7432 2.90291H85.6602C85.6257 3.33834 85.5393 3.77032 85.401 4.19885L83.7837 9.23746H87.5886Z" fill="#061F4A" />
  <path d="M113.653 15.1158H110.293V9.06122H104.135V15.1158H100.786V0.248821H104.135V6.17904H110.293V0.248821H113.653V15.1158Z" fill="#061F4A" />
  <path d="M123.346 15.375C121.217 15.375 119.483 14.6839 118.142 13.3015C116.801 11.9123 116.13 10.1049 116.13 7.87932C116.13 5.52935 116.811 3.62863 118.173 2.17718C119.534 0.725727 121.338 0 123.585 0C125.706 0 127.421 0.694624 128.727 2.08387C130.04 3.47312 130.697 5.30472 130.697 7.57866C130.697 9.91481 130.016 11.7982 128.654 13.229C127.3 14.6597 125.53 15.375 123.346 15.375ZM123.491 2.88217C122.316 2.88217 121.383 3.32452 120.692 4.20921C120.001 5.087 119.655 6.25162 119.655 7.70307C119.655 9.17526 120.001 10.3399 120.692 11.1969C121.383 12.054 122.289 12.4825 123.408 12.4825C124.563 12.4825 125.478 12.0678 126.156 11.2384C126.833 10.4021 127.172 9.24438 127.172 7.76528C127.172 6.22397 126.843 5.02479 126.187 4.16774C125.53 3.3107 124.632 2.88217 123.491 2.88217Z" fill="#061F4A" />
  <path d="M132.49 14.5456V11.228C133.092 11.7326 133.745 12.1127 134.45 12.3685C135.155 12.6173 135.867 12.7417 136.585 12.7417C137.007 12.7417 137.373 12.7037 137.684 12.6276C138.002 12.5516 138.265 12.4479 138.472 12.3166C138.687 12.1784 138.846 12.0194 138.949 11.8397C139.053 11.6531 139.105 11.4527 139.105 11.2384C139.105 10.9481 139.022 10.6889 138.856 10.4608C138.69 10.2327 138.462 10.0219 138.172 9.82841C137.888 9.63488 137.55 9.44827 137.156 9.26857C136.762 9.08886 136.337 8.9057 135.88 8.71909C134.719 8.23527 133.852 7.64432 133.278 6.94624C132.711 6.24816 132.428 5.40494 132.428 4.41656C132.428 3.64246 132.584 2.97894 132.895 2.426C133.206 1.86615 133.627 1.40653 134.159 1.04712C134.699 0.687712 135.321 0.425068 136.026 0.259188C136.731 0.086396 137.477 0 138.265 0C139.039 0 139.723 0.0483818 140.318 0.145145C140.919 0.234997 141.472 0.376687 141.977 0.570214V3.6701C141.728 3.49731 141.455 3.34525 141.158 3.21393C140.867 3.08261 140.567 2.97548 140.256 2.89254C139.945 2.80269 139.634 2.73703 139.323 2.69556C139.018 2.65409 138.728 2.63335 138.452 2.63335C138.071 2.63335 137.726 2.67137 137.415 2.74739C137.104 2.81651 136.841 2.91673 136.627 3.04805C136.413 3.17937 136.247 3.33834 136.129 3.52496C136.012 3.70466 135.953 3.90856 135.953 4.13664C135.953 4.38546 136.019 4.61009 136.15 4.81053C136.281 5.00406 136.468 5.19067 136.71 5.37038C136.952 5.54317 137.246 5.71596 137.591 5.88875C137.937 6.05463 138.327 6.22743 138.763 6.40713C139.357 6.65595 139.889 6.92205 140.359 7.20543C140.836 7.4819 141.244 7.79638 141.583 8.14887C141.921 8.50137 142.18 8.9057 142.36 9.36187C142.54 9.81113 142.63 10.3364 142.63 10.9377C142.63 11.7671 142.471 12.4652 142.153 13.032C141.842 13.5918 141.417 14.048 140.878 14.4005C140.339 14.7461 139.71 14.9949 138.991 15.147C138.279 15.299 137.525 15.375 136.731 15.375C135.915 15.375 135.137 15.3059 134.398 15.1677C133.665 15.0295 133.029 14.8221 132.49 14.5456Z" fill="#061F4A" />
  <path d="M148.425 9.99429V15.1158H145.076V0.248821H150.322C154.069 0.248821 155.942 1.82814 155.942 4.98678C155.942 6.4797 155.403 7.68925 154.324 8.61541C153.253 9.53467 151.819 9.99429 150.022 9.99429H148.425ZM148.425 2.81997V7.45425H149.742C151.525 7.45425 152.417 6.67323 152.417 5.11119C152.417 3.58371 151.525 2.81997 149.742 2.81997H148.425Z" fill="#061F4A" />
  <path d="M162.712 0.248821V2.8407H161.468V12.524H162.712V15.1158H156.875V12.524H158.119V2.8407H156.875V0.248821H162.712Z" fill="#061F4A" />
  <path d="M175.298 2.97548H171.057V15.1158H167.698V2.97548H163.479V0.248821H175.298V2.97548Z" fill="#061F4A" />
  <path d="M190.372 15.1158H186.723L185.665 11.8086H180.378L179.331 15.1158H175.702L181.114 0.248821H185.085L190.372 15.1158ZM184.898 9.23746L183.302 4.24032C183.184 3.86709 183.101 3.42128 183.053 2.90291H182.97C182.935 3.33834 182.849 3.77032 182.711 4.19885L181.093 9.23746H184.898Z" fill="#061F4A" />
  <path d="M201.082 15.1158H192.228V0.248821H195.577V12.3996H201.082V15.1158Z" fill="#061F4A" />
  <path fill-rule="evenodd" clip-rule="evenodd" d="M10.9197 9.04935H0V6.01611H10.9197V9.04935Z" fill="#061F4A" />
  <path fill-rule="evenodd" clip-rule="evenodd" d="M4.24606 13.2959L4.24606 2.37622L7.2793 2.37622L7.2793 13.2959L4.24606 13.2959Z" fill="#061F4A" />
  <path fill-rule="evenodd" clip-rule="evenodd" d="M219 9.04935H208.08V6.01611H219V9.04935Z" fill="#061F4A" />
  <path fill-rule="evenodd" clip-rule="evenodd" d="M211.719 13.2959L211.719 2.37622L214.752 2.37622L214.752 13.2959L211.719 13.2959Z" fill="#061F4A" />
</svg>
