<svg width="146" height="20" viewBox="0 0 146 20" fill="none" xmlns="http://www.w3.org/2000/svg">
  <path d="M0.116582 19.3433V3.10448L0 0.298507C0.660633 0.199005 1.31155 0.149253 1.95275 0.149253C2.26364 0.149253 2.41908 0.318408 2.41908 0.656717V16.8955L2.53567 19.7015C1.87503 19.801 1.22411 19.8507 0.582912 19.8507C0.272026 19.8507 0.116582 19.6816 0.116582 19.3433Z" fill="#061F4A" />
  <path d="M9.7731 2.26866C9.24848 2.26866 8.72386 2.53731 8.19924 3.07463V16.8955L8.31583 19.7015C7.65519 19.801 7.00427 19.8507 6.36307 19.8507C6.05219 19.8507 5.89674 19.6816 5.89674 19.3433V3.19403C5.89674 2.75622 5.81902 2.44776 5.66358 2.26866C5.50814 2.06965 5.22639 1.97015 4.81836 1.97015C4.79893 1.45274 4.93494 1.04478 5.22639 0.746268C5.51785 0.447761 5.98418 0.298507 6.62538 0.298507C7.26659 0.298507 7.7232 0.626865 7.99522 1.28358C8.75301 0.626865 9.53023 0.298507 10.3269 0.298507C11.5121 0.298507 12.3282 0.676617 12.7751 1.43284C13.5717 0.676617 14.4073 0.298507 15.2816 0.298507C17.2052 0.298507 18.167 1.27363 18.167 3.22388V17.1642C18.167 17.5821 18.2448 17.8806 18.4002 18.0597C18.5751 18.2189 18.8665 18.2985 19.2746 18.2985C19.2746 19.4328 18.6528 20 17.4092 20C16.3794 20 15.8645 19.3134 15.8645 17.9403V3.40299C15.8645 2.64677 15.4856 2.26866 14.7279 2.26866C14.1255 2.26866 13.6203 2.51741 13.2123 3.01493V16.8955L13.3289 19.7015C12.6682 19.801 12.0173 19.8507 11.3761 19.8507C11.0652 19.8507 10.9098 19.6816 10.9098 19.3433V3.40299C10.9098 2.64677 10.5309 2.26866 9.7731 2.26866Z" fill="#061F4A" />
  <path d="M26.6165 0.298507C27.316 0.298507 27.8406 0.248756 28.1904 0.149253C28.3458 0.706467 28.4235 1.25373 28.4235 1.79104C28.4235 2.10945 28.2875 2.26866 28.0155 2.26866H25.7422V16.8955L25.8587 19.7015C25.1981 19.801 24.5472 19.8507 23.906 19.8507C23.5951 19.8507 23.4396 19.6816 23.4396 19.3433V2.26866H22.5653C21.8658 2.26866 21.3412 2.31841 20.9914 2.41791C20.836 1.8607 20.7583 1.31343 20.7583 0.77612C20.7583 0.457711 20.8943 0.298507 21.1663 0.298507H26.6165Z" fill="#061F4A" />
  <path d="M30.9096 19.3433V3.10448L30.793 0.298507C31.4536 0.199005 32.1045 0.149253 32.7457 0.149253C33.0566 0.149253 33.2121 0.318408 33.2121 0.656717V16.8955L33.3287 19.7015C32.668 19.801 32.0171 19.8507 31.3759 19.8507C31.065 19.8507 30.9096 19.6816 30.9096 19.3433Z" fill="#061F4A" />
  <path d="M41.7319 2.74627C41.7319 1.77114 41.6639 0.955223 41.5279 0.298507C42.1885 0.218905 42.8589 0.179104 43.5389 0.179104C43.8693 0.179104 44.0344 0.328357 44.0344 0.626864V16.8358C44.0344 17.8308 43.7041 18.607 43.0435 19.1642C42.3828 19.7214 41.489 20 40.3621 20C39.2545 20 38.3705 19.7512 37.7098 19.2537C37.0492 18.7363 36.7189 18.0697 36.7189 17.2537V15.2239C36.7189 14.8657 36.9715 14.6169 37.4767 14.4776C37.7487 14.398 38.0207 14.3582 38.2927 14.3582C38.5648 14.3582 38.8368 14.3881 39.1088 14.4478C39.0505 14.9254 39.0214 15.4328 39.0214 15.9701V16.8358C39.0214 17.2139 39.1477 17.5124 39.4003 17.7313C39.6529 17.9303 39.9832 18.0298 40.3912 18.0298C40.7993 18.0298 41.1199 17.9303 41.353 17.7313C41.6056 17.5124 41.7319 17.2139 41.7319 16.8358V12.1791C41.2267 12.6965 40.5467 12.9552 39.6917 12.9552C37.7098 12.9552 36.7189 12 36.7189 10.0896V2.83582C36.7189 2.41791 36.6314 2.12935 36.4566 1.97015C36.3011 1.79104 36.0194 1.70149 35.6113 1.70149C35.6113 0.567164 36.2331 0 37.4767 0C38.5065 0 39.0214 0.686567 39.0214 2.0597V9.91045C39.0214 10.6269 39.3711 10.9851 40.0706 10.9851C40.7895 10.9851 41.3433 10.6368 41.7319 9.9403V2.74627Z" fill="#061F4A" />
  <path d="M47.301 19.3433V3.16418C47.301 2.16915 47.6313 1.39303 48.292 0.835821C48.9526 0.278607 49.8561 0 51.0025 0C52.1489 0 53.033 0.258707 53.6547 0.77612C54.2959 1.29353 54.6165 2.04975 54.6165 3.04478V17.1642C54.6165 17.5821 54.6943 17.8806 54.8497 18.0597C55.0246 18.2189 55.316 18.2985 55.7241 18.2985C55.7241 19.4328 55.1023 20 53.8588 20C52.8289 20 52.314 19.3134 52.314 17.9403V12.2388H49.6035V16.8955L49.7201 19.7015C49.0595 19.801 48.4085 19.8507 47.7673 19.8507C47.4564 19.8507 47.301 19.6816 47.301 19.3433ZM49.6035 3.16418V10.2687H52.314V3.16418C52.314 2.78607 52.1877 2.49751 51.9352 2.29851C51.6826 2.0796 51.3522 1.97015 50.9442 1.97015C50.5362 1.97015 50.2058 2.0796 49.9532 2.29851C49.7201 2.49751 49.6035 2.78607 49.6035 3.16418Z" fill="#061F4A" />
  <path d="M62.6942 17.7313C63.4325 17.7313 64.0543 17.6716 64.5595 17.5522C64.6761 17.9502 64.7344 18.4677 64.7344 19.1045C64.7344 19.5025 64.5789 19.7015 64.2681 19.7015H57.5937C57.4966 19.1443 57.448 18.5572 57.448 17.9403C57.448 17.3234 57.5354 16.5274 57.7103 15.5522C57.8852 14.5771 58.2252 13.5224 58.7304 12.3881C59.2356 11.2338 59.7505 10.1095 60.2751 9.01493C61.5769 6.26866 62.2279 4.0199 62.2279 2.26866H59.6631C58.9247 2.26866 58.3224 2.32836 57.856 2.44776C57.6812 2.04975 57.5937 1.53234 57.5937 0.895521C57.5937 0.497512 57.7492 0.298507 58.06 0.298507H64.5887C64.6664 0.815921 64.7052 1.47264 64.7052 2.26866C64.7052 3.04478 64.5207 4.12935 64.1515 5.52239C63.8017 6.91542 63.3063 8.2388 62.665 9.49254C60.8969 12.9751 59.9837 15.7214 59.9254 17.7313H62.6942Z" fill="#061F4A" />
  <path d="M72.3493 19.3433V2.86567C72.3493 2.44776 72.2619 2.1592 72.087 2C71.9316 1.82089 71.6499 1.73134 71.2418 1.73134C71.2418 0.597014 71.8636 0.0298501 73.1071 0.0298501C74.1369 0.0298501 74.6519 0.716418 74.6519 2.08955V9.8806H77.3624V3.10448L77.2458 0.298507C77.9064 0.199005 78.5574 0.149253 79.1986 0.149253C79.5095 0.149253 79.6649 0.318408 79.6649 0.656717V17.1642C79.6649 17.5821 79.7426 17.8806 79.8981 18.0597C80.0729 18.2189 80.3644 18.2985 80.7724 18.2985C80.7724 19.4328 80.1507 20 78.9071 20C77.8773 20 77.3624 19.3134 77.3624 17.9403V11.8507H74.6519V16.8955L74.7684 19.7015C74.1078 19.801 73.4569 19.8507 72.8157 19.8507C72.5048 19.8507 72.3493 19.6816 72.3493 19.3433Z" fill="#061F4A" />
  <path d="M83.0433 16.9552V3.16418C83.0433 2.16915 83.3736 1.39303 84.0342 0.835821C84.6949 0.278607 85.5984 0 86.7448 0C87.8912 0 88.7752 0.258707 89.397 0.77612C90.0382 1.29353 90.3588 2.04975 90.3588 3.04478V16.8358C90.3588 17.8308 90.0188 18.607 89.3387 19.1642C88.6781 19.7214 87.7746 20 86.6282 20C85.4818 20 84.5977 19.7413 83.9759 19.2239C83.3542 18.7065 83.0433 17.9502 83.0433 16.9552ZM85.3458 3.16418V16.8358C85.3458 17.194 85.4624 17.4826 85.6955 17.7015C85.9481 17.9204 86.2784 18.0298 86.6865 18.0298C87.0945 18.0298 87.4248 17.9303 87.6774 17.7313C87.93 17.5124 88.0563 17.2139 88.0563 16.8358V3.16418C88.0563 2.78607 87.93 2.49751 87.6774 2.29851C87.4248 2.0796 87.0945 1.97015 86.6865 1.97015C86.2784 1.97015 85.9481 2.0796 85.6955 2.29851C85.4624 2.49751 85.3458 2.78607 85.3458 3.16418Z" fill="#061F4A" />
  <path d="M93.4011 7.19403V3.16418C93.4011 2.16915 93.7314 1.39303 94.3921 0.835821C95.0527 0.278607 95.9368 0 97.0443 0C98.1713 0 99.0651 0.258707 99.7257 0.77612C100.386 1.27363 100.717 1.93035 100.717 2.74627V6.44776C100.717 6.80597 100.464 7.05473 99.9589 7.19403C99.6868 7.27363 99.4148 7.31343 99.1428 7.31343C98.8708 7.31343 98.5987 7.28358 98.3267 7.22388C98.385 6.74627 98.4142 6.23881 98.4142 5.70149V3.16418C98.4142 2.78607 98.2878 2.49751 98.0353 2.29851C97.7827 2.0796 97.4523 1.97015 97.0443 1.97015C96.6363 1.97015 96.306 2.0796 96.0534 2.29851C95.8202 2.49751 95.7036 2.78607 95.7036 3.16418V6.65672C95.7036 7.35323 95.9271 7.8408 96.374 8.1194L99.4634 10.1493C100.338 10.7065 100.775 11.5622 100.775 12.7164V16.8358C100.775 17.8308 100.435 18.607 99.7548 19.1642C99.0748 19.7214 98.1713 20 97.0443 20C95.9368 20 95.043 19.7512 94.3629 19.2537C93.6828 18.7363 93.3428 18.0697 93.3428 17.2537V13.5522C93.3428 13.194 93.5954 12.9453 94.1006 12.806C94.3726 12.7264 94.6447 12.6866 94.9167 12.6866C95.1887 12.6866 95.4607 12.7164 95.7328 12.7761C95.6745 13.2537 95.6453 13.7612 95.6453 14.2985V16.8358C95.6453 17.194 95.7813 17.4826 96.0534 17.7015C96.3254 17.9204 96.6654 18.0298 97.0735 18.0298C97.4815 18.0298 97.8118 17.9204 98.0644 17.7015C98.3364 17.4826 98.4724 17.194 98.4724 16.8358V13.4627C98.4724 12.6866 98.2101 12.1294 97.6855 11.791L94.5961 9.73134C93.7994 9.21393 93.4011 8.36816 93.4011 7.19403Z" fill="#061F4A" />
  <path d="M104.052 19.3433V3.19403C104.052 2.75622 103.975 2.44776 103.819 2.26866C103.664 2.06965 103.382 1.97015 102.974 1.97015C102.955 1.45274 103.091 1.04478 103.382 0.746268C103.674 0.447761 104.14 0.298507 104.781 0.298507C105.422 0.298507 105.879 0.626865 106.151 1.28358C106.909 0.626865 107.686 0.298507 108.483 0.298507C110.406 0.298507 111.368 1.27363 111.368 3.22388V10.5672C111.368 11.5622 111.028 12.3383 110.348 12.8955C109.687 13.4527 108.784 13.7313 107.637 13.7313H106.355V16.8955L106.472 19.7015C105.811 19.801 105.16 19.8507 104.519 19.8507C104.208 19.8507 104.052 19.6816 104.052 19.3433ZM107.929 2.26866C107.404 2.26866 106.88 2.53731 106.355 3.07463V11.7612H107.696C108.104 11.7612 108.434 11.6617 108.687 11.4627C108.939 11.2438 109.065 10.9453 109.065 10.5672V3.40299C109.065 2.64677 108.687 2.26866 107.929 2.26866Z" fill="#061F4A" />
  <path d="M114.351 19.3433V3.10448L114.235 0.298507C114.895 0.199005 115.546 0.149253 116.187 0.149253C116.498 0.149253 116.654 0.318408 116.654 0.656717V16.8955L116.77 19.7015C116.11 19.801 115.459 19.8507 114.818 19.8507C114.507 19.8507 114.351 19.6816 114.351 19.3433Z" fill="#061F4A" />
  <path d="M124.999 0.298507C125.698 0.298507 126.223 0.248756 126.573 0.149253C126.728 0.706467 126.806 1.25373 126.806 1.79104C126.806 2.10945 126.67 2.26866 126.398 2.26866H124.124V16.8955L124.241 19.7015C123.58 19.801 122.929 19.8507 122.288 19.8507C121.977 19.8507 121.822 19.6816 121.822 19.3433V2.26866H120.948C120.248 2.26866 119.723 2.31841 119.374 2.41791C119.218 1.8607 119.141 1.31343 119.141 0.77612C119.141 0.457711 119.277 0.298507 119.549 0.298507H124.999Z" fill="#061F4A" />
  <path d="M129.12 19.3433V3.16418C129.12 2.16915 129.451 1.39303 130.111 0.835821C130.772 0.278607 131.675 0 132.822 0C133.968 0 134.852 0.258707 135.474 0.77612C136.115 1.29353 136.436 2.04975 136.436 3.04478V17.1642C136.436 17.5821 136.514 17.8806 136.669 18.0597C136.844 18.2189 137.135 18.2985 137.543 18.2985C137.543 19.4328 136.922 20 135.678 20C134.648 20 134.133 19.3134 134.133 17.9403V12.2388H131.423V16.8955L131.539 19.7015C130.879 19.801 130.228 19.8507 129.587 19.8507C129.276 19.8507 129.12 19.6816 129.12 19.3433ZM131.423 3.16418V10.2687H134.133V3.16418C134.133 2.78607 134.007 2.49751 133.755 2.29851C133.502 2.0796 133.172 1.97015 132.764 1.97015C132.356 1.97015 132.025 2.0796 131.773 2.29851C131.539 2.49751 131.423 2.78607 131.423 3.16418Z" fill="#061F4A" />
  <path d="M144.193 17.7313C144.892 17.7313 145.417 17.6816 145.767 17.5821C145.922 18.1393 146 18.6866 146 19.2239C146 19.5423 145.864 19.7015 145.592 19.7015H139.85V3.10448L139.734 0.298507C140.394 0.199005 141.045 0.149253 141.686 0.149253C141.997 0.149253 142.153 0.318408 142.153 0.656717V17.7313H144.193Z" fill="#061F4A" />
</svg>
