<svg width="164" height="29" viewBox="0 0 164 29" fill="none" xmlns="http://www.w3.org/2000/svg">
  <mask id="path-1-outside-1" maskUnits="userSpaceOnUse" x="-0.148438" y="0" width="164" height="29" fill="black">
    <rect fill="white" x="-0.148438" width="164" height="29" />
    <path d="M6.82106 16.9648C5.50562 16.9648 4.44832 16.827 3.64915 16.5514C2.85706 16.2687 2.27359 15.8235 1.89876 15.2157C1.52393 14.6009 1.33652 13.7881 1.33652 12.7775H3.0869C3.0869 13.4418 3.20713 13.9613 3.44759 14.3358C3.68805 14.7033 4.08056 14.9684 4.62512 15.1309C5.16969 15.2864 5.92642 15.3641 6.89532 15.3641C7.77935 15.3641 8.47951 15.2687 8.99578 15.0779C9.51206 14.8871 9.88335 14.5867 10.1097 14.1768C10.3431 13.7599 10.4597 13.2016 10.4597 12.5019C10.4597 11.8729 10.3254 11.3641 10.0566 10.9754C9.78788 10.5867 9.33172 10.2722 8.68814 10.0319C8.04456 9.78455 7.13931 9.57607 5.97239 9.40646C4.37406 9.17324 3.20713 8.70327 2.47162 7.99655C1.74317 7.28276 1.37895 6.29335 1.37895 5.02831C1.37895 3.65727 1.83158 2.64313 2.73683 1.98588C3.64208 1.32863 5.03531 1 6.91654 1C8.11882 1 9.08065 1.13074 9.80202 1.39223C10.5234 1.64665 11.0503 2.05655 11.3827 2.62193C11.7151 3.1873 11.8813 3.93996 11.8813 4.8799H10.1945C10.1945 4.29332 10.0885 3.83749 9.87628 3.5124C9.66411 3.1873 9.3105 2.95762 8.81544 2.82334C8.32746 2.682 7.64145 2.61133 6.75741 2.61133C5.90167 2.61133 5.21566 2.6926 4.69938 2.85514C4.19018 3.01062 3.81535 3.26151 3.57489 3.6078C3.34151 3.9541 3.22481 4.41347 3.22481 4.98591C3.22481 5.58662 3.34858 6.06719 3.59611 6.42762C3.84364 6.78098 4.27505 7.07427 4.89033 7.30749C5.50562 7.53364 6.39673 7.73859 7.56365 7.92234C9.21149 8.17676 10.4138 8.66793 11.1705 9.39585C11.9272 10.1238 12.3056 11.1309 12.3056 12.4171C12.3056 13.9719 11.8636 15.1203 10.9796 15.8624C10.0955 16.5973 8.70936 16.9648 6.82106 16.9648Z" />
    <path d="M21.4641 1.38163H23.5963L29.4416 16.6574H27.5745L26.1211 12.8305H19.0135L17.5708 16.6574H15.6931L21.4641 1.38163ZM25.6119 11.3358L22.5355 2.93995L19.5121 11.3358H25.6119Z" />
    <path d="M33.6883 15.0991H35.81V2.93995H33.5716V1.38163H39.8518V2.93995H37.6559V15.0991H39.7775V16.6574H33.6883V15.0991Z" />
    <path d="M61.9029 8.49478C62.9849 8.67146 63.7876 9.0743 64.311 9.70328C64.8343 10.3323 65.096 11.198 65.096 12.3005C65.096 13.304 64.9121 14.1274 64.5443 14.7705C64.1837 15.4065 63.6214 15.88 62.8576 16.191C62.0938 16.5019 61.1037 16.6574 59.8873 16.6574H53.9678V1.38163H59.2614C60.5697 1.38163 61.5881 1.50177 62.3166 1.74206C63.045 1.97528 63.5648 2.36751 63.876 2.91875C64.1872 3.46999 64.3428 4.24032 64.3428 5.22973C64.3428 6.17674 64.1518 6.90466 63.7699 7.4135C63.3951 7.91527 62.7727 8.2757 61.9029 8.49478ZM55.7712 7.82693H59.6114C60.347 7.82693 60.9375 7.74213 61.383 7.57251C61.8286 7.39583 62.1504 7.11668 62.3484 6.73505C62.5535 6.35342 62.6561 5.84811 62.6561 5.21913C62.6561 4.63255 62.55 4.17671 62.3378 3.85162C62.1327 3.52653 61.7862 3.29331 61.2982 3.15197C60.8173 3.01062 60.1419 2.93995 59.272 2.93995H55.7712V7.82693ZM59.8767 15.1097C60.7395 15.1097 61.4078 15.0249 61.8816 14.8553C62.3555 14.6786 62.695 14.3924 62.9 13.9966C63.1051 13.5938 63.2077 13.0319 63.2077 12.3111C63.2077 11.5902 63.0875 11.0142 62.847 10.5831C62.6065 10.145 62.2246 9.82695 61.7013 9.62907C61.178 9.43119 60.4813 9.33225 59.6114 9.33225H55.7712V15.1097H59.8767Z" />
    <path d="M70.6688 1.38163H72.5147V7.86934H81.0226V1.38163H82.8685V16.6574H81.0226L81.012 9.48066H72.504L72.5147 16.6574H70.6688V1.38163Z" />
    <path d="M93.2999 1.38163H95.4322L101.277 16.6574H99.4103L97.957 12.8305H90.8494L89.4066 16.6574H87.5289L93.2999 1.38163ZM97.4478 11.3358L94.3714 2.93995L91.348 11.3358H97.4478Z" />
    <path d="M103.487 1.38163H105.333L109.163 12.7139L109.778 14.6539H110.128L110.744 12.7139L114.52 1.38163H116.366L111.019 16.6574H108.961L103.487 1.38163Z" />
    <path d="M124.347 1.38163H126.479L132.324 16.6574H130.457L129.004 12.8305H121.896L120.454 16.6574H118.576L124.347 1.38163ZM128.495 11.3358L125.418 2.93995L122.395 11.3358H128.495Z" />
    <path d="M136.985 1.38163H139.786L148.166 14.8235H148.506V1.38163H150.161V16.6574H147.424L138.884 3.03536H138.534L138.64 16.6574H136.985V1.38163Z" />
    <path d="M156.688 15.0991H158.81V2.93995H156.571V1.38163H162.852V2.93995H160.656V15.0991H162.777V16.6574H156.688V15.0991Z" />
    <path d="M0.851562 21.276H3.02477C4.05227 21.276 4.81153 21.5411 5.30255 22.0711C5.79659 22.5981 6.04362 23.4144 6.04362 24.5199C6.04362 25.6436 5.79508 26.475 5.298 27.0141C4.80092 27.5533 4.03711 27.8228 3.00658 27.8228H0.851562V21.276ZM3.03841 27.1322C3.56883 27.1322 3.99317 27.0459 4.31142 26.8733C4.62967 26.6976 4.86154 26.422 5.00703 26.0464C5.15554 25.6678 5.2298 25.165 5.2298 24.5381C5.2298 23.8748 5.16009 23.3599 5.02066 22.9934C4.88124 22.6239 4.64786 22.3604 4.32051 22.2029C3.9962 22.0454 3.54155 21.9666 2.95657 21.9666H1.64265V27.1322H3.03841Z" />
    <path d="M11.3955 27.155H12.3048V21.9439H11.3455V21.276H14.037V21.9439H13.0959V27.155H14.0052V27.8228H11.3955V27.155Z" />
    <path d="M21.353 21.276H22.2668L24.7719 27.8228H23.9718L23.3489 26.1827H20.3028L19.6844 27.8228H18.8797L21.353 21.276ZM23.1307 25.5421L21.8122 21.9439L20.5164 25.5421H23.1307Z" />
    <path d="M34.9385 24.6244V27.8682H34.3748L34.2975 26.9414C34.1035 27.3019 33.8428 27.5684 33.5155 27.741C33.1882 27.9137 32.782 28 32.2971 28C31.2968 28 30.5573 27.7244 30.0784 27.1731C29.6025 26.6219 29.3646 25.7663 29.3646 24.6062C29.3646 23.425 29.604 22.5512 30.0829 21.9848C30.5648 21.4184 31.3044 21.1352 32.3016 21.1352C32.8563 21.1352 33.3276 21.2124 33.7155 21.3669C34.1065 21.5214 34.4005 21.7485 34.5976 22.0484C34.7976 22.3452 34.8946 22.7056 34.8885 23.1297H34.1202C34.1202 22.7087 33.9641 22.3846 33.6519 22.1574C33.3397 21.9303 32.8942 21.8167 32.3152 21.8167C31.5908 21.8167 31.0544 22.0423 30.7058 22.4936C30.3572 22.9449 30.1829 23.64 30.1829 24.579C30.1829 25.2029 30.2451 25.7133 30.3694 26.11C30.4967 26.5068 30.7149 26.8082 31.024 27.0141C31.3332 27.2201 31.7575 27.3231 32.2971 27.3231C32.8881 27.3231 33.3443 27.1837 33.6655 26.9051C33.9868 26.6234 34.1475 26.2251 34.1475 25.7102V25.3513H32.1607V24.6244H34.9385Z" />
    <path d="M40.6451 21.276H41.8453L45.437 27.0368H45.5825V21.276H46.2918V27.8228H45.1188L41.4589 21.9848H41.3089L41.3543 27.8228H40.6451V21.276Z" />
    <path d="M54.7262 27.9955C54.0018 27.9955 53.4229 27.8652 52.9894 27.6047C52.556 27.3412 52.2438 26.9566 52.0529 26.4508C51.8649 25.9419 51.771 25.2983 51.771 24.5199C51.771 23.7566 51.868 23.1282 52.062 22.6345C52.259 22.1377 52.5742 21.7637 53.0076 21.5123C53.4411 21.2609 54.0139 21.1352 54.7262 21.1352C55.4385 21.1352 56.0113 21.2624 56.4447 21.5168C56.8782 21.7682 57.1919 22.1423 57.3859 22.639C57.5798 23.1327 57.6768 23.7582 57.6768 24.5154C57.6768 25.2968 57.5829 25.9419 57.395 26.4508C57.207 26.9566 56.8964 27.3412 56.4629 27.6047C56.0295 27.8652 55.4506 27.9955 54.7262 27.9955ZM54.7262 27.3231C55.299 27.3231 55.74 27.2201 56.0492 27.0141C56.3584 26.8051 56.5705 26.5007 56.6857 26.1009C56.8039 25.6981 56.863 25.1681 56.863 24.5108C56.863 23.8717 56.8024 23.3599 56.6812 22.9752C56.563 22.5875 56.3493 22.2968 56.0401 22.1029C55.7309 21.9091 55.293 21.8121 54.7262 21.8121C54.1533 21.8121 53.7123 21.9121 53.4032 22.112C53.094 22.3089 52.8803 22.6027 52.7621 22.9934C52.6439 23.3811 52.5848 23.899 52.5848 24.5472C52.5848 25.2014 52.6439 25.7269 52.7621 26.1237C52.8803 26.5174 53.094 26.8157 53.4032 27.0187C53.7154 27.2216 54.1564 27.3231 54.7262 27.3231Z" />
    <path d="M65.0747 27.9546C64.5109 27.9546 64.0578 27.8955 63.7153 27.7774C63.3758 27.6562 63.1257 27.4654 62.9651 27.2049C62.8045 26.9414 62.7241 26.5931 62.7241 26.16H63.4743C63.4743 26.4447 63.5258 26.6673 63.6289 26.8279C63.7319 26.9853 63.9002 27.0989 64.1335 27.1686C64.3669 27.2352 64.6912 27.2685 65.1065 27.2685C65.4854 27.2685 65.7854 27.2277 66.0067 27.1459C66.2279 27.0641 66.3871 26.9354 66.4841 26.7597C66.5841 26.581 66.6341 26.3417 66.6341 26.0419C66.6341 25.7723 66.5765 25.5542 66.4613 25.3877C66.3461 25.2211 66.1507 25.0863 65.8748 24.9833C65.599 24.8773 65.211 24.788 64.7109 24.7153C64.0259 24.6153 63.5258 24.4139 63.2106 24.111C62.8984 23.8051 62.7423 23.3811 62.7423 22.8389C62.7423 22.2513 62.9363 21.8167 63.3243 21.535C63.7122 21.2533 64.3093 21.1125 65.1156 21.1125C65.6308 21.1125 66.043 21.1685 66.3522 21.2806C66.6614 21.3896 66.8872 21.5653 67.0296 21.8076C67.1721 22.0499 67.2433 22.3725 67.2433 22.7753H66.5204C66.5204 22.5239 66.475 22.3286 66.384 22.1892C66.2931 22.0499 66.1416 21.9515 65.9294 21.8939C65.7202 21.8333 65.4262 21.8031 65.0474 21.8031C64.6806 21.8031 64.3866 21.8379 64.1654 21.9076C63.9471 21.9742 63.7865 22.0817 63.6834 22.2301C63.5834 22.3785 63.5334 22.5754 63.5334 22.8207C63.5334 23.0782 63.5864 23.2841 63.6925 23.4386C63.7986 23.5901 63.9835 23.7158 64.2472 23.8157C64.5109 23.9126 64.8928 24.0005 65.3929 24.0792C66.0991 24.1882 66.6144 24.3987 66.9387 24.7107C67.263 25.0227 67.4252 25.4543 67.4252 26.0055C67.4252 26.6719 67.2357 27.164 66.8569 27.4821C66.478 27.7971 65.8839 27.9546 65.0747 27.9546Z" />
    <path d="M73.9091 21.9712H71.8769V21.276H76.728V21.9712H74.6957V27.8274H73.9091V21.9712Z" />
    <path d="M81.6707 27.155H82.58V21.9439H81.6207V21.276H84.3122V21.9439H83.371V27.155H84.2803V27.8228H81.6707V27.155Z" />
    <path d="M92.542 28C91.5448 28 90.8068 27.7229 90.3279 27.1686C89.849 26.6143 89.6095 25.7587 89.6095 24.6017C89.6095 23.4265 89.8581 22.5557 90.3551 21.9893C90.8522 21.4199 91.6175 21.1352 92.6511 21.1352C93.1845 21.1352 93.6377 21.2124 94.0105 21.3669C94.3833 21.5214 94.6652 21.7485 94.8561 22.0484C95.0471 22.3452 95.1395 22.7056 95.1335 23.1297H94.3651C94.3651 22.7087 94.2166 22.3846 93.9196 22.1574C93.6225 21.9303 93.1997 21.8167 92.6511 21.8167C92.1116 21.8167 91.6797 21.9091 91.3554 22.0938C91.0341 22.2786 90.7992 22.5724 90.6507 22.9752C90.5021 23.375 90.4279 23.9096 90.4279 24.579C90.4279 25.2453 90.4976 25.7784 90.637 26.1782C90.7764 26.5749 90.9962 26.8657 91.2963 27.0505C91.5993 27.2322 92.004 27.3231 92.5102 27.3231C93.1042 27.3231 93.5619 27.2095 93.8832 26.9823C94.2045 26.7521 94.3651 26.4265 94.3651 26.0055H95.1335C95.1395 26.4296 95.0425 26.7915 94.8425 27.0914C94.6455 27.3882 94.3515 27.6138 93.9605 27.7683C93.5725 27.9228 93.0997 28 92.542 28Z" />
    <path d="M109.42 28C108.423 28 107.685 27.7229 107.206 27.1686C106.727 26.6143 106.487 25.7587 106.487 24.6017C106.487 23.4265 106.736 22.5557 107.233 21.9893C107.73 21.4199 108.495 21.1352 109.529 21.1352C110.062 21.1352 110.516 21.2124 110.888 21.3669C111.261 21.5214 111.543 21.7485 111.734 22.0484C111.925 22.3452 112.017 22.7056 112.011 23.1297H111.243C111.243 22.7087 111.095 22.3846 110.797 22.1574C110.5 21.9303 110.078 21.8167 109.529 21.8167C108.989 21.8167 108.558 21.9091 108.233 22.0938C107.912 22.2786 107.677 22.5724 107.529 22.9752C107.38 23.375 107.306 23.9096 107.306 24.579C107.306 25.2453 107.376 25.7784 107.515 26.1782C107.654 26.5749 107.874 26.8657 108.174 27.0505C108.477 27.2322 108.882 27.3231 109.388 27.3231C109.982 27.3231 110.44 27.2095 110.761 26.9823C111.082 26.7521 111.243 26.4265 111.243 26.0055H112.011C112.017 26.4296 111.92 26.7915 111.72 27.0914C111.523 27.3882 111.229 27.6138 110.838 27.7683C110.45 27.9228 109.978 28 109.42 28Z" />
    <path d="M117.422 21.276H121.787V21.9666H118.213V24.0656H121.251V24.7471H118.213V27.1322H121.801V27.8228H117.422V21.276Z" />
    <path d="M127.143 21.276H128.344L131.935 27.0368H132.081V21.276H132.79V27.8228H131.617L127.957 21.9848H127.807L127.853 27.8228H127.143V21.276Z" />
    <path d="M139.938 21.9712H137.906V21.276H142.757V21.9712H140.724V27.8274H139.938V21.9712Z" />
    <path d="M152.66 27.8228H151.859L151.491 26.1373C151.418 25.8041 151.329 25.5527 151.223 25.3831C151.12 25.2105 150.973 25.0908 150.782 25.0242C150.594 24.9545 150.326 24.9197 149.977 24.9197H148.668V27.8228H147.877V21.276H150.036C150.661 21.276 151.146 21.3321 151.491 21.4441C151.837 21.5562 152.084 21.7425 152.232 22.003C152.381 22.2634 152.455 22.6284 152.455 23.0979C152.455 23.5189 152.349 23.8475 152.137 24.0838C151.928 24.32 151.579 24.482 151.091 24.5699C151.382 24.6335 151.597 24.7168 151.737 24.8198C151.879 24.9197 151.981 25.0484 152.041 25.2059C152.102 25.3604 152.169 25.6103 152.241 25.9556C152.247 25.9798 152.253 26.0086 152.26 26.0419C152.269 26.0752 152.278 26.1146 152.287 26.16L152.66 27.8228ZM149.977 24.2564C151.12 24.2564 151.691 23.8702 151.691 23.0979C151.691 22.8011 151.64 22.5709 151.537 22.4073C151.434 22.2438 151.262 22.1271 151.023 22.0575C150.783 21.9848 150.449 21.9484 150.018 21.9484H148.668V24.2564H149.977Z" />
    <path d="M158.143 21.276H162.508V21.9666H158.934V24.0656H161.971V24.7471H158.934V27.1322H162.522V27.8228H158.143V21.276Z" />
  </mask>
  <path d="M6.82106 16.9648C5.50562 16.9648 4.44832 16.827 3.64915 16.5514C2.85706 16.2687 2.27359 15.8235 1.89876 15.2157C1.52393 14.6009 1.33652 13.7881 1.33652 12.7775H3.0869C3.0869 13.4418 3.20713 13.9613 3.44759 14.3358C3.68805 14.7033 4.08056 14.9684 4.62512 15.1309C5.16969 15.2864 5.92642 15.3641 6.89532 15.3641C7.77935 15.3641 8.47951 15.2687 8.99578 15.0779C9.51206 14.8871 9.88335 14.5867 10.1097 14.1768C10.3431 13.7599 10.4597 13.2016 10.4597 12.5019C10.4597 11.8729 10.3254 11.3641 10.0566 10.9754C9.78788 10.5867 9.33172 10.2722 8.68814 10.0319C8.04456 9.78455 7.13931 9.57607 5.97239 9.40646C4.37406 9.17324 3.20713 8.70327 2.47162 7.99655C1.74317 7.28276 1.37895 6.29335 1.37895 5.02831C1.37895 3.65727 1.83158 2.64313 2.73683 1.98588C3.64208 1.32863 5.03531 1 6.91654 1C8.11882 1 9.08065 1.13074 9.80202 1.39223C10.5234 1.64665 11.0503 2.05655 11.3827 2.62193C11.7151 3.1873 11.8813 3.93996 11.8813 4.8799H10.1945C10.1945 4.29332 10.0885 3.83749 9.87628 3.5124C9.66411 3.1873 9.3105 2.95762 8.81544 2.82334C8.32746 2.682 7.64145 2.61133 6.75741 2.61133C5.90167 2.61133 5.21566 2.6926 4.69938 2.85514C4.19018 3.01062 3.81535 3.26151 3.57489 3.6078C3.34151 3.9541 3.22481 4.41347 3.22481 4.98591C3.22481 5.58662 3.34858 6.06719 3.59611 6.42762C3.84364 6.78098 4.27505 7.07427 4.89033 7.30749C5.50562 7.53364 6.39673 7.73859 7.56365 7.92234C9.21149 8.17676 10.4138 8.66793 11.1705 9.39585C11.9272 10.1238 12.3056 11.1309 12.3056 12.4171C12.3056 13.9719 11.8636 15.1203 10.9796 15.8624C10.0955 16.5973 8.70936 16.9648 6.82106 16.9648Z" fill="#061F4A" />
  <path d="M21.4641 1.38163H23.5963L29.4416 16.6574H27.5745L26.1211 12.8305H19.0135L17.5708 16.6574H15.6931L21.4641 1.38163ZM25.6119 11.3358L22.5355 2.93995L19.5121 11.3358H25.6119Z" fill="#061F4A" />
  <path d="M33.6883 15.0991H35.81V2.93995H33.5716V1.38163H39.8518V2.93995H37.6559V15.0991H39.7775V16.6574H33.6883V15.0991Z" fill="#061F4A" />
  <path d="M61.9029 8.49478C62.9849 8.67146 63.7876 9.0743 64.311 9.70328C64.8343 10.3323 65.096 11.198 65.096 12.3005C65.096 13.304 64.9121 14.1274 64.5443 14.7705C64.1837 15.4065 63.6214 15.88 62.8576 16.191C62.0938 16.5019 61.1037 16.6574 59.8873 16.6574H53.9678V1.38163H59.2614C60.5697 1.38163 61.5881 1.50177 62.3166 1.74206C63.045 1.97528 63.5648 2.36751 63.876 2.91875C64.1872 3.46999 64.3428 4.24032 64.3428 5.22973C64.3428 6.17674 64.1518 6.90466 63.7699 7.4135C63.3951 7.91527 62.7727 8.2757 61.9029 8.49478ZM55.7712 7.82693H59.6114C60.347 7.82693 60.9375 7.74213 61.383 7.57251C61.8286 7.39583 62.1504 7.11668 62.3484 6.73505C62.5535 6.35342 62.6561 5.84811 62.6561 5.21913C62.6561 4.63255 62.55 4.17671 62.3378 3.85162C62.1327 3.52653 61.7862 3.29331 61.2982 3.15197C60.8173 3.01062 60.1419 2.93995 59.272 2.93995H55.7712V7.82693ZM59.8767 15.1097C60.7395 15.1097 61.4078 15.0249 61.8816 14.8553C62.3555 14.6786 62.695 14.3924 62.9 13.9966C63.1051 13.5938 63.2077 13.0319 63.2077 12.3111C63.2077 11.5902 63.0875 11.0142 62.847 10.5831C62.6065 10.145 62.2246 9.82695 61.7013 9.62907C61.178 9.43119 60.4813 9.33225 59.6114 9.33225H55.7712V15.1097H59.8767Z" fill="#061F4A" />
  <path d="M70.6688 1.38163H72.5147V7.86934H81.0226V1.38163H82.8685V16.6574H81.0226L81.012 9.48066H72.504L72.5147 16.6574H70.6688V1.38163Z" fill="#061F4A" />
  <path d="M93.2999 1.38163H95.4322L101.277 16.6574H99.4103L97.957 12.8305H90.8494L89.4066 16.6574H87.5289L93.2999 1.38163ZM97.4478 11.3358L94.3714 2.93995L91.348 11.3358H97.4478Z" fill="#061F4A" />
  <path d="M103.487 1.38163H105.333L109.163 12.7139L109.778 14.6539H110.128L110.744 12.7139L114.52 1.38163H116.366L111.019 16.6574H108.961L103.487 1.38163Z" fill="#061F4A" />
  <path d="M124.347 1.38163H126.479L132.324 16.6574H130.457L129.004 12.8305H121.896L120.454 16.6574H118.576L124.347 1.38163ZM128.495 11.3358L125.418 2.93995L122.395 11.3358H128.495Z" fill="#061F4A" />
  <path d="M136.985 1.38163H139.786L148.166 14.8235H148.506V1.38163H150.161V16.6574H147.424L138.884 3.03536H138.534L138.64 16.6574H136.985V1.38163Z" fill="#061F4A" />
  <path d="M156.688 15.0991H158.81V2.93995H156.571V1.38163H162.852V2.93995H160.656V15.0991H162.777V16.6574H156.688V15.0991Z" fill="#061F4A" />
  <path d="M0.851562 21.276H3.02477C4.05227 21.276 4.81153 21.5411 5.30255 22.0711C5.79659 22.5981 6.04362 23.4144 6.04362 24.5199C6.04362 25.6436 5.79508 26.475 5.298 27.0141C4.80092 27.5533 4.03711 27.8228 3.00658 27.8228H0.851562V21.276ZM3.03841 27.1322C3.56883 27.1322 3.99317 27.0459 4.31142 26.8733C4.62967 26.6976 4.86154 26.422 5.00703 26.0464C5.15554 25.6678 5.2298 25.165 5.2298 24.5381C5.2298 23.8748 5.16009 23.3599 5.02066 22.9934C4.88124 22.6239 4.64786 22.3604 4.32051 22.2029C3.9962 22.0454 3.54155 21.9666 2.95657 21.9666H1.64265V27.1322H3.03841Z" fill="#061F4A" />
  <path d="M11.3955 27.155H12.3048V21.9439H11.3455V21.276H14.037V21.9439H13.0959V27.155H14.0052V27.8228H11.3955V27.155Z" fill="#061F4A" />
  <path d="M21.353 21.276H22.2668L24.7719 27.8228H23.9718L23.3489 26.1827H20.3028L19.6844 27.8228H18.8797L21.353 21.276ZM23.1307 25.5421L21.8122 21.9439L20.5164 25.5421H23.1307Z" fill="#061F4A" />
  <path d="M34.9385 24.6244V27.8682H34.3748L34.2975 26.9414C34.1035 27.3019 33.8428 27.5684 33.5155 27.741C33.1882 27.9137 32.782 28 32.2971 28C31.2968 28 30.5573 27.7244 30.0784 27.1731C29.6025 26.6219 29.3646 25.7663 29.3646 24.6062C29.3646 23.425 29.604 22.5512 30.0829 21.9848C30.5648 21.4184 31.3044 21.1352 32.3016 21.1352C32.8563 21.1352 33.3276 21.2124 33.7155 21.3669C34.1065 21.5214 34.4005 21.7485 34.5976 22.0484C34.7976 22.3452 34.8946 22.7056 34.8885 23.1297H34.1202C34.1202 22.7087 33.9641 22.3846 33.6519 22.1574C33.3397 21.9303 32.8942 21.8167 32.3152 21.8167C31.5908 21.8167 31.0544 22.0423 30.7058 22.4936C30.3572 22.9449 30.1829 23.64 30.1829 24.579C30.1829 25.2029 30.2451 25.7133 30.3694 26.11C30.4967 26.5068 30.7149 26.8082 31.024 27.0141C31.3332 27.2201 31.7575 27.3231 32.2971 27.3231C32.8881 27.3231 33.3443 27.1837 33.6655 26.9051C33.9868 26.6234 34.1475 26.2251 34.1475 25.7102V25.3513H32.1607V24.6244H34.9385Z" fill="#061F4A" />
  <path d="M40.6451 21.276H41.8453L45.437 27.0368H45.5825V21.276H46.2918V27.8228H45.1188L41.4589 21.9848H41.3089L41.3543 27.8228H40.6451V21.276Z" fill="#061F4A" />
  <path d="M54.7262 27.9955C54.0018 27.9955 53.4229 27.8652 52.9894 27.6047C52.556 27.3412 52.2438 26.9566 52.0529 26.4508C51.8649 25.9419 51.771 25.2983 51.771 24.5199C51.771 23.7566 51.868 23.1282 52.062 22.6345C52.259 22.1377 52.5742 21.7637 53.0076 21.5123C53.4411 21.2609 54.0139 21.1352 54.7262 21.1352C55.4385 21.1352 56.0113 21.2624 56.4447 21.5168C56.8782 21.7682 57.1919 22.1423 57.3859 22.639C57.5798 23.1327 57.6768 23.7582 57.6768 24.5154C57.6768 25.2968 57.5829 25.9419 57.395 26.4508C57.207 26.9566 56.8964 27.3412 56.4629 27.6047C56.0295 27.8652 55.4506 27.9955 54.7262 27.9955ZM54.7262 27.3231C55.299 27.3231 55.74 27.2201 56.0492 27.0141C56.3584 26.8051 56.5705 26.5007 56.6857 26.1009C56.8039 25.6981 56.863 25.1681 56.863 24.5108C56.863 23.8717 56.8024 23.3599 56.6812 22.9752C56.563 22.5875 56.3493 22.2968 56.0401 22.1029C55.7309 21.9091 55.293 21.8121 54.7262 21.8121C54.1533 21.8121 53.7123 21.9121 53.4032 22.112C53.094 22.3089 52.8803 22.6027 52.7621 22.9934C52.6439 23.3811 52.5848 23.899 52.5848 24.5472C52.5848 25.2014 52.6439 25.7269 52.7621 26.1237C52.8803 26.5174 53.094 26.8157 53.4032 27.0187C53.7154 27.2216 54.1564 27.3231 54.7262 27.3231Z" fill="#061F4A" />
  <path d="M65.0747 27.9546C64.5109 27.9546 64.0578 27.8955 63.7153 27.7774C63.3758 27.6562 63.1257 27.4654 62.9651 27.2049C62.8045 26.9414 62.7241 26.5931 62.7241 26.16H63.4743C63.4743 26.4447 63.5258 26.6673 63.6289 26.8279C63.7319 26.9853 63.9002 27.0989 64.1335 27.1686C64.3669 27.2352 64.6912 27.2685 65.1065 27.2685C65.4854 27.2685 65.7854 27.2277 66.0067 27.1459C66.2279 27.0641 66.3871 26.9354 66.4841 26.7597C66.5841 26.581 66.6341 26.3417 66.6341 26.0419C66.6341 25.7723 66.5765 25.5542 66.4613 25.3877C66.3461 25.2211 66.1507 25.0863 65.8748 24.9833C65.599 24.8773 65.211 24.788 64.7109 24.7153C64.0259 24.6153 63.5258 24.4139 63.2106 24.111C62.8984 23.8051 62.7423 23.3811 62.7423 22.8389C62.7423 22.2513 62.9363 21.8167 63.3243 21.535C63.7122 21.2533 64.3093 21.1125 65.1156 21.1125C65.6308 21.1125 66.043 21.1685 66.3522 21.2806C66.6614 21.3896 66.8872 21.5653 67.0296 21.8076C67.1721 22.0499 67.2433 22.3725 67.2433 22.7753H66.5204C66.5204 22.5239 66.475 22.3286 66.384 22.1892C66.2931 22.0499 66.1416 21.9515 65.9294 21.8939C65.7202 21.8333 65.4262 21.8031 65.0474 21.8031C64.6806 21.8031 64.3866 21.8379 64.1654 21.9076C63.9471 21.9742 63.7865 22.0817 63.6834 22.2301C63.5834 22.3785 63.5334 22.5754 63.5334 22.8207C63.5334 23.0782 63.5864 23.2841 63.6925 23.4386C63.7986 23.5901 63.9835 23.7158 64.2472 23.8157C64.5109 23.9126 64.8928 24.0005 65.3929 24.0792C66.0991 24.1882 66.6144 24.3987 66.9387 24.7107C67.263 25.0227 67.4252 25.4543 67.4252 26.0055C67.4252 26.6719 67.2357 27.164 66.8569 27.4821C66.478 27.7971 65.8839 27.9546 65.0747 27.9546Z" fill="#061F4A" />
  <path d="M73.9091 21.9712H71.8769V21.276H76.728V21.9712H74.6957V27.8274H73.9091V21.9712Z" fill="#061F4A" />
  <path d="M81.6707 27.155H82.58V21.9439H81.6207V21.276H84.3122V21.9439H83.371V27.155H84.2803V27.8228H81.6707V27.155Z" fill="#061F4A" />
  <path d="M92.542 28C91.5448 28 90.8068 27.7229 90.3279 27.1686C89.849 26.6143 89.6095 25.7587 89.6095 24.6017C89.6095 23.4265 89.8581 22.5557 90.3551 21.9893C90.8522 21.4199 91.6175 21.1352 92.6511 21.1352C93.1845 21.1352 93.6377 21.2124 94.0105 21.3669C94.3833 21.5214 94.6652 21.7485 94.8561 22.0484C95.0471 22.3452 95.1395 22.7056 95.1335 23.1297H94.3651C94.3651 22.7087 94.2166 22.3846 93.9196 22.1574C93.6225 21.9303 93.1997 21.8167 92.6511 21.8167C92.1116 21.8167 91.6797 21.9091 91.3554 22.0938C91.0341 22.2786 90.7992 22.5724 90.6507 22.9752C90.5021 23.375 90.4279 23.9096 90.4279 24.579C90.4279 25.2453 90.4976 25.7784 90.637 26.1782C90.7764 26.5749 90.9962 26.8657 91.2963 27.0505C91.5993 27.2322 92.004 27.3231 92.5102 27.3231C93.1042 27.3231 93.5619 27.2095 93.8832 26.9823C94.2045 26.7521 94.3651 26.4265 94.3651 26.0055H95.1335C95.1395 26.4296 95.0425 26.7915 94.8425 27.0914C94.6455 27.3882 94.3515 27.6138 93.9605 27.7683C93.5725 27.9228 93.0997 28 92.542 28Z" fill="#061F4A" />
  <path d="M109.42 28C108.423 28 107.685 27.7229 107.206 27.1686C106.727 26.6143 106.487 25.7587 106.487 24.6017C106.487 23.4265 106.736 22.5557 107.233 21.9893C107.73 21.4199 108.495 21.1352 109.529 21.1352C110.062 21.1352 110.516 21.2124 110.888 21.3669C111.261 21.5214 111.543 21.7485 111.734 22.0484C111.925 22.3452 112.017 22.7056 112.011 23.1297H111.243C111.243 22.7087 111.095 22.3846 110.797 22.1574C110.5 21.9303 110.078 21.8167 109.529 21.8167C108.989 21.8167 108.558 21.9091 108.233 22.0938C107.912 22.2786 107.677 22.5724 107.529 22.9752C107.38 23.375 107.306 23.9096 107.306 24.579C107.306 25.2453 107.376 25.7784 107.515 26.1782C107.654 26.5749 107.874 26.8657 108.174 27.0505C108.477 27.2322 108.882 27.3231 109.388 27.3231C109.982 27.3231 110.44 27.2095 110.761 26.9823C111.082 26.7521 111.243 26.4265 111.243 26.0055H112.011C112.017 26.4296 111.92 26.7915 111.72 27.0914C111.523 27.3882 111.229 27.6138 110.838 27.7683C110.45 27.9228 109.978 28 109.42 28Z" fill="#061F4A" />
  <path d="M117.422 21.276H121.787V21.9666H118.213V24.0656H121.251V24.7471H118.213V27.1322H121.801V27.8228H117.422V21.276Z" fill="#061F4A" />
  <path d="M127.143 21.276H128.344L131.935 27.0368H132.081V21.276H132.79V27.8228H131.617L127.957 21.9848H127.807L127.853 27.8228H127.143V21.276Z" fill="#061F4A" />
  <path d="M139.938 21.9712H137.906V21.276H142.757V21.9712H140.724V27.8274H139.938V21.9712Z" fill="#061F4A" />
  <path d="M152.66 27.8228H151.859L151.491 26.1373C151.418 25.8041 151.329 25.5527 151.223 25.3831C151.12 25.2105 150.973 25.0908 150.782 25.0242C150.594 24.9545 150.326 24.9197 149.977 24.9197H148.668V27.8228H147.877V21.276H150.036C150.661 21.276 151.146 21.3321 151.491 21.4441C151.837 21.5562 152.084 21.7425 152.232 22.003C152.381 22.2634 152.455 22.6284 152.455 23.0979C152.455 23.5189 152.349 23.8475 152.137 24.0838C151.928 24.32 151.579 24.482 151.091 24.5699C151.382 24.6335 151.597 24.7168 151.737 24.8198C151.879 24.9197 151.981 25.0484 152.041 25.2059C152.102 25.3604 152.169 25.6103 152.241 25.9556C152.247 25.9798 152.253 26.0086 152.26 26.0419C152.269 26.0752 152.278 26.1146 152.287 26.16L152.66 27.8228ZM149.977 24.2564C151.12 24.2564 151.691 23.8702 151.691 23.0979C151.691 22.8011 151.64 22.5709 151.537 22.4073C151.434 22.2438 151.262 22.1271 151.023 22.0575C150.783 21.9848 150.449 21.9484 150.018 21.9484H148.668V24.2564H149.977Z" fill="#061F4A" />
  <path d="M158.143 21.276H162.508V21.9666H158.934V24.0656H161.971V24.7471H158.934V27.1322H162.522V27.8228H158.143V21.276Z" fill="#061F4A" />
  <path d="M6.82106 16.9648C5.50562 16.9648 4.44832 16.827 3.64915 16.5514C2.85706 16.2687 2.27359 15.8235 1.89876 15.2157C1.52393 14.6009 1.33652 13.7881 1.33652 12.7775H3.0869C3.0869 13.4418 3.20713 13.9613 3.44759 14.3358C3.68805 14.7033 4.08056 14.9684 4.62512 15.1309C5.16969 15.2864 5.92642 15.3641 6.89532 15.3641C7.77935 15.3641 8.47951 15.2687 8.99578 15.0779C9.51206 14.8871 9.88335 14.5867 10.1097 14.1768C10.3431 13.7599 10.4597 13.2016 10.4597 12.5019C10.4597 11.8729 10.3254 11.3641 10.0566 10.9754C9.78788 10.5867 9.33172 10.2722 8.68814 10.0319C8.04456 9.78455 7.13931 9.57607 5.97239 9.40646C4.37406 9.17324 3.20713 8.70327 2.47162 7.99655C1.74317 7.28276 1.37895 6.29335 1.37895 5.02831C1.37895 3.65727 1.83158 2.64313 2.73683 1.98588C3.64208 1.32863 5.03531 1 6.91654 1C8.11882 1 9.08065 1.13074 9.80202 1.39223C10.5234 1.64665 11.0503 2.05655 11.3827 2.62193C11.7151 3.1873 11.8813 3.93996 11.8813 4.8799H10.1945C10.1945 4.29332 10.0885 3.83749 9.87628 3.5124C9.66411 3.1873 9.3105 2.95762 8.81544 2.82334C8.32746 2.682 7.64145 2.61133 6.75741 2.61133C5.90167 2.61133 5.21566 2.6926 4.69938 2.85514C4.19018 3.01062 3.81535 3.26151 3.57489 3.6078C3.34151 3.9541 3.22481 4.41347 3.22481 4.98591C3.22481 5.58662 3.34858 6.06719 3.59611 6.42762C3.84364 6.78098 4.27505 7.07427 4.89033 7.30749C5.50562 7.53364 6.39673 7.73859 7.56365 7.92234C9.21149 8.17676 10.4138 8.66793 11.1705 9.39585C11.9272 10.1238 12.3056 11.1309 12.3056 12.4171C12.3056 13.9719 11.8636 15.1203 10.9796 15.8624C10.0955 16.5973 8.70936 16.9648 6.82106 16.9648Z" stroke="#061F4A" stroke-width="0.6" mask="url(#path-1-outside-1)" />
  <path d="M21.4641 1.38163H23.5963L29.4416 16.6574H27.5745L26.1211 12.8305H19.0135L17.5708 16.6574H15.6931L21.4641 1.38163ZM25.6119 11.3358L22.5355 2.93995L19.5121 11.3358H25.6119Z" stroke="#061F4A" stroke-width="0.6" mask="url(#path-1-outside-1)" />
  <path d="M33.6883 15.0991H35.81V2.93995H33.5716V1.38163H39.8518V2.93995H37.6559V15.0991H39.7775V16.6574H33.6883V15.0991Z" stroke="#061F4A" stroke-width="0.6" mask="url(#path-1-outside-1)" />
  <path d="M61.9029 8.49478C62.9849 8.67146 63.7876 9.0743 64.311 9.70328C64.8343 10.3323 65.096 11.198 65.096 12.3005C65.096 13.304 64.9121 14.1274 64.5443 14.7705C64.1837 15.4065 63.6214 15.88 62.8576 16.191C62.0938 16.5019 61.1037 16.6574 59.8873 16.6574H53.9678V1.38163H59.2614C60.5697 1.38163 61.5881 1.50177 62.3166 1.74206C63.045 1.97528 63.5648 2.36751 63.876 2.91875C64.1872 3.46999 64.3428 4.24032 64.3428 5.22973C64.3428 6.17674 64.1518 6.90466 63.7699 7.4135C63.3951 7.91527 62.7727 8.2757 61.9029 8.49478ZM55.7712 7.82693H59.6114C60.347 7.82693 60.9375 7.74213 61.383 7.57251C61.8286 7.39583 62.1504 7.11668 62.3484 6.73505C62.5535 6.35342 62.6561 5.84811 62.6561 5.21913C62.6561 4.63255 62.55 4.17671 62.3378 3.85162C62.1327 3.52653 61.7862 3.29331 61.2982 3.15197C60.8173 3.01062 60.1419 2.93995 59.272 2.93995H55.7712V7.82693ZM59.8767 15.1097C60.7395 15.1097 61.4078 15.0249 61.8816 14.8553C62.3555 14.6786 62.695 14.3924 62.9 13.9966C63.1051 13.5938 63.2077 13.0319 63.2077 12.3111C63.2077 11.5902 63.0875 11.0142 62.847 10.5831C62.6065 10.145 62.2246 9.82695 61.7013 9.62907C61.178 9.43119 60.4813 9.33225 59.6114 9.33225H55.7712V15.1097H59.8767Z" stroke="#061F4A" stroke-width="0.6" mask="url(#path-1-outside-1)" />
  <path d="M70.6688 1.38163H72.5147V7.86934H81.0226V1.38163H82.8685V16.6574H81.0226L81.012 9.48066H72.504L72.5147 16.6574H70.6688V1.38163Z" stroke="#061F4A" stroke-width="0.6" mask="url(#path-1-outside-1)" />
  <path d="M93.2999 1.38163H95.4322L101.277 16.6574H99.4103L97.957 12.8305H90.8494L89.4066 16.6574H87.5289L93.2999 1.38163ZM97.4478 11.3358L94.3714 2.93995L91.348 11.3358H97.4478Z" stroke="#061F4A" stroke-width="0.6" mask="url(#path-1-outside-1)" />
  <path d="M103.487 1.38163H105.333L109.163 12.7139L109.778 14.6539H110.128L110.744 12.7139L114.52 1.38163H116.366L111.019 16.6574H108.961L103.487 1.38163Z" stroke="#061F4A" stroke-width="0.6" mask="url(#path-1-outside-1)" />
  <path d="M124.347 1.38163H126.479L132.324 16.6574H130.457L129.004 12.8305H121.896L120.454 16.6574H118.576L124.347 1.38163ZM128.495 11.3358L125.418 2.93995L122.395 11.3358H128.495Z" stroke="#061F4A" stroke-width="0.6" mask="url(#path-1-outside-1)" />
  <path d="M136.985 1.38163H139.786L148.166 14.8235H148.506V1.38163H150.161V16.6574H147.424L138.884 3.03536H138.534L138.64 16.6574H136.985V1.38163Z" stroke="#061F4A" stroke-width="0.6" mask="url(#path-1-outside-1)" />
  <path d="M156.688 15.0991H158.81V2.93995H156.571V1.38163H162.852V2.93995H160.656V15.0991H162.777V16.6574H156.688V15.0991Z" stroke="#061F4A" stroke-width="0.6" mask="url(#path-1-outside-1)" />
  <path d="M0.851562 21.276H3.02477C4.05227 21.276 4.81153 21.5411 5.30255 22.0711C5.79659 22.5981 6.04362 23.4144 6.04362 24.5199C6.04362 25.6436 5.79508 26.475 5.298 27.0141C4.80092 27.5533 4.03711 27.8228 3.00658 27.8228H0.851562V21.276ZM3.03841 27.1322C3.56883 27.1322 3.99317 27.0459 4.31142 26.8733C4.62967 26.6976 4.86154 26.422 5.00703 26.0464C5.15554 25.6678 5.2298 25.165 5.2298 24.5381C5.2298 23.8748 5.16009 23.3599 5.02066 22.9934C4.88124 22.6239 4.64786 22.3604 4.32051 22.2029C3.9962 22.0454 3.54155 21.9666 2.95657 21.9666H1.64265V27.1322H3.03841Z" stroke="#061F4A" stroke-width="0.6" mask="url(#path-1-outside-1)" />
  <path d="M11.3955 27.155H12.3048V21.9439H11.3455V21.276H14.037V21.9439H13.0959V27.155H14.0052V27.8228H11.3955V27.155Z" stroke="#061F4A" stroke-width="0.6" mask="url(#path-1-outside-1)" />
  <path d="M21.353 21.276H22.2668L24.7719 27.8228H23.9718L23.3489 26.1827H20.3028L19.6844 27.8228H18.8797L21.353 21.276ZM23.1307 25.5421L21.8122 21.9439L20.5164 25.5421H23.1307Z" stroke="#061F4A" stroke-width="0.6" mask="url(#path-1-outside-1)" />
  <path d="M34.9385 24.6244V27.8682H34.3748L34.2975 26.9414C34.1035 27.3019 33.8428 27.5684 33.5155 27.741C33.1882 27.9137 32.782 28 32.2971 28C31.2968 28 30.5573 27.7244 30.0784 27.1731C29.6025 26.6219 29.3646 25.7663 29.3646 24.6062C29.3646 23.425 29.604 22.5512 30.0829 21.9848C30.5648 21.4184 31.3044 21.1352 32.3016 21.1352C32.8563 21.1352 33.3276 21.2124 33.7155 21.3669C34.1065 21.5214 34.4005 21.7485 34.5976 22.0484C34.7976 22.3452 34.8946 22.7056 34.8885 23.1297H34.1202C34.1202 22.7087 33.9641 22.3846 33.6519 22.1574C33.3397 21.9303 32.8942 21.8167 32.3152 21.8167C31.5908 21.8167 31.0544 22.0423 30.7058 22.4936C30.3572 22.9449 30.1829 23.64 30.1829 24.579C30.1829 25.2029 30.2451 25.7133 30.3694 26.11C30.4967 26.5068 30.7149 26.8082 31.024 27.0141C31.3332 27.2201 31.7575 27.3231 32.2971 27.3231C32.8881 27.3231 33.3443 27.1837 33.6655 26.9051C33.9868 26.6234 34.1475 26.2251 34.1475 25.7102V25.3513H32.1607V24.6244H34.9385Z" stroke="#061F4A" stroke-width="0.6" mask="url(#path-1-outside-1)" />
  <path d="M40.6451 21.276H41.8453L45.437 27.0368H45.5825V21.276H46.2918V27.8228H45.1188L41.4589 21.9848H41.3089L41.3543 27.8228H40.6451V21.276Z" stroke="#061F4A" stroke-width="0.6" mask="url(#path-1-outside-1)" />
  <path d="M54.7262 27.9955C54.0018 27.9955 53.4229 27.8652 52.9894 27.6047C52.556 27.3412 52.2438 26.9566 52.0529 26.4508C51.8649 25.9419 51.771 25.2983 51.771 24.5199C51.771 23.7566 51.868 23.1282 52.062 22.6345C52.259 22.1377 52.5742 21.7637 53.0076 21.5123C53.4411 21.2609 54.0139 21.1352 54.7262 21.1352C55.4385 21.1352 56.0113 21.2624 56.4447 21.5168C56.8782 21.7682 57.1919 22.1423 57.3859 22.639C57.5798 23.1327 57.6768 23.7582 57.6768 24.5154C57.6768 25.2968 57.5829 25.9419 57.395 26.4508C57.207 26.9566 56.8964 27.3412 56.4629 27.6047C56.0295 27.8652 55.4506 27.9955 54.7262 27.9955ZM54.7262 27.3231C55.299 27.3231 55.74 27.2201 56.0492 27.0141C56.3584 26.8051 56.5705 26.5007 56.6857 26.1009C56.8039 25.6981 56.863 25.1681 56.863 24.5108C56.863 23.8717 56.8024 23.3599 56.6812 22.9752C56.563 22.5875 56.3493 22.2968 56.0401 22.1029C55.7309 21.9091 55.293 21.8121 54.7262 21.8121C54.1533 21.8121 53.7123 21.9121 53.4032 22.112C53.094 22.3089 52.8803 22.6027 52.7621 22.9934C52.6439 23.3811 52.5848 23.899 52.5848 24.5472C52.5848 25.2014 52.6439 25.7269 52.7621 26.1237C52.8803 26.5174 53.094 26.8157 53.4032 27.0187C53.7154 27.2216 54.1564 27.3231 54.7262 27.3231Z" stroke="#061F4A" stroke-width="0.6" mask="url(#path-1-outside-1)" />
  <path d="M65.0747 27.9546C64.5109 27.9546 64.0578 27.8955 63.7153 27.7774C63.3758 27.6562 63.1257 27.4654 62.9651 27.2049C62.8045 26.9414 62.7241 26.5931 62.7241 26.16H63.4743C63.4743 26.4447 63.5258 26.6673 63.6289 26.8279C63.7319 26.9853 63.9002 27.0989 64.1335 27.1686C64.3669 27.2352 64.6912 27.2685 65.1065 27.2685C65.4854 27.2685 65.7854 27.2277 66.0067 27.1459C66.2279 27.0641 66.3871 26.9354 66.4841 26.7597C66.5841 26.581 66.6341 26.3417 66.6341 26.0419C66.6341 25.7723 66.5765 25.5542 66.4613 25.3877C66.3461 25.2211 66.1507 25.0863 65.8748 24.9833C65.599 24.8773 65.211 24.788 64.7109 24.7153C64.0259 24.6153 63.5258 24.4139 63.2106 24.111C62.8984 23.8051 62.7423 23.3811 62.7423 22.8389C62.7423 22.2513 62.9363 21.8167 63.3243 21.535C63.7122 21.2533 64.3093 21.1125 65.1156 21.1125C65.6308 21.1125 66.043 21.1685 66.3522 21.2806C66.6614 21.3896 66.8872 21.5653 67.0296 21.8076C67.1721 22.0499 67.2433 22.3725 67.2433 22.7753H66.5204C66.5204 22.5239 66.475 22.3286 66.384 22.1892C66.2931 22.0499 66.1416 21.9515 65.9294 21.8939C65.7202 21.8333 65.4262 21.8031 65.0474 21.8031C64.6806 21.8031 64.3866 21.8379 64.1654 21.9076C63.9471 21.9742 63.7865 22.0817 63.6834 22.2301C63.5834 22.3785 63.5334 22.5754 63.5334 22.8207C63.5334 23.0782 63.5864 23.2841 63.6925 23.4386C63.7986 23.5901 63.9835 23.7158 64.2472 23.8157C64.5109 23.9126 64.8928 24.0005 65.3929 24.0792C66.0991 24.1882 66.6144 24.3987 66.9387 24.7107C67.263 25.0227 67.4252 25.4543 67.4252 26.0055C67.4252 26.6719 67.2357 27.164 66.8569 27.4821C66.478 27.7971 65.8839 27.9546 65.0747 27.9546Z" stroke="#061F4A" stroke-width="0.6" mask="url(#path-1-outside-1)" />
  <path d="M73.9091 21.9712H71.8769V21.276H76.728V21.9712H74.6957V27.8274H73.9091V21.9712Z" stroke="#061F4A" stroke-width="0.6" mask="url(#path-1-outside-1)" />
  <path d="M81.6707 27.155H82.58V21.9439H81.6207V21.276H84.3122V21.9439H83.371V27.155H84.2803V27.8228H81.6707V27.155Z" stroke="#061F4A" stroke-width="0.6" mask="url(#path-1-outside-1)" />
  <path d="M92.542 28C91.5448 28 90.8068 27.7229 90.3279 27.1686C89.849 26.6143 89.6095 25.7587 89.6095 24.6017C89.6095 23.4265 89.8581 22.5557 90.3551 21.9893C90.8522 21.4199 91.6175 21.1352 92.6511 21.1352C93.1845 21.1352 93.6377 21.2124 94.0105 21.3669C94.3833 21.5214 94.6652 21.7485 94.8561 22.0484C95.0471 22.3452 95.1395 22.7056 95.1335 23.1297H94.3651C94.3651 22.7087 94.2166 22.3846 93.9196 22.1574C93.6225 21.9303 93.1997 21.8167 92.6511 21.8167C92.1116 21.8167 91.6797 21.9091 91.3554 22.0938C91.0341 22.2786 90.7992 22.5724 90.6507 22.9752C90.5021 23.375 90.4279 23.9096 90.4279 24.579C90.4279 25.2453 90.4976 25.7784 90.637 26.1782C90.7764 26.5749 90.9962 26.8657 91.2963 27.0505C91.5993 27.2322 92.004 27.3231 92.5102 27.3231C93.1042 27.3231 93.5619 27.2095 93.8832 26.9823C94.2045 26.7521 94.3651 26.4265 94.3651 26.0055H95.1335C95.1395 26.4296 95.0425 26.7915 94.8425 27.0914C94.6455 27.3882 94.3515 27.6138 93.9605 27.7683C93.5725 27.9228 93.0997 28 92.542 28Z" stroke="#061F4A" stroke-width="0.6" mask="url(#path-1-outside-1)" />
  <path d="M109.42 28C108.423 28 107.685 27.7229 107.206 27.1686C106.727 26.6143 106.487 25.7587 106.487 24.6017C106.487 23.4265 106.736 22.5557 107.233 21.9893C107.73 21.4199 108.495 21.1352 109.529 21.1352C110.062 21.1352 110.516 21.2124 110.888 21.3669C111.261 21.5214 111.543 21.7485 111.734 22.0484C111.925 22.3452 112.017 22.7056 112.011 23.1297H111.243C111.243 22.7087 111.095 22.3846 110.797 22.1574C110.5 21.9303 110.078 21.8167 109.529 21.8167C108.989 21.8167 108.558 21.9091 108.233 22.0938C107.912 22.2786 107.677 22.5724 107.529 22.9752C107.38 23.375 107.306 23.9096 107.306 24.579C107.306 25.2453 107.376 25.7784 107.515 26.1782C107.654 26.5749 107.874 26.8657 108.174 27.0505C108.477 27.2322 108.882 27.3231 109.388 27.3231C109.982 27.3231 110.44 27.2095 110.761 26.9823C111.082 26.7521 111.243 26.4265 111.243 26.0055H112.011C112.017 26.4296 111.92 26.7915 111.72 27.0914C111.523 27.3882 111.229 27.6138 110.838 27.7683C110.45 27.9228 109.978 28 109.42 28Z" stroke="#061F4A" stroke-width="0.6" mask="url(#path-1-outside-1)" />
  <path d="M117.422 21.276H121.787V21.9666H118.213V24.0656H121.251V24.7471H118.213V27.1322H121.801V27.8228H117.422V21.276Z" stroke="#061F4A" stroke-width="0.6" mask="url(#path-1-outside-1)" />
  <path d="M127.143 21.276H128.344L131.935 27.0368H132.081V21.276H132.79V27.8228H131.617L127.957 21.9848H127.807L127.853 27.8228H127.143V21.276Z" stroke="#061F4A" stroke-width="0.6" mask="url(#path-1-outside-1)" />
  <path d="M139.938 21.9712H137.906V21.276H142.757V21.9712H140.724V27.8274H139.938V21.9712Z" stroke="#061F4A" stroke-width="0.6" mask="url(#path-1-outside-1)" />
  <path d="M152.66 27.8228H151.859L151.491 26.1373C151.418 25.8041 151.329 25.5527 151.223 25.3831C151.12 25.2105 150.973 25.0908 150.782 25.0242C150.594 24.9545 150.326 24.9197 149.977 24.9197H148.668V27.8228H147.877V21.276H150.036C150.661 21.276 151.146 21.3321 151.491 21.4441C151.837 21.5562 152.084 21.7425 152.232 22.003C152.381 22.2634 152.455 22.6284 152.455 23.0979C152.455 23.5189 152.349 23.8475 152.137 24.0838C151.928 24.32 151.579 24.482 151.091 24.5699C151.382 24.6335 151.597 24.7168 151.737 24.8198C151.879 24.9197 151.981 25.0484 152.041 25.2059C152.102 25.3604 152.169 25.6103 152.241 25.9556C152.247 25.9798 152.253 26.0086 152.26 26.0419C152.269 26.0752 152.278 26.1146 152.287 26.16L152.66 27.8228ZM149.977 24.2564C151.12 24.2564 151.691 23.8702 151.691 23.0979C151.691 22.8011 151.64 22.5709 151.537 22.4073C151.434 22.2438 151.262 22.1271 151.023 22.0575C150.783 21.9848 150.449 21.9484 150.018 21.9484H148.668V24.2564H149.977Z" stroke="#061F4A" stroke-width="0.6" mask="url(#path-1-outside-1)" />
  <path d="M158.143 21.276H162.508V21.9666H158.934V24.0656H161.971V24.7471H158.934V27.1322H162.522V27.8228H158.143V21.276Z" stroke="#061F4A" stroke-width="0.6" mask="url(#path-1-outside-1)" />
</svg>
