<svg width="110" height="56" viewBox="0 0 110 56" fill="none" xmlns="http://www.w3.org/2000/svg">
  <path d="M60.6756 33.5304C60.6756 24.2802 73.5737 20.0519 81.0168 18.9648C73.5414 18.9648 61.0259 19.6693 55.3796 25.2639C49.7695 19.6693 37.2178 18.9648 29.7734 18.9648C37.1868 20.0506 50.0836 24.2776 50.0836 33.5304H60.6756ZM55.3796 15.1864C57.0782 15.1864 58.4574 16.5566 58.4574 18.2409C58.4574 19.9227 57.0795 21.2903 55.3796 21.2903C53.6811 21.2903 52.3005 19.9214 52.3005 18.2409C52.2992 16.5566 53.6811 15.1864 55.3796 15.1864ZM54.5472 5.23682C48.8323 5.49277 43.6669 8.44907 39.6248 13.1866C43.8272 9.24663 48.9952 7.02068 54.6066 6.79576C60.2581 6.54111 66.4809 7.65408 71.0052 11.2166C66.5469 6.8591 60.2865 4.98217 54.5472 5.23682ZM46.9412 1.93021C41.1656 4.19106 36.9296 9.01783 34.4903 15.3156C37.3794 9.78179 41.8675 5.7164 47.55 3.49303C53.2623 1.26708 59.9698 0.980111 65.8721 3.04448C59.7397 0.121788 52.7129 -0.324177 46.9412 1.93021ZM65.037 4.3785C70.8449 6.50879 75.1805 11.2761 77.7774 17.477C74.7617 12.0388 70.2025 8.06644 64.4592 5.93485C58.716 3.84334 51.9476 2.91909 46.0751 5.11531C52.1415 2.05818 59.2279 2.21589 65.037 4.3785Z" fill="#061F4A" />
  <path d="M6.94414 47.631L2.82186 42.5069H0V55.2086H3.13986V47.3492L6.94414 52.0002L10.7497 47.3492V55.2086H13.9219V42.5069H11.0677L6.94414 47.631ZM19.6341 49.7975H24.7698V47.4462H19.6341V44.8699H25.0245V42.5082H16.4296V55.2098H25.1796V52.8146H19.6341V49.7975ZM32.7985 52.6258H30.4187V45.0845H32.7985C35.018 45.0845 36.5071 46.6292 36.5071 48.8603C36.5071 51.0553 35.018 52.6258 32.7985 52.6258ZM37.297 43.8293C35.7109 42.6336 34.0627 42.5069 32.0009 42.5069H27.213V55.2086H32.0009C33.8766 55.2086 35.3657 55.1711 36.7915 54.2623C38.7615 53.0046 39.8073 51.1212 39.8073 48.8603C39.806 46.7792 38.9503 45.056 37.297 43.8293ZM41.8044 55.2086H45.1007V42.5095H41.8044V55.2086ZM50.367 48.8603C50.367 46.4366 51.9505 44.9307 54.5539 44.9307C55.95 44.9307 57.4106 45.3973 58.8054 46.3112V43.3252C57.4106 42.6336 55.915 42.2859 54.3328 42.2859C49.8603 42.2859 47.0358 44.9888 47.0358 48.8577C47.0358 50.7735 47.7649 52.4694 49.0342 53.6612C50.2739 54.8233 51.9854 55.4555 54.0161 55.4555C55.7935 55.4555 57.4107 55.0121 58.9334 54.1331V51.1794C57.4119 52.251 55.8207 52.7848 54.2721 52.7848C51.8613 52.7848 50.367 51.2168 50.367 48.8603ZM67.1779 52.7538C65.0528 52.7538 63.4991 51.1535 63.4991 48.859C63.4991 46.5607 65.0528 44.9565 67.1779 44.9565C69.272 44.9565 70.8258 46.5581 70.8258 48.859C70.8258 51.1522 69.272 52.7538 67.1779 52.7538ZM67.1779 42.2885C65.1175 42.2885 63.499 42.8908 62.1961 44.1098C60.8956 45.3366 60.2002 46.9731 60.2002 48.8603C60.2002 50.7424 60.8956 52.3738 62.1961 53.6031C63.499 54.8259 65.1175 55.4593 67.1779 55.4593C69.2074 55.4593 70.8594 54.8285 72.1598 53.6031C73.4577 52.3738 74.1583 50.7747 74.1583 48.8603C74.1583 46.9731 73.4577 45.3366 72.1598 44.1098C70.8581 42.8908 69.2074 42.2885 67.1779 42.2885ZM80.2467 49.8919L77.0422 42.5069H73.6167L79.4543 55.3288H80.8491L87.0965 42.5069H83.605L80.2467 49.8919ZM91.189 49.7975H96.3286V47.4462H91.189V44.8699H96.582V42.5082H87.9884V55.2098H96.7409V52.8146H91.1916L91.189 49.7975ZM103.591 47.7267H102.038V44.7432H103.591C104.77 44.7432 105.336 45.3042 105.336 46.2194C105.336 47.2238 104.795 47.7267 103.591 47.7267ZM107.968 50.8678C107.584 50.047 107.078 49.517 106.445 49.2688C107.968 48.5747 108.697 47.5728 108.697 46.1845C108.697 43.6393 107.016 42.5056 103.555 42.5056H98.8338V55.2073H102.037V50.047C102.197 50.047 102.289 50.0198 102.418 50.0198C103.688 50.0198 104.258 50.3921 104.768 51.5594L106.382 55.206H110L107.968 50.8678Z" fill="#061F4A" />
</svg>
