<svg width="32" height="23" viewBox="0 0 32 23" fill="none" xmlns="http://www.w3.org/2000/svg">
<path d="M23.1846 10.0076C23.6253 5.7939 26.7107 3.59924 32 2.89695V0C22.303 0.614506 17.1019 5.88168 17.1019 13.8702C17.1019 19.2252 20.011 23 24.7714 23C28.7383 23 31.8237 20.3664 31.8237 16.3282C31.8237 12.6412 29.5317 10.6221 26.5344 10.0076H23.1846ZM6.08264 10.0076C6.52342 5.7939 9.69697 3.59924 14.9862 2.89695V0C5.28926 0.614506 0 5.88168 0 13.8702C0 19.2252 2.90909 23 7.66942 23C11.6364 23 14.7218 20.3664 14.7218 16.3282C14.7218 12.6412 12.4298 10.6221 9.52066 10.0076H6.08264Z" fill="#FF6567"/>
</svg>
