<?xml version="1.0" encoding="UTF-8"?>
<svg width="63px" height="51px" viewBox="0 0 63 51" version="1.1" xmlns="http://www.w3.org/2000/svg" xmlns:xlink="http://www.w3.org/1999/xlink">
    <title>care-logo-02</title>
    <g id="Page-1" stroke="none" stroke-width="1" fill="none" fill-rule="evenodd">
        <g id="Artboard-Copy-4" transform="translate(-403.000000, -37.000000)" fill="#061F4A" fill-rule="nonzero">
            <g id="care-logo-02" transform="translate(403.000000, 37.000000)">
                <path d="M50.4041349,42.5685542 L50.4041349,41.8421737 L51.3635671,41.7685421 C51.8174733,41.7264864 52.0959794,41.600183 52.1992188,41.3369602 C52.3127287,41.0948334 52.3642149,40.4842763 52.3642149,39.5159051 L52.3642149,28.494847 C52.3642149,27.5264758 52.3125953,26.9054388 52.1888148,26.6422161 C52.0340892,26.4000892 51.7039634,26.2737858 51.1572218,26.2526899 L50.043064,26.1790583 L50.043064,25.431718 C50.7033155,25.4843898 51.6007241,25.5264455 52.7665015,25.5475415 C53.9425495,25.5475415 55.0567073,25.5475415 56.1088415,25.5054857 L56.1088415,25.5054857 C57.6046113,25.4528139 58.9870046,25.431718 60.2249428,25.4528139 C61.4938262,25.4528139 62.2985328,25.4843898 62.6285252,25.5475415 L62.6285252,25.5475415 C62.4840701,26.252826 62.3912348,26.8633831 62.3396151,27.3896925 C62.2777248,27.9160019 62.2467797,28.5265589 62.2467797,29.2738993 L61.421532,29.2738993 L61.421532,27.2633891 C61.421532,27.09503 61.0914062,26.9265347 60.4518293,26.7791354 C59.8122523,26.6212562 58.9870046,26.5370086 57.9554116,26.4738569 C57.553125,26.452761 57.150705,26.452761 56.7793636,26.452761 C56.119112,26.452761 55.4073742,26.4948168 54.6026677,26.5685845 L54.6026677,33.2633437 C55.6135861,33.3160155 56.511128,33.3369753 57.3363758,33.3369753 C58.7393102,33.3369753 59.5542873,33.2422478 59.750362,33.0948485 C59.9567073,32.9264894 60.1011623,32.2737405 60.1526486,31.1370101 L60.8334413,31.1370101 C60.7922256,32.2212048 60.7612805,33.1475203 60.7612805,33.9370525 C60.7612805,34.7159686 60.7922256,35.6529001 60.8334413,36.7264788 L60.1526486,36.7264788 C60.101029,35.4844049 59.9567073,34.7896002 59.750362,34.6212411 C59.5544207,34.431786 58.7394436,34.3580183 57.3363758,34.3580183 C56.511128,34.3580183 55.6135861,34.3791143 54.6026677,34.442266 L54.6026677,41.4107279 C55.6858803,41.4843595 56.6555831,41.5370313 57.5015053,41.5370313 C58.4299924,41.5370313 59.4615854,41.4843595 60.5962843,41.3791521 C61.1430259,41.3160004 61.4938262,41.1160654 61.679497,40.8001709 C61.8548971,40.4633165 62.0198933,39.6739204 62.1540777,38.4423265 L63,38.4423265 C62.8452744,39.2107627 62.752439,39.8844714 62.7008194,40.4423567 C62.6491997,41.000242 62.6286585,41.6739507 62.6286585,42.4528669 L62.6286585,42.4528669 C62.0097561,42.5160185 61.0503239,42.5475944 59.7917111,42.5475944 C58.5228277,42.5475944 57.2952934,42.5475944 56.0676258,42.4949226 L56.0676258,42.4949226 C54.9122523,42.4528669 53.7980945,42.4422508 52.6943407,42.4528669 C51.6008575,42.4738267 50.827096,42.5158824 50.4041349,42.5685542 L50.4041349,42.5685542 Z M36.6528963,39.5159051 L36.6528963,28.494847 C36.6528963,27.5264758 36.5703316,26.9054388 36.4465511,26.6422161 C36.3125,26.4000892 35.9719703,26.2737858 35.4356326,26.2526899 L34.3214748,26.1790583 L34.3214748,25.431718 L37.7670541,25.5053496 L37.7670541,25.5053496 L42.3473323,25.431718 C43.9772866,25.431718 45.2254954,25.7474764 46.0611471,26.3791294 C46.9277439,27.0212623 47.350705,27.9475777 47.350705,29.1580758 C47.350705,30.6211806 46.7213986,31.8107188 45.4938643,32.7264183 C44.751048,33.3053995 43.8432355,33.6947895 42.7806974,33.8948606 L42.7806974,33.8948606 L45.7207508,37.9790326 L46.8761242,39.5684408 C47.587862,40.536812 48.0624428,41.1368891 48.3204078,41.379016 C48.5576982,41.6211428 48.8155297,41.7474462 49.0734947,41.7895019 L49.5995617,41.8631335 L49.5995617,42.589514 C48.9806593,42.5263624 48.4235137,42.5158824 47.9696075,42.5158824 C47.4950267,42.5158824 46.9482851,42.5263624 46.2984375,42.589514 L46.2984375,42.589514 C44.998609,40.7789389 43.9051258,39.2315864 42.9456936,37.9474568 C42.0688262,36.7158628 41.0062881,35.2737178 39.7476753,33.6527338 L39.8714558,33.3158794 L40.717378,33.3369753 C41.9553163,33.3369753 42.9869093,33.000121 43.7916159,32.3475082 C44.5963224,31.6737995 44.998609,30.8422115 44.998609,29.8317845 C44.998609,28.7475898 44.6891578,27.9160019 44.0495808,27.294965 C43.4100038,26.6634481 42.5331364,26.3686495 41.4292492,26.3686495 C40.5317073,26.3475536 39.6652439,26.4528971 38.8812119,26.6423522 L38.8812119,39.5160412 C38.8812119,40.4950285 38.9328316,41.1160654 39.0875572,41.3581923 C39.2113377,41.6003191 39.5414634,41.7477184 40.088205,41.7686782 L41.2126334,41.8423098 L41.2126334,42.5686903 C39.8921303,42.5266346 38.7367569,42.4950587 37.7670541,42.4950587 C36.807622,42.4950587 35.6522485,42.5266346 34.3214748,42.5686903 L34.3214748,41.8423098 L35.4356326,41.7686782 C35.9721037,41.7475823 36.3125,41.6003191 36.4465511,41.3581923 C36.5703316,41.1159293 36.6528963,40.4948924 36.6528963,39.5159051 L36.6528963,39.5159051 Z M24.1498666,28.4738872 L21.1685976,35.873931 L27.0487043,35.873931 L27.0487043,35.873931 L24.1498666,28.4738872 L24.1498666,28.4738872 Z M18.4142149,39.5159051 L24.2943216,25.2843187 L25.0886242,25.2843187 L30.2156441,38.0001285 C30.8964367,39.6633044 31.350343,40.6843474 31.6083079,41.0948334 C31.8455983,41.5053194 32.134375,41.7263503 32.4851753,41.7685421 L33.2073171,41.8421737 L33.2073171,42.5685542 C32.0105945,42.5369784 30.9687309,42.4949226 30.0918636,42.4949226 C29.2252668,42.4949226 28.1834032,42.5369784 26.9866806,42.5685542 L26.9866806,41.8421737 L28.111109,41.7685421 C28.6371761,41.7474462 28.9363567,41.600183 28.9673018,41.3580561 C29.0085175,41.1159293 28.8435213,40.5053723 28.4515053,39.5159051 L27.4096418,36.8632621 L20.7248285,36.8632621 L20.7248285,36.8632621 L20.209032,38.2422554 C19.569455,39.7896078 19.2600038,40.757979 19.2393293,41.1475052 C19.2186547,41.5475112 19.4972942,41.7474462 20.0852515,41.7685421 L21.251029,41.8421737 L21.251029,42.5685542 C20.2091654,42.5264985 19.3116235,42.4949226 18.5585366,42.4949226 C17.7951791,42.4949226 16.8769627,42.5264985 15.8350991,42.5685542 L15.8350991,41.8421737 L16.6603468,41.7685421 C17.0420922,41.7264864 17.3308689,41.600183 17.5372142,41.3369602 C17.7332889,41.0948334 18.0324695,40.4842763 18.4142149,39.5159051 L18.4142149,39.5159051 Z M15.2678163,40.4211247 L14.6075648,41.6738146 C13.503811,42.200124 12.5855945,42.5474583 11.8429116,42.7369133 C11.0898247,42.9263684 10.1922828,43 9.16068979,43 C6.46819741,43 4.27082698,42.178892 2.56871189,40.4947563 C0.85632622,38.8212366 0,36.673807 0,34.0316439 C0,31.3579049 0.897541921,29.2001316 2.71316692,27.5263397 C4.52879192,25.8420679 6.84994284,25 9.69716082,25 C10.5533537,25 11.4508956,25.0947275 12.4412729,25.2841826 C13.4109756,25.4736376 14.3085175,25.7262444 15.1130907,26.0526188 C14.9686357,26.7579034 14.8551258,27.3684605 14.7829649,27.8947699 C14.7313453,28.4210793 14.7004002,29.0316363 14.6591845,29.7789767 L13.9473133,29.7789767 L13.9473133,28.2105283 C13.9473133,27.9684015 13.9060976,27.7684665 13.8544779,27.652643 C13.7823171,27.5263397 13.6688072,27.3894203 13.4831364,27.2631169 C13.0292302,26.9262625 12.4824886,26.6631759 11.8738567,26.4526249 C11.0691502,26.1789222 10.2026867,26.0315229 9.29487424,26.0315229 C7.22141768,26.0315229 5.57078887,26.7157116 4.38447027,28.063129 C3.16720655,29.3999304 2.56884527,31.2316016 2.56884527,33.5473902 C2.56884527,36.0105782 3.26004192,37.9788965 4.65270579,39.4526173 C6.06604421,40.947298 7.91261433,41.6736785 10.2233613,41.6736785 C11.1002287,41.6736785 11.9873666,41.5368952 12.864234,41.2841523 C13.7617759,40.9999698 14.4735137,40.6315395 15.0616044,40.1788617 L15.2678163,40.4211247 Z" id="Shape"></path>
                <path d="M62.267707,46.5049888 L62.267707,46.5049888 L62.195558,45.993764 C62.195558,45.9069593 62.1852891,45.8586929 62.1439467,45.8008231 C62.1232756,45.7718883 62.0923355,45.7236219 62.0201864,45.6850836 C61.906695,45.5982789 61.7623969,45.5114742 61.6179654,45.4632078 C61.3704448,45.3957346 61.1538642,45.3378648 60.9166125,45.3378648 C60.5349293,45.3378648 60.2359308,45.4632078 59.9986791,45.6850836 C59.7614274,45.9262908 59.637667,46.2156398 59.637667,46.572462 C59.637667,46.8811424 59.7614274,47.122225 59.9780079,47.2572961 C60.2049907,47.411574 60.6072117,47.5177102 61.1950732,47.5853081 C61.8552171,47.6721127 62.3297206,47.8071838 62.597779,48.0097281 C62.8762397,48.2122724 63,48.5209529 63,48.9453729 C63,49.5144674 62.7627483,50.0063607 62.267707,50.4018458 C61.7726658,50.797331 61.174402,50.9998753 60.4626469,50.9998753 C60.2151263,50.9998753 59.9676056,50.961337 59.6890116,50.8937391 C59.4105509,50.8454727 59.152628,50.758668 58.9567186,50.6429284 C58.9773898,50.4017211 59.0083299,50.1991769 59.0083299,50.0063607 C59.029001,49.8327513 59.029001,49.630207 59.029001,49.3889998 L59.2869239,49.3889998 L59.2869239,49.3889998 L59.359073,49.9002245 C59.3797442,49.9870292 59.400282,50.044899 59.4106842,50.0931654 C59.4313554,50.1317037 59.4725644,50.1799701 59.5447135,50.2282365 C59.6684738,50.3343727 59.8335764,50.4211774 60.0192169,50.4886505 C60.2564686,50.5850586 60.5142581,50.6429284 60.7515099,50.6429284 C61.1950732,50.6429284 61.5560852,50.5175854 61.8550838,50.2763781 C62.1439467,50.0255675 62.2882448,49.716887 62.2882448,49.3407333 C62.2882448,48.9935146 62.1644845,48.7620354 61.9375017,48.5883013 C61.70025,48.4340234 61.2773578,48.3181591 60.6790941,48.250686 C60.0396213,48.1734847 59.5755202,48.0192068 59.3073284,47.797331 C59.0495388,47.5754552 58.9153763,47.2186331 58.9153763,46.75555 C58.9153763,46.2636568 59.1216879,45.8488401 59.5445801,45.5112247 C59.9674723,45.1736094 60.4729158,45 61.0814484,45 C61.3187002,45 61.5764897,45.0385383 61.8653527,45.1061362 C62.1644845,45.1544026 62.4222741,45.2412073 62.6595258,45.3569469 C62.6183168,45.5788226 62.5873767,45.7717635 62.5667055,45.9260414 C62.5460344,46.0900474 62.5254966,46.2829883 62.5254966,46.5047393 L62.267707,46.5047393 L62.267707,46.5049888 Z M52.1286968,50.8455974 L52.1286968,50.6526565 L52.3246062,50.5562484 C52.4483665,50.4983786 52.5309179,50.4309055 52.5411868,50.3633076 C52.5823957,50.2765029 52.6030669,50.1318284 52.6030669,49.8906211 L52.6030669,46.1673734 C52.6030669,45.8393614 52.5823957,45.6368172 52.5309179,45.5500125 C52.4690377,45.4632078 52.3659486,45.4246695 52.1596369,45.4149414 L51.7574159,45.3956099 L51.7574159,45.1544026 C52.2319193,45.1544026 52.6548115,45.1737341 53.0054213,45.1737341 C53.3457621,45.1737341 53.7686543,45.1544026 54.2431578,45.1544026 L54.2431578,45.3956099 L53.8409368,45.4149414 C53.6450274,45.4245448 53.531536,45.4632078 53.4799247,45.5500125 C53.4283135,45.6368172 53.4077757,45.8393614 53.4077757,46.1673734 L53.4077757,50.4694438 C53.8306678,50.4983786 54.1916799,50.5177102 54.5217518,50.5177102 C54.872495,50.5177102 55.274716,50.4983786 55.718146,50.450237 C55.8935175,50.4309055 56.0275467,50.3634323 56.0998292,50.2476927 C56.1514404,50.1319531 56.2133206,49.8522075 56.2647985,49.408456 L56.5741992,49.408456 C56.522588,49.6785982 56.481379,49.9100773 56.4607078,50.1126216 C56.4504389,50.3151659 56.4504389,50.5370417 56.4504389,50.8071838 L56.4504389,50.8071838 C56.2131872,50.8265153 55.8625775,50.8457221 55.3674028,50.8457221 C54.8928994,50.8457221 54.3978582,50.8457221 53.9130858,50.8263906 L53.9130858,50.8263906 C53.572745,50.8070591 53.2013307,50.8070591 52.8507209,50.8070591 C52.51038,50.8263906 52.2731283,50.8263906 52.1286968,50.8455974 L52.1286968,50.8455974 Z M46.1360572,46.1673734 L45.0530211,48.627089 L47.1777509,48.627089 L47.1777509,48.627089 L46.1360572,46.1673734 L46.1360572,46.1673734 Z M44.0422674,49.832876 L46.1876684,45.1063856 L46.4661291,45.1063856 L48.3330694,49.3409828 C48.590859,49.8907458 48.7559616,50.2283612 48.8385129,50.3634323 C48.9313332,50.4985034 49.0448246,50.5757047 49.158316,50.5853081 L49.4265078,50.6046396 L49.4265078,50.8458468 C48.9933467,50.8458468 48.6013946,50.8265153 48.2919938,50.8265153 C47.982593,50.8265153 47.6009098,50.8458468 47.1574798,50.8458468 L47.1574798,50.6046396 L47.580372,50.5853081 C47.7660125,50.5757047 47.869235,50.5370417 47.8897728,50.450237 C47.8897728,50.3634323 47.8381615,50.160888 47.6938634,49.832876 L47.3225825,48.9454976 L44.8884519,48.9454976 L44.8884519,48.9454976 L44.7028114,49.408456 C44.4655597,49.9196807 44.3520683,50.2476927 44.3520683,50.3826391 C44.3417994,50.4983786 44.4448885,50.5755799 44.6512002,50.5851833 L45.0843612,50.6045148 L45.0843612,50.8457221 C44.702678,50.8457221 44.3726061,50.8263906 44.1045477,50.8263906 C43.826087,50.8263906 43.496015,50.8457221 43.1143318,50.8457221 L43.1143318,50.6045148 L43.4031948,50.5851833 C43.5476263,50.5755799 43.6611177,50.5177102 43.7332667,50.4501122 C43.8050157,50.3633076 43.9185071,50.1607633 44.0422674,49.832876 L44.0422674,49.832876 Z M38.0393588,49.832876 L38.0393588,45.5501372 L36.7913535,45.5501372 C36.5850418,45.5501372 36.4612815,45.5694687 36.3994014,45.5984036 C36.3477901,45.6369419 36.31685,45.7334747 36.31685,45.8685458 L36.275641,46.4665752 L36.0177181,46.4665752 C36.0383893,46.2157645 36.0383893,45.9938888 36.0383893,45.8009479 C36.0177181,45.6369419 35.9971803,45.4150661 35.9662403,45.154652 L35.9662403,45.154652 L38.431311,45.1739835 L38.431311,45.1739835 L40.9067839,45.154652 L40.9067839,45.154652 C40.8758438,45.3958593 40.8346349,45.6176104 40.8346349,45.8009479 C40.8346349,45.9938888 40.8346349,46.2157645 40.855306,46.4665752 L40.5768453,46.4665752 L40.5665764,45.8685458 C40.5665764,45.7334747 40.5253674,45.6370666 40.4737562,45.5984036 C40.411876,45.5694687 40.2881157,45.5501372 40.0818041,45.5501372 L38.8440676,45.5501372 L38.8440676,49.832876 C38.8440676,50.160888 38.8543365,50.3634323 38.9162167,50.450237 C38.9678279,50.5370417 39.112126,50.5755799 39.3391088,50.5853081 L39.7929411,50.6046396 L39.7929411,50.8458468 C39.2669598,50.8458468 38.8233964,50.8265153 38.4417132,50.8265153 C38.0497611,50.8265153 37.6166,50.8458468 37.0802164,50.8458468 L37.0802164,50.6046396 L37.5340487,50.5853081 C37.7608981,50.5757047 37.8847918,50.5370417 37.946672,50.450237 C37.9980165,50.3633076 38.0393588,50.1607633 38.0393588,49.832876 L38.0393588,49.832876 Z M32.0467192,49.832876 L32.0467192,46.1674981 C32.0467192,45.8394862 32.026048,45.6369419 31.9745701,45.5501372 C31.91269,45.4633325 31.8096008,45.4247942 31.6032892,45.4150661 L31.2010682,45.3957346 L31.2010682,45.1545273 C31.6755716,45.1545273 32.0984638,45.1738588 32.4490736,45.1738588 C32.7998167,45.1738588 33.2123066,45.1545273 33.7074812,45.1545273 L33.7074812,45.3957346 L33.284589,45.4150661 C33.1092175,45.4246695 32.9751882,45.4633325 32.923577,45.5501372 C32.882368,45.6369419 32.8514279,45.8394862 32.8514279,46.1674981 L32.8514279,49.832876 C32.8514279,50.160888 32.882368,50.3634323 32.923577,50.450237 C32.9751882,50.5370417 33.1092175,50.5755799 33.284589,50.5853081 L33.7074812,50.6046396 L33.7074812,50.8458468 C33.21244,50.8458468 32.8100856,50.8265153 32.4490736,50.8265153 C32.0983304,50.8265153 31.6754382,50.8458468 31.2010682,50.8458468 L31.2010682,50.6046396 L31.6032892,50.5853081 C31.8096008,50.5757047 31.91269,50.5370417 31.9745701,50.450237 C32.026048,50.3633076 32.0467192,50.1607633 32.0467192,49.832876 L32.0467192,49.832876 Z M24.9503723,49.832876 L24.9503723,46.1674981 C24.9503723,45.8394862 24.9401033,45.6369419 24.8782232,45.5501372 C24.8266119,45.4633325 24.7132539,45.4247942 24.5172112,45.4150661 L24.1149901,45.3957346 L24.1149901,45.1545273 L25.3527266,45.1738588 L25.3527266,45.1738588 L27.0442954,45.1545273 C27.6321569,45.1545273 28.0654513,45.2606635 28.3955233,45.4921427 C28.7255952,45.7236219 28.8700267,46.0419057 28.8700267,46.4567224 C28.8700267,46.9294088 28.6946551,47.3441008 28.2924341,47.6817161 C27.900482,48.0097281 27.4054408,48.1833375 26.8381171,48.1833375 C26.6524766,48.1833375 26.4977762,48.164006 26.3121358,48.1254677 L26.2399867,47.8167872 C26.4153583,47.874657 26.6009987,47.9035919 26.8073104,47.9035919 C27.1683224,47.9035919 27.4674543,47.7878523 27.6840348,47.546645 C27.9212865,47.3247693 28.034778,47.0354203 28.034778,46.6784734 C28.034778,46.3023198 27.9212865,46.0128461 27.6840348,45.791095 C27.4467831,45.5692193 27.1167112,45.4630831 26.7144901,45.4630831 C26.363747,45.4437516 26.0543462,45.4824146 25.7552144,45.5692193 L25.7552144,49.8327513 C25.7552144,50.1607633 25.7964233,50.3633076 25.8377657,50.4501122 C25.8893769,50.5369169 26.0131373,50.5754552 26.1987777,50.5851833 L26.6216699,50.6045148 L26.6216699,50.8457221 C26.1266287,50.8457221 25.7242743,50.8263906 25.3529934,50.8263906 C25.0126525,50.8263906 24.5897603,50.8457221 24.1152569,50.8457221 L24.1152569,50.6045148 L24.5174779,50.5851833 C24.7133873,50.5755799 24.8268787,50.5369169 24.8784899,50.4501122 C24.9401033,50.3633076 24.9503723,50.1607633 24.9503723,49.832876 L24.9503723,49.832876 Z M21.0721935,46.5049888 L21.0721935,46.5049888 L21.0000445,45.993764 C21.0000445,45.9069593 20.9793733,45.8586929 20.9381643,45.8008231 C20.9278954,45.7718883 20.886553,45.7236219 20.814404,45.6850836 C20.6803748,45.5982789 20.5564811,45.5114742 20.3915118,45.4632078 C20.1749313,45.3957346 19.9479484,45.3378648 19.6901589,45.3378648 C19.3291469,45.3378648 19.030015,45.4632078 18.7927633,45.6850836 C18.5555116,45.9262908 18.4317513,46.2156398 18.4317513,46.572462 C18.4317513,46.8811424 18.5452427,47.122225 18.7824944,47.2572961 C18.9990749,47.411574 19.4012959,47.5177102 19.9892908,47.5853081 C20.6494347,47.6721127 21.1238048,47.8071838 21.4023988,48.0097281 C21.6705906,48.2122724 21.8046198,48.5209529 21.8046198,48.9453729 C21.8046198,49.5144674 21.5673681,50.0063607 21.0723269,50.4018458 C20.5772856,50.797331 19.968753,50.9998753 19.2569978,50.9998753 C19.0197461,50.9998753 18.7619566,50.961337 18.4833625,50.8937391 C18.2151707,50.8454727 17.9573812,50.758668 17.7510695,50.6429284 C17.7717407,50.4017211 17.7922785,50.1991769 17.8129497,50.0063607 C17.8232186,49.8327513 17.8232186,49.630207 17.8232186,49.3889998 L18.0811415,49.3889998 L18.0811415,49.3889998 L18.1532906,49.9002245 C18.1739617,49.9870292 18.1739617,50.044899 18.2151707,50.0931654 C18.2254396,50.1317037 18.266782,50.1799701 18.3182599,50.2282365 C18.4729602,50.3343727 18.6380629,50.4211774 18.8030322,50.4886505 C19.0505528,50.5850586 19.2980734,50.6429284 19.5353252,50.6429284 C19.9891574,50.6429284 20.3604384,50.5175854 20.6493013,50.2763781 C20.9381643,50.0255675 21.0928647,49.716887 21.0928647,49.3407333 C21.0928647,48.9935146 20.9588355,48.7620354 20.7215838,48.5883013 C20.5050032,48.4340234 20.082111,48.3181591 19.4735784,48.250686 C18.8341056,48.1734847 18.3802734,48.0192068 18.1018127,47.797331 C17.8438898,47.5754552 17.7201295,47.2186331 17.7201295,46.75555 C17.7201295,46.2636568 17.9160388,45.8488401 18.338931,45.5112247 C18.7618232,45.1736094 19.2775356,45 19.8757994,45 C20.1130511,45 20.3708406,45.0385383 20.6699725,45.1061362 C20.9588355,45.1544026 21.216625,45.2412073 21.4538767,45.3569469 C21.4229366,45.5788226 21.3817277,45.7717635 21.3610565,45.9260414 C21.3403853,46.0900474 21.3301164,46.2829883 21.3301164,46.5047393 L21.0721935,46.5047393 L21.0721935,46.5049888 Z M12.3153513,50.6526565 C12.9857641,50.6526565 13.5221477,50.4211774 13.9036975,49.9580943 C14.2956496,49.4951359 14.4710212,48.8681716 14.4710212,48.0772013 C14.4710212,47.2379646 14.2751118,46.572462 13.8522196,46.080444 C13.4086563,45.5981542 12.841466,45.3473435 12.1090396,45.3473435 C11.4488957,45.3473435 10.9229144,45.5498878 10.5309623,45.9743078 C10.1492791,46.3891245 9.95336973,46.9484909 9.95336973,47.671988 C9.95336973,48.5883013 10.1699503,49.3117985 10.5928425,49.8519581 C11.0157346,50.3826391 11.5933272,50.6526565 12.3153513,50.6526565 L12.3153513,50.6526565 Z M12.0574284,51 C11.1807039,51 10.448411,50.7202544 9.89135621,50.1607633 C9.32403254,49.6012721 9.05584074,48.8778997 9.05584074,47.9903966 C9.05584074,47.122225 9.34470371,46.3988526 9.96350527,45.8393614 C10.5927091,45.2798703 11.3971511,45.0001247 12.3666958,45.0001247 C13.2640914,45.0001247 13.9757132,45.2605388 14.5430369,45.7525567 C15.1206295,46.2637815 15.3888213,46.9196807 15.3888213,47.7010476 C15.3888213,48.6752307 15.0794205,49.466201 14.4604856,50.0739586 C13.8522196,50.6913195 13.0476442,51 12.0574284,51 L12.0574284,51 Z M0.845784372,49.832876 L0.845784372,46.1674981 C0.845784372,45.8394862 0.825113199,45.6369419 0.773635311,45.5501372 C0.732426328,45.4633325 0.608666016,45.4247942 0.402354376,45.4150661 L0,45.3957346 L0,45.1545273 C0.474503437,45.1545273 0.897395623,45.1738588 1.24800539,45.1738588 C1.59861515,45.1738588 2.01123843,45.1545273 2.50641304,45.1545273 L2.50641304,45.3957346 L2.09378976,45.4150661 C1.90814929,45.4246695 1.77398671,45.4633325 1.72250882,45.5501372 C1.68129984,45.6369419 1.67089757,45.8394862 1.67089757,46.1674981 L1.67089757,47.6143677 L3.37273522,47.652906 L5.09524404,47.6143677 L5.09524404,46.1674981 C5.09524404,45.8394862 5.05403506,45.6369419 5.02309498,45.5501372 C4.96121483,45.4633325 4.83745451,45.4247942 4.65181405,45.4150661 L4.22892186,45.3957346 L4.22892186,45.1545273 C4.7136942,45.1545273 5.12631748,45.1738588 5.47692725,45.1738588 C5.84820818,45.1738588 6.25056256,45.1545273 6.7456038,45.1545273 L6.7456038,45.3957346 L6.34338279,45.4150661 C6.13707115,45.4246695 6.01331084,45.4633325 5.97210186,45.5501372 C5.9204906,45.6369419 5.89995279,45.8394862 5.89995279,46.1674981 L5.89995279,49.832876 C5.89995279,50.160888 5.92062397,50.3634323 5.97210186,50.450237 C6.01331084,50.5370417 6.13707115,50.5755799 6.34338279,50.5853081 L6.7456038,50.6046396 L6.7456038,50.8458468 C6.27110037,50.8458468 5.84820818,50.8265153 5.49759842,50.8265153 C5.14685529,50.8265153 4.72396311,50.8458468 4.22892186,50.8458468 L4.22892186,50.6046396 L4.65181405,50.5853081 C4.83745451,50.5757047 4.97161709,50.5370417 5.02309498,50.450237 C5.05403506,50.3634323 5.09524404,50.160888 5.09524404,49.832876 L5.09524404,48.0098528 C4.45577131,47.9905213 3.88844764,47.9905213 3.37273522,47.9905213 C2.8570228,47.9905213 2.28969913,47.9905213 1.67089757,48.0098528 L1.67089757,49.832876 C1.67089757,50.160888 1.69156874,50.3634323 1.72250882,50.450237 C1.77412007,50.5370417 1.90814929,50.5755799 2.09378976,50.5853081 L2.51668194,50.6046396 L2.51668194,50.8458468 C2.0319096,50.8458468 1.61928632,50.8265153 1.26867656,50.8265153 C0.897395623,50.8265153 0.495041247,50.8458468 0,50.8458468 L0,50.6046396 L0.402221013,50.5853081 C0.608532654,50.5757047 0.732292965,50.5370417 0.773501949,50.450237 C0.825113199,50.3633076 0.845784372,50.1607633 0.845784372,49.832876 L0.845784372,49.832876 Z" id="Shape"></path>
                <path d="M33,0 C32.7510677,0 32.5520764,0.199662087 32.5520764,0.449142897 L32.5520764,4.47181124 C32.5520764,4.71135412 32.7511965,4.9110162 33,4.9110162 C33.2488035,4.9110162 33.4479236,4.71135412 33.4479236,4.47181124 L33.4479236,0.449142897 C33.4479236,0.199662087 33.2488035,0 33,0 L33,0 Z M35.3294602,5.38029309 C35.3792724,5.40029802 35.4389956,5.41023595 35.4987187,5.41023595 C35.6679772,5.41023595 35.8372357,5.31046944 35.9068698,5.14075021 L37.4498894,1.41751047 C37.5394741,1.18790553 37.4399785,0.928357719 37.2109968,0.838529139 C36.9820152,0.74870056 36.723172,0.848467071 36.6335873,1.07807202 L35.0905676,4.80131176 C34.9909432,5.02084971 35.1004786,5.28039752 35.3294602,5.38029309 L35.3294602,5.38029309 Z M30.6705398,16.619836 C30.4415581,16.5300074 30.1827149,16.6398409 30.0931302,16.8593788 L28.5501106,20.5826186 C28.4605259,20.8022856 28.5600215,21.0617043 28.7890032,21.1615999 C28.8487263,21.1816049 28.9084495,21.1915428 28.9582617,21.1915428 C29.1374311,21.1915428 29.2967786,21.0917763 29.3664127,20.922057 L30.9094324,17.1988173 C31.0090568,16.9792794 30.8995214,16.7197315 30.6705398,16.619836 L30.6705398,16.619836 Z M42.9249833,14.6234732 L39.2019401,13.0863204 C38.9729584,12.9964918 38.7141152,13.0962583 38.6245305,13.3258633 C38.5250348,13.5554682 38.6344414,13.815016 38.8634231,13.9048446 L42.5765554,15.4520644 C42.6362785,15.4720694 42.6960017,15.4820073 42.7458139,15.4820073 C42.9249833,15.4820073 43.0942418,15.3822408 43.1638759,15.2125216 C43.2534606,14.9827875 43.1439253,14.7233688 42.9249833,14.6234732 L42.9249833,14.6234732 Z M23.0750167,7.36658884 L26.7980599,8.91380868 C26.8478721,8.93381361 26.9075953,8.94375154 26.9673184,8.94375154 C27.1365769,8.94375154 27.3058354,8.84398503 27.3754695,8.6742658 C27.4749652,8.44466085 27.3655586,8.18511305 27.1365769,8.08534654 L23.4234446,6.54819369 C23.194463,6.45836511 22.9356198,6.56819862 22.8361241,6.78773657 C22.7465394,7.01734152 22.8560747,7.27676026 23.0750167,7.36658884 L23.0750167,7.36658884 Z M38.6244018,8.6742658 C38.6940359,8.84398503 38.8533834,8.94375154 39.0325529,8.94375154 C39.092276,8.94375154 39.1420882,8.93381361 39.2018114,8.91380868 L42.9248546,7.36658884 C43.1437966,7.27676026 43.2533319,7.01721245 43.1637472,6.7876075 C43.0642515,6.56806955 42.8054083,6.45823605 42.5764267,6.54806463 L38.8632944,8.08521747 C38.6344414,8.18511305 38.5249061,8.44466085 38.6244018,8.6742658 L38.6244018,8.6742658 Z M27.3754695,13.3258633 C27.2858848,13.0962583 27.0270416,12.9964918 26.7980599,13.0863204 L23.0750167,14.6234732 C22.8560747,14.7232397 22.7465394,14.9827875 22.8361241,15.2123925 C22.9057582,15.3821117 23.0750167,15.4818782 23.2442752,15.4818782 C23.3039983,15.4818782 23.3637215,15.4719403 23.4234446,15.4519354 L27.1365769,13.9047155 C27.3655586,13.815016 27.4750939,13.5554682 27.3754695,13.3258633 L27.3754695,13.3258633 Z M35.9067411,16.8593788 C35.8171564,16.6398409 35.5583131,16.5300074 35.3293315,16.619836 C35.1003499,16.7196025 34.9908145,16.9791503 35.0904389,17.1988173 L36.6334585,20.922057 C36.7030926,21.0917763 36.8624402,21.1915428 37.0416096,21.1915428 C37.0914218,21.1915428 37.151145,21.1816049 37.2108681,21.1615999 C37.4398498,21.0618334 37.5393454,20.8022856 37.4497607,20.5826186 L35.9067411,16.8593788 Z M29.3665415,1.07807202 C29.2769567,0.848467071 29.0181135,0.74870056 28.7891319,0.838529139 C28.5601502,0.928357719 28.4606546,1.18790553 28.5502393,1.41751047 L30.0932589,5.14075021 C30.162893,5.31046944 30.3222406,5.41023595 30.50141,5.41023595 C30.5611331,5.41023595 30.6109453,5.40029802 30.6706685,5.38029309 C30.8996501,5.28052658 31.0091855,5.02097877 30.9095611,4.80131176 L29.3665415,1.07807202 Z M37.3004528,6.69790799 C37.3900376,6.77779864 37.4995729,6.82761736 37.6190192,6.82761736 C37.7285545,6.82761736 37.8480008,6.77766957 37.9276746,6.69790799 L40.7746925,3.85307818 C40.953862,3.67342102 40.953862,3.39386828 40.7746925,3.22427812 C40.6054341,3.04462096 40.3267689,3.04462096 40.1475995,3.22427812 L37.3005816,6.06910793 C37.1311943,6.2386981 37.1311943,6.51812177 37.3004528,6.69790799 L37.3004528,6.69790799 Z M28.6995472,15.3022211 C28.5203777,15.1325018 28.2415839,15.1325018 28.0724541,15.3022211 L25.2254362,18.1470509 C25.0462667,18.3167701 25.0462667,18.6062608 25.2254362,18.7758509 C25.3051099,18.8656795 25.4245562,18.9055603 25.5340916,18.9055603 C25.6535379,18.9055603 25.7630732,18.8656795 25.8526579,18.7758509 L28.6996759,15.9310211 C28.8686769,15.751493 28.8686769,15.4719403 28.6995472,15.3022211 L28.6995472,15.3022211 Z M37.9276746,15.3022211 C37.7584161,15.1325018 37.479751,15.1325018 37.3005816,15.3022211 C37.1313231,15.4719403 37.1313231,15.751364 37.3005816,15.9310211 L40.1475995,18.7758509 C40.2371842,18.8656795 40.3467196,18.9055603 40.4661659,18.9055603 C40.5757012,18.9055603 40.6851078,18.8656795 40.7748213,18.7758509 C40.9539907,18.6061317 40.9539907,18.316641 40.7748213,18.1470509 L37.9276746,15.3022211 Z M28.0723254,6.69790799 C28.1519992,6.77779864 28.2714455,6.82761736 28.3809808,6.82761736 C28.5004271,6.82761736 28.6099624,6.77766957 28.6995472,6.69790799 C28.8688057,6.51825083 28.8688057,6.2386981 28.6995472,6.06910793 L25.8525292,3.22427812 C25.6733598,3.04462096 25.3945659,3.04462096 25.2254362,3.22427812 C25.0462667,3.39399735 25.0462667,3.67342102 25.2254362,3.85307818 L28.0723254,6.69790799 Z M43.5520764,10.5508571 L39.5302887,10.5508571 C39.2813564,10.5508571 39.0823651,10.7505192 39.0823651,11 C39.0823651,11.2395429 39.2814851,11.439205 39.5302887,11.439205 L43.5520764,11.439205 C43.8010086,11.439205 44,11.2395429 44,11 C44,10.7505192 43.8010086,10.5508571 43.5520764,10.5508571 L43.5520764,10.5508571 Z M26.9176349,11 C26.9176349,10.7505192 26.7185149,10.5508571 26.4697113,10.5508571 L22.4479236,10.5508571 C22.1989914,10.5508571 22,10.7505192 22,11 C22,11.2395429 22.1991201,11.439205 22.4479236,11.439205 L26.4697113,11.439205 C26.7185149,11.439205 26.9176349,11.2396719 26.9176349,11 L26.9176349,11 Z M33,17.0889838 C32.7510677,17.0889838 32.5520764,17.2785789 32.5520764,17.5281888 L32.5520764,21.5508571 C32.5520764,21.800467 32.7511965,22 33,22 C33.2488035,22 33.4479236,21.8003379 33.4479236,21.5508571 L33.4479236,17.5281888 C33.4479236,17.278708 33.2488035,17.0889838 33,17.0889838 L33,17.0889838 Z" id="Shape"></path>
                <path d="M30.9204082,11.9330165 L36.9800913,11.9330165 C36.9899814,11.796771 37,11.6508387 37,11.5049063 C37,11.1935421 36.9702012,10.8821778 36.9007136,10.5903131 C36.4835308,8.54700867 34.6655487,7 32.5,7 C30.0165549,7 28,9.02380486 28,11.5049063 C28,13.9860078 30.0165549,16 32.5,16 C34.1788783,16 35.6490367,15.0757199 36.4139147,13.7135169 L35.1125303,12.9837294 C34.6059512,13.8886357 33.6224633,14.5112385 32.4998716,14.5112385 C30.840902,14.5112385 29.4899386,13.1588482 29.4899386,11.5047805 C29.4899386,9.841026 30.840902,8.49832262 32.4998716,8.49832262 C33.8409448,8.49832262 34.9734266,9.37404249 35.3608106,10.5901873 L32.3011703,10.5901873 C31.5461824,10.5903131 30.9204082,11.1936679 30.9204082,11.9330165 L30.9204082,11.9330165 Z" id="Path"></path>
            </g>
        </g>
    </g>
</svg>