<?xml version="1.0" encoding="UTF-8"?>
<svg width="92px" height="18px" viewBox="0 0 92 18" version="1.1" xmlns="http://www.w3.org/2000/svg" xmlns:xlink="http://www.w3.org/1999/xlink">
    <title>YESLABS</title>
    <g id="Page-1" stroke="none" stroke-width="1" fill="none" fill-rule="evenodd">
        <g id="Artboard-Copy-4" transform="translate(-345.000000, -117.000000)" fill="#061F4A" fill-rule="nonzero">
            <path d="M350.61499,134 L351.917725,126.632812 L358.802002,117.547363 L356.263916,117.547363 L351.08667,124.566406 L348.290283,117.547363 L345.943115,117.547363 L349.671631,126.632812 L348.368896,134 L350.61499,134 Z M367.359619,134 L367.718994,131.978516 L360.261963,131.978516 L361.306396,126.048828 L366.741943,126.048828 L367.078857,124.139648 L361.643311,124.139648 L362.451904,119.568848 L370.02124,119.568848 L370.391846,117.547363 L360.452881,117.547363 L357.544189,134 L367.359619,134 Z M374.019287,134.280762 C375.658936,134.280762 376.978516,133.88208 377.978027,133.084717 C378.977539,132.287354 379.477295,131.143717 379.477295,129.653809 C379.477295,128.695475 379.258301,127.855062 378.820312,127.132568 C378.382324,126.410075 377.697266,125.700684 376.765137,125.004395 C375.833008,124.308105 375.217204,123.830811 374.917725,123.57251 C374.618245,123.314209 374.380534,123.024089 374.20459,122.702148 C374.028646,122.380208 373.940674,122.047038 373.940674,121.702637 C373.940674,120.886556 374.217692,120.261393 374.771729,119.827148 C375.325765,119.392904 376.08195,119.175781 377.040283,119.175781 C377.467041,119.175781 377.92749,119.250651 378.421631,119.400391 C378.915771,119.55013 379.26766,119.7111 379.477295,119.883301 L379.477295,119.883301 L380.117432,117.70459 C379.563395,117.412598 378.444092,117.266602 376.759521,117.266602 C375.269613,117.266602 374.05485,117.687744 373.115234,118.530029 C372.175618,119.372314 371.705811,120.534668 371.705811,122.01709 C371.705811,122.937988 371.93042,123.705404 372.379639,124.319336 C372.828857,124.933268 373.545736,125.595866 374.530273,126.307129 C375.514811,127.018392 376.2111,127.61735 376.619141,128.104004 C377.027181,128.590658 377.231201,129.152181 377.231201,129.788574 C377.231201,130.552246 376.96167,131.151204 376.422607,131.585449 C375.883545,132.019694 375.168538,132.236816 374.277588,132.236816 C373.686117,132.236816 373.070312,132.146973 372.430176,131.967285 C371.790039,131.787598 371.309001,131.570475 370.987061,131.315918 L370.987061,131.315918 L370.313232,133.472168 C370.732503,133.681803 371.309001,133.868978 372.042725,134.033691 C372.776449,134.198405 373.435303,134.280762 374.019287,134.280762 Z M397.996338,134 L398.355713,131.978516 L390.921143,131.978516 L393.470459,117.547363 L391.179443,117.547363 L388.270752,134 L397.996338,134 Z M401.129639,134 L403.07251,130.529785 L408.968506,130.529785 L409.485107,134 L412.090576,134 L408.83374,117.322754 L408.238525,117.322754 L398.614014,134 L401.129639,134 Z M408.732666,128.878906 L403.959717,128.878906 L407.721924,121.848633 L408.732666,128.878906 Z M417.312744,134.134766 C420.150309,134.134766 422.218587,133.668701 423.517578,132.736572 C424.816569,131.804443 425.466064,130.409993 425.466064,128.553223 C425.466064,126.374512 424.552653,125.116699 422.72583,124.779785 C423.556885,124.674967 424.277507,124.261312 424.887695,123.538818 C425.497884,122.816325 425.802979,122.02832 425.802979,121.174805 C425.802979,118.591797 423.867594,117.300293 419.996826,117.300293 C419.053467,117.300293 418.024007,117.38265 416.908447,117.547363 L416.908447,117.547363 L413.999756,134 C415.414795,134.089844 416.519124,134.134766 417.312744,134.134766 Z M419.749756,123.982422 C419.345459,123.982422 418.817627,123.956217 418.16626,123.903809 L418.16626,123.903809 L418.907471,119.344238 C419.663656,119.276855 420.225179,119.243164 420.592041,119.243164 C422.538656,119.243164 423.511963,119.86084 423.511963,121.096191 C423.511963,123.020345 422.257894,123.982422 419.749756,123.982422 Z M418.020264,132.203125 C417.526123,132.203125 417.073161,132.16569 416.661377,132.09082 L416.661377,132.09082 L417.784424,125.779297 C418.293538,125.726888 418.765218,125.700684 419.199463,125.700684 C421.827393,125.700684 423.141357,126.733887 423.141357,128.800293 C423.141357,129.878418 422.660319,130.715088 421.698242,131.310303 C420.736165,131.905518 419.510173,132.203125 418.020264,132.203125 Z M430.721924,134.280762 C432.361572,134.280762 433.681152,133.88208 434.680664,133.084717 C435.680176,132.287354 436.179932,131.143717 436.179932,129.653809 C436.179932,128.695475 435.960938,127.855062 435.522949,127.132568 C435.084961,126.410075 434.399902,125.700684 433.467773,125.004395 C432.535645,124.308105 431.91984,123.830811 431.620361,123.57251 C431.320882,123.314209 431.083171,123.024089 430.907227,122.702148 C430.731283,122.380208 430.643311,122.047038 430.643311,121.702637 C430.643311,120.886556 430.920329,120.261393 431.474365,119.827148 C432.028402,119.392904 432.784587,119.175781 433.74292,119.175781 C434.169678,119.175781 434.630127,119.250651 435.124268,119.400391 C435.618408,119.55013 435.970296,119.7111 436.179932,119.883301 L436.179932,119.883301 L436.820068,117.70459 C436.266032,117.412598 435.146729,117.266602 433.462158,117.266602 C431.972249,117.266602 430.757487,117.687744 429.817871,118.530029 C428.878255,119.372314 428.408447,120.534668 428.408447,122.01709 C428.408447,122.937988 428.633057,123.705404 429.082275,124.319336 C429.531494,124.933268 430.248372,125.595866 431.23291,126.307129 C432.217448,127.018392 432.913737,127.61735 433.321777,128.104004 C433.729818,128.590658 433.933838,129.152181 433.933838,129.788574 C433.933838,130.552246 433.664307,131.151204 433.125244,131.585449 C432.586182,132.019694 431.871175,132.236816 430.980225,132.236816 C430.388753,132.236816 429.772949,132.146973 429.132812,131.967285 C428.492676,131.787598 428.011637,131.570475 427.689697,131.315918 L427.689697,131.315918 L427.015869,133.472168 C427.43514,133.681803 428.011637,133.868978 428.745361,134.033691 C429.479085,134.198405 430.137939,134.280762 430.721924,134.280762 Z" id="YESLABS"></path>
        </g>
    </g>
</svg>