<?xml version="1.0" encoding="UTF-8"?>
<svg width="117px" height="31px" viewBox="0 0 117 31" version="1.1" xmlns="http://www.w3.org/2000/svg" xmlns:xlink="http://www.w3.org/1999/xlink">
    <title>BHASKARAMEDICALCOLLEGE</title>
    <g id="Page-1" stroke="none" stroke-width="1" fill="none" fill-rule="evenodd">
        <g id="Artboard-Copy-4" transform="translate(-561.000000, -108.000000)" fill="#061F4A" fill-rule="nonzero">
            <path d="M567.624,126 C569.448667,126 570.844,125.754667 571.81,125.264 C572.776,124.773333 573.412333,124.16 573.719,123.424 C574.025667,122.688 574.179,121.829333 574.179,120.848 C574.179,119.912667 573.922167,119.1 573.4085,118.41 C572.894833,117.72 572.093667,117.237 571.005,116.961 C571.741,116.623667 572.277667,116.113833 572.615,115.4315 C572.952333,114.749167 573.121,114.024667 573.121,113.258 C573.121,112.108 572.722333,111.126667 571.925,110.314 C571.127667,109.501333 569.517667,109.095 567.095,109.095 L567.095,109.095 L562.794,109.095 L562.794,126 L567.624,126 Z M567.509,116.271 L565.324,116.271 L565.324,111.28 L567.394,111.28 C569.479333,111.28 570.522,112.008333 570.522,113.465 C570.522,114.277667 570.292,114.9485 569.832,115.4775 C569.372,116.0065 568.597667,116.271 567.509,116.271 L567.509,116.271 Z M567.969,123.838 L565.324,123.838 L565.324,118.318 L568.176,118.318 C569.295333,118.318 570.131,118.540333 570.683,118.985 C571.235,119.429667 571.511,120.058333 571.511,120.871 C571.511,121.729667 571.2695,122.438833 570.7865,122.9985 C570.3035,123.558167 569.364333,123.838 567.969,123.838 L567.969,123.838 Z M579.745,126 L579.745,118.157 L585.702,118.157 L585.702,126 L588.278,126 L588.278,109.095 L585.702,109.095 L585.702,115.995 L579.745,115.995 L579.745,109.095 L577.169,109.095 L577.169,126 L579.745,126 Z M592.556,126 L594.005,122.688 L601.756,122.688 L603.205,126 L606.172,126 L598.03,109.072 L597.777,109.072 L589.681,126 L592.556,126 Z M600.744,120.365 L595.04,120.365 L596.88,116.271 L597.892,113.971 L597.938,113.971 L598.927,116.294 L600.744,120.365 Z M611.485,126.23 C612.527667,126.23 613.459167,126.046 614.2795,125.678 C615.099833,125.31 615.743833,124.765667 616.2115,124.045 C616.679167,123.324333 616.913,122.450333 616.913,121.423 C616.913,120.763667 616.775,120.158 616.499,119.606 C616.223,119.054 615.862667,118.578667 615.418,118.18 C615.096,117.873333 614.751,117.608833 614.383,117.3865 C614.015,117.164167 613.486,116.861333 612.796,116.478 C612.075333,116.079333 611.504167,115.742 611.0825,115.466 C610.660833,115.19 610.312,114.864167 610.036,114.4885 C609.76,114.112833 609.622,113.687333 609.622,113.212 C609.622,112.537333 609.8405,112.0275 610.2775,111.6825 C610.7145,111.3375 611.316333,111.165 612.083,111.165 C612.681,111.165 613.2445,111.276167 613.7735,111.4985 C614.3025,111.720833 614.712667,111.985333 615.004,112.292 L615.004,112.292 L616.223,110.199 C615.119,109.294333 613.777333,108.842 612.198,108.842 C610.726,108.842 609.507,109.229167 608.541,110.0035 C607.575,110.777833 607.092,111.893333 607.092,113.35 C607.092,115.113333 607.835667,116.493333 609.323,117.49 C609.645,117.704667 610.243,118.026667 611.117,118.456 C611.853,118.824 612.420333,119.1345 612.819,119.3875 C613.217667,119.6405 613.555,119.958667 613.831,120.342 C614.107,120.725333 614.245,121.177667 614.245,121.699 C614.245,122.373667 613.988167,122.902667 613.4745,123.286 C612.960833,123.669333 612.297667,123.861 611.485,123.861 C610.856333,123.861 610.200833,123.703833 609.5185,123.3895 C608.836167,123.075167 608.334,122.772333 608.012,122.481 L608.012,122.481 L606.793,124.666 C607.191667,125.064667 607.843333,125.425 608.748,125.747 C609.652667,126.069 610.565,126.23 611.485,126.23 Z M622.203,126 L622.203,120.135 L623.583,118.433 L628.758,126 L631.909,126 L625.262,116.524 L631.081,109.095 L627.999,109.095 L622.203,116.639 L622.203,109.095 L619.673,109.095 L619.673,126 L622.203,126 Z M634.071,126 L635.52,122.688 L643.271,122.688 L644.72,126 L647.687,126 L639.545,109.072 L639.292,109.072 L631.196,126 L634.071,126 Z M642.259,120.365 L636.555,120.365 L638.395,116.271 L639.407,113.971 L639.453,113.971 L640.442,116.294 L642.259,120.365 Z M651.62,126 L651.62,119.652 L652.264,119.652 C652.816,119.652 653.444667,119.636667 654.15,119.606 L654.15,119.606 L657.554,126 L660.521,126 L656.496,119.054 C657.538667,118.609333 658.3245,117.976833 658.8535,117.1565 C659.3825,116.336167 659.647,115.358667 659.647,114.224 C659.647,112.414667 659.018333,111.1075 657.761,110.3025 C656.503667,109.4975 654.901333,109.095 652.954,109.095 L652.954,109.095 L649.113,109.095 L649.113,126 L651.62,126 Z M653.253,117.559 L651.62,117.559 L651.62,111.234 L653.161,111.234 C655.844333,111.234 657.186,112.238333 657.186,114.247 C657.186,115.151667 656.906167,115.929833 656.3465,116.5815 C655.786833,117.233167 654.755667,117.559 653.253,117.559 L653.253,117.559 Z M663.856,126 L665.305,122.688 L673.056,122.688 L674.505,126 L677.472,126 L669.33,109.072 L669.077,109.072 L660.981,126 L663.856,126 Z M672.044,120.365 L666.34,120.365 L668.18,116.271 L669.192,113.971 L669.238,113.971 L670.227,116.294 L672.044,120.365 Z M562.32,138 L563,134.57 L563.21,133.53 L563.67,134.57 L565.44,138 L565.5,138 L567.28,134.57 L567.68,133.53 L567.9,134.57 L568.64,138 L569.74,138 L568.16,130.65 L568.05,130.65 L566.07,134.62 L565.47,135.95 L564.87,134.62 L562.85,130.65 L562.73,130.65 L561.21,138 L562.32,138 Z M576.674167,138 L576.674167,137.01 L574.234167,137.01 L574.234167,134.66 L575.934167,134.66 L575.934167,133.66 L574.234167,133.66 L574.234167,131.63 L576.344167,131.63 L576.344167,130.65 L573.124167,130.65 L573.124167,138 L576.674167,138 Z M582.038334,138 C582.985001,138 583.750001,137.82 584.333334,137.46 C584.916667,137.1 585.335001,136.635 585.588334,136.065 C585.841667,135.495 585.968334,134.873333 585.968334,134.2 C585.968334,133.233333 585.673334,132.4 585.083334,131.7 C584.493334,131 583.458334,130.65 581.978334,130.65 L581.978334,130.65 L580.208334,130.65 L580.208334,138 L582.038334,138 Z M582.158334,137.01 L581.328334,137.01 L581.328334,131.63 L582.158334,131.63 C583.071667,131.63 583.738334,131.873333 584.158334,132.36 C584.578334,132.846667 584.788334,133.476667 584.788334,134.25 C584.788334,135.043333 584.580001,135.701667 584.163334,136.225 C583.746667,136.748333 583.078334,137.01 582.158334,137.01 L582.158334,137.01 Z M590.742501,138 L590.742501,130.65 L589.622501,130.65 L589.622501,138 L590.742501,138 Z M598.176668,138.07 C598.576668,138.07 598.971668,138.008333 599.361668,137.885 C599.751668,137.761667 600.020001,137.633333 600.166668,137.5 L600.166668,137.5 L599.836668,136.55 C599.290001,136.883333 598.723335,137.05 598.136668,137.05 C597.630001,137.05 597.193335,136.93 596.826668,136.69 C596.460001,136.45 596.181668,136.123333 595.991668,135.71 C595.801668,135.296667 595.706668,134.836667 595.706668,134.33 C595.706668,133.776667 595.813335,133.29 596.026668,132.87 C596.240001,132.45 596.533335,132.126667 596.906668,131.9 C597.280001,131.673333 597.696668,131.56 598.156668,131.56 C598.810001,131.56 599.340001,131.74 599.746668,132.1 L599.746668,132.1 L600.236668,131.1 C600.176668,131.04 600.053335,130.965 599.866668,130.875 C599.680001,130.785 599.445001,130.705 599.161668,130.635 C598.878335,130.565 598.573335,130.53 598.246668,130.53 C597.520001,130.53 596.870001,130.691667 596.296668,131.015 C595.723335,131.338333 595.278335,131.786667 594.961668,132.36 C594.645001,132.933333 594.486668,133.583333 594.486668,134.31 C594.486668,134.996667 594.633335,135.625 594.926668,136.195 C595.220001,136.765 595.645001,137.22 596.201668,137.56 C596.758335,137.9 597.416668,138.07 598.176668,138.07 Z M604.040835,138 L604.670835,136.56 L608.040835,136.56 L608.670835,138 L609.960835,138 L606.420835,130.64 L606.310835,130.64 L602.790835,138 L604.040835,138 Z M607.600835,135.55 L605.120835,135.55 L605.920835,133.77 L606.360835,132.77 L606.380835,132.77 L606.810835,133.78 L607.600835,135.55 Z M616.225002,138 L616.225002,137 L614.115002,137 L614.115002,130.65 L612.985002,130.65 L612.985002,138 L616.225002,138 Z M627.903336,138.07 C628.303336,138.07 628.698336,138.008333 629.088336,137.885 C629.478336,137.761667 629.746669,137.633333 629.893336,137.5 L629.893336,137.5 L629.563336,136.55 C629.016669,136.883333 628.450003,137.05 627.863336,137.05 C627.356669,137.05 626.920003,136.93 626.553336,136.69 C626.186669,136.45 625.908336,136.123333 625.718336,135.71 C625.528336,135.296667 625.433336,134.836667 625.433336,134.33 C625.433336,133.776667 625.540003,133.29 625.753336,132.87 C625.966669,132.45 626.260003,132.126667 626.633336,131.9 C627.006669,131.673333 627.423336,131.56 627.883336,131.56 C628.536669,131.56 629.066669,131.74 629.473336,132.1 L629.473336,132.1 L629.963336,131.1 C629.903336,131.04 629.780003,130.965 629.593336,130.875 C629.406669,130.785 629.171669,130.705 628.888336,130.635 C628.605003,130.565 628.300003,130.53 627.973336,130.53 C627.246669,130.53 626.596669,130.691667 626.023336,131.015 C625.450003,131.338333 625.005003,131.786667 624.688336,132.36 C624.371669,132.933333 624.213336,133.583333 624.213336,134.31 C624.213336,134.996667 624.360003,135.625 624.653336,136.195 C624.946669,136.765 625.371669,137.22 625.928336,137.56 C626.485003,137.9 627.143336,138.07 627.903336,138.07 Z M636.537503,138.1 C637.20417,138.1 637.81917,137.945 638.382503,137.635 C638.945836,137.325 639.39417,136.883333 639.727503,136.31 C640.060836,135.736667 640.227503,135.07 640.227503,134.31 C640.227503,133.543333 640.060836,132.875 639.727503,132.305 C639.39417,131.735 638.945836,131.296667 638.382503,130.99 C637.81917,130.683333 637.20417,130.53 636.537503,130.53 C635.870836,130.53 635.255836,130.683333 634.692503,130.99 C634.12917,131.296667 633.680836,131.735 633.347503,132.305 C633.01417,132.875 632.847503,133.543333 632.847503,134.31 C632.847503,135.07 633.01417,135.736667 633.347503,136.31 C633.680836,136.883333 634.12917,137.325 634.692503,137.635 C635.255836,137.945 635.870836,138.1 636.537503,138.1 Z M636.537503,137.09 C636.090836,137.09 635.675836,136.981667 635.292503,136.765 C634.90917,136.548333 634.60417,136.231667 634.377503,135.815 C634.150836,135.398333 634.037503,134.9 634.037503,134.32 C634.037503,133.733333 634.147503,133.231667 634.367503,132.815 C634.587503,132.398333 634.887503,132.083333 635.267503,131.87 C635.647503,131.656667 636.070836,131.55 636.537503,131.55 C637.00417,131.55 637.425836,131.656667 637.802503,131.87 C638.17917,132.083333 638.47917,132.398333 638.702503,132.815 C638.925836,133.231667 639.037503,133.733333 639.037503,134.32 C639.037503,134.9 638.925836,135.398333 638.702503,135.815 C638.47917,136.231667 638.177503,136.548333 637.797503,136.765 C637.417503,136.981667 636.997503,137.09 636.537503,137.09 Z M647.12167,138 L647.12167,137 L645.01167,137 L645.01167,130.65 L643.88167,130.65 L643.88167,138 L647.12167,138 Z M653.845837,138 L653.845837,137 L651.735837,137 L651.735837,130.65 L650.605837,130.65 L650.605837,138 L653.845837,138 Z M660.870004,138 L660.870004,137.01 L658.430004,137.01 L658.430004,134.66 L660.130004,134.66 L660.130004,133.66 L658.430004,133.66 L658.430004,131.63 L660.540004,131.63 L660.540004,130.65 L657.320004,130.65 L657.320004,138 L660.870004,138 Z M667.834171,138.1 C668.467504,138.1 669.025838,137.998333 669.509171,137.795 C669.992504,137.591667 670.354171,137.34 670.594171,137.04 L670.594171,137.04 L670.594171,134.16 L667.974171,134.16 L667.974171,135.19 L669.484171,135.19 L669.484171,136.61 C669.284171,136.776667 669.040838,136.898333 668.754171,136.975 C668.467504,137.051667 668.167504,137.09 667.854171,137.09 C667.354171,137.09 666.905838,136.968333 666.509171,136.725 C666.112504,136.481667 665.802504,136.14 665.579171,135.7 C665.355838,135.26 665.244171,134.76 665.244171,134.2 C665.244171,133.706667 665.347504,133.26 665.554171,132.86 C665.760838,132.46 666.060838,132.143333 666.454171,131.91 C666.847504,131.676667 667.310838,131.56 667.844171,131.56 C668.650838,131.56 669.260838,131.726667 669.674171,132.06 L669.674171,132.06 L670.114171,131.12 C670.040838,131.053333 669.904171,130.975 669.704171,130.885 C669.504171,130.795 669.245838,130.715 668.929171,130.645 C668.612504,130.575 668.257504,130.54 667.864171,130.54 C667.137504,130.54 666.484171,130.7 665.904171,131.02 C665.324171,131.34 664.870838,131.783333 664.544171,132.35 C664.217504,132.916667 664.054171,133.553333 664.054171,134.26 C664.054171,134.986667 664.215838,135.641667 664.539171,136.225 C664.862504,136.808333 665.310838,137.266667 665.884171,137.6 C666.457504,137.933333 667.107504,138.1 667.834171,138.1 Z M677.788338,138 L677.788338,137.01 L675.348338,137.01 L675.348338,134.66 L677.048338,134.66 L677.048338,133.66 L675.348338,133.66 L675.348338,131.63 L677.458338,131.63 L677.458338,130.65 L674.238338,130.65 L674.238338,138 L677.788338,138 Z" id="BHASKARAMEDICALCOLLEGE"></path>
        </g>
    </g>
</svg>