<?xml version="1.0" encoding="UTF-8"?>
<svg width="82px" height="32px" viewBox="0 0 82 32" version="1.1" xmlns="http://www.w3.org/2000/svg" xmlns:xlink="http://www.w3.org/1999/xlink">
    <title>DECCANDIAGNOSTICS</title>
    <g id="Page-1" stroke="none" stroke-width="1" fill="none" fill-rule="evenodd">
        <g id="Artboard-Copy-4" transform="translate(-462.000000, -108.000000)" fill="#061F4A" fill-rule="nonzero">
            <path d="M468.030273,127 C470.290039,127 471.995443,126.382161 473.146484,125.146484 C474.297526,123.910807 474.873047,122.002279 474.873047,119.420898 L474.873047,119.420898 L474.873047,116.120117 C474.873047,113.555664 474.301758,111.647135 473.15918,110.394531 C472.016602,109.141927 470.345052,108.515625 468.144531,108.515625 L468.144531,108.515625 L463.739258,108.515625 L463.739258,127 L468.030273,127 Z M467.941406,125.044922 L466.291016,125.044922 L466.291016,110.496094 L468.068359,110.496094 C469.608724,110.496094 470.704753,110.936198 471.356445,111.816406 C472.008138,112.696615 472.333984,114.122721 472.333984,116.094727 L472.333984,116.094727 L472.333984,119.420898 C472.333984,121.38444 472.003906,122.812663 471.34375,123.705566 C470.683594,124.59847 469.549479,125.044922 467.941406,125.044922 L467.941406,125.044922 Z M488.126953,127 L488.126953,125.044922 L480.636719,125.044922 L480.636719,118.417969 L487.085938,118.417969 L487.085938,116.450195 L480.636719,116.450195 L480.636719,110.496094 L488.063477,110.496094 L488.063477,108.515625 L478.084961,108.515625 L478.084961,127 L488.126953,127 Z M495.756836,127.266602 C497.500326,127.266602 498.846029,126.775716 499.793945,125.793945 C500.741862,124.812174 501.232747,123.373372 501.266602,121.477539 L501.266602,121.477539 L498.727539,121.477539 C498.702148,122.857096 498.456706,123.840983 497.991211,124.429199 C497.525716,125.017415 496.780924,125.311523 495.756836,125.311523 C494.724284,125.311523 493.956217,124.89681 493.452637,124.067383 C492.949056,123.237956 492.697266,121.993815 492.697266,120.334961 L492.697266,120.334961 L492.697266,115.167969 C492.697266,113.534505 492.955404,112.30306 493.47168,111.473633 C493.987956,110.644206 494.749674,110.229492 495.756836,110.229492 C496.797852,110.229492 497.548991,110.536296 498.010254,111.149902 C498.471517,111.763509 498.710612,112.747396 498.727539,114.101562 L498.727539,114.101562 L501.279297,114.101562 C501.220052,112.138021 500.729167,110.671712 499.806641,109.702637 C498.884115,108.733561 497.53418,108.249023 495.756836,108.249023 C494.004883,108.249023 492.633789,108.849935 491.643555,110.051758 C490.65332,111.253581 490.158203,112.97168 490.158203,115.206055 L490.158203,115.206055 L490.158203,120.334961 C490.158203,122.577799 490.649089,124.293783 491.630859,125.48291 C492.61263,126.672038 493.987956,127.266602 495.756836,127.266602 Z M509.125,127.266602 C510.86849,127.266602 512.214193,126.775716 513.162109,125.793945 C514.110026,124.812174 514.600911,123.373372 514.634766,121.477539 L514.634766,121.477539 L512.095703,121.477539 C512.070312,122.857096 511.82487,123.840983 511.359375,124.429199 C510.89388,125.017415 510.149089,125.311523 509.125,125.311523 C508.092448,125.311523 507.324382,124.89681 506.820801,124.067383 C506.31722,123.237956 506.06543,121.993815 506.06543,120.334961 L506.06543,120.334961 L506.06543,115.167969 C506.06543,113.534505 506.323568,112.30306 506.839844,111.473633 C507.35612,110.644206 508.117839,110.229492 509.125,110.229492 C510.166016,110.229492 510.917155,110.536296 511.378418,111.149902 C511.839681,111.763509 512.078776,112.747396 512.095703,114.101562 L512.095703,114.101562 L514.647461,114.101562 C514.588216,112.138021 514.097331,110.671712 513.174805,109.702637 C512.252279,108.733561 510.902344,108.249023 509.125,108.249023 C507.373047,108.249023 506.001953,108.849935 505.011719,110.051758 C504.021484,111.253581 503.526367,112.97168 503.526367,115.206055 L503.526367,115.206055 L503.526367,120.334961 C503.526367,122.577799 504.017253,124.293783 504.999023,125.48291 C505.980794,126.672038 507.35612,127.266602 509.125,127.266602 Z M518.46875,127 L519.725586,122.251953 L525.248047,122.251953 L526.504883,127 L529.082031,127 L523.75,108.515625 L521.287109,108.515625 L515.878906,127 L518.46875,127 Z M524.727539,120.28418 L520.258789,120.28418 L522.467773,111.943359 L522.518555,111.943359 L524.727539,120.28418 Z M533.779297,127 L533.779297,113.37793 L533.817383,113.365234 L540.355469,127 L542.894531,127 L542.894531,108.515625 L540.355469,108.515625 L540.355469,122.112305 L540.317383,122.125 L533.779297,108.515625 L531.227539,108.515625 L531.227539,127 L533.779297,127 Z M464.55127,139 C465.507324,139 466.228841,138.738607 466.71582,138.21582 C467.202799,137.693034 467.446289,136.885579 467.446289,135.793457 L467.446289,135.793457 L467.446289,134.396973 C467.446289,133.312012 467.20459,132.504557 466.721191,131.974609 C466.237793,131.444661 465.530599,131.179688 464.599609,131.179688 L464.599609,131.179688 L462.73584,131.179688 L462.73584,139 L464.55127,139 Z M464.513672,138.172852 L463.81543,138.172852 L463.81543,132.017578 L464.567383,132.017578 C465.219076,132.017578 465.68278,132.203776 465.958496,132.576172 C466.234212,132.948568 466.37207,133.551921 466.37207,134.38623 L466.37207,134.38623 L466.37207,135.793457 C466.37207,136.624186 466.232422,137.228434 465.953125,137.606201 C465.673828,137.983968 465.19401,138.172852 464.513672,138.172852 L464.513672,138.172852 Z M472.27154,139 L472.27154,131.179688 L471.19195,131.179688 L471.19195,139 L472.27154,139 Z M476.75304,139 L477.284779,136.991211 L479.621204,136.991211 L480.152943,139 L481.243275,139 L478.987415,131.179688 L477.945423,131.179688 L475.657337,139 L476.75304,139 Z M479.40099,136.158691 L477.510365,136.158691 L478.444935,132.629883 L478.466419,132.629883 L479.40099,136.158691 Z M486.788252,139.112793 C487.396976,139.112793 487.88485,138.991943 488.251875,138.750244 C488.6189,138.508545 488.89193,138.228353 489.070967,137.909668 L489.070967,137.909668 L489.070967,135.041504 L486.782881,135.041504 L486.782881,135.831055 L487.991377,135.831055 L487.991377,137.608887 C487.894697,137.812988 487.757734,137.976807 487.580488,138.100342 C487.403242,138.223877 487.139164,138.285645 486.788252,138.285645 C486.308434,138.285645 485.937829,138.11556 485.676436,137.775391 C485.415042,137.435221 485.284346,136.923177 485.284346,136.239258 L485.284346,136.239258 L485.284346,133.908203 C485.284346,133.242188 485.406091,132.741781 485.64958,132.406982 C485.89307,132.072184 486.240401,131.904785 486.691572,131.904785 C487.135583,131.904785 487.461429,132.029215 487.669111,132.278076 C487.876794,132.526937 487.989587,132.900228 488.00749,133.397949 L488.00749,133.397949 L489.065596,133.397949 C489.019046,132.635254 488.802412,132.056071 488.415693,131.6604 C488.028975,131.26473 487.448897,131.066895 486.675459,131.066895 C485.912764,131.066895 485.311201,131.310384 484.870772,131.797363 C484.430342,132.284342 484.210127,132.991536 484.210127,133.918945 L484.210127,133.918945 L484.210127,136.239258 C484.210127,137.177409 484.441084,137.890869 484.902998,138.379639 C485.364912,138.868408 485.99333,139.112793 486.788252,139.112793 Z M493.85862,139 L493.85862,133.236816 L493.874733,133.231445 L496.640847,139 L497.715065,139 L497.715065,131.179688 L496.640847,131.179688 L496.640847,136.932129 L496.624733,136.9375 L493.85862,131.179688 L492.77903,131.179688 L492.77903,139 L493.85862,139 Z M503.883089,139.112793 C504.667269,139.112793 505.284945,138.858561 505.736117,138.350098 C506.187289,137.841634 506.412875,137.114746 506.412875,136.169434 L506.412875,136.169434 L506.412875,134.020996 C506.412875,133.079264 506.186393,132.351481 505.733431,131.837646 C505.280469,131.323812 504.661898,131.066895 503.877718,131.066895 C503.107862,131.066895 502.503613,131.323812 502.064974,131.837646 C501.626335,132.351481 501.407015,133.079264 501.407015,134.020996 L501.407015,134.020996 L501.407015,136.169434 C501.407015,137.114746 501.626335,137.841634 502.064974,138.350098 C502.503613,138.858561 503.109652,139.112793 503.883089,139.112793 Z M503.883089,138.26416 C503.421175,138.26416 503.072949,138.090495 502.838412,137.743164 C502.603874,137.395833 502.486605,136.871257 502.486605,136.169434 L502.486605,136.169434 L502.486605,134.004883 C502.486605,133.313802 502.603874,132.794596 502.838412,132.447266 C503.072949,132.099935 503.419385,131.92627 503.877718,131.92627 C504.353955,131.92627 504.715609,132.099935 504.962679,132.447266 C505.20975,132.794596 505.333285,133.313802 505.333285,134.004883 L505.333285,134.004883 L505.333285,136.169434 C505.333285,136.871257 505.210645,137.395833 504.965365,137.743164 C504.720085,138.090495 504.359326,138.26416 503.883089,138.26416 Z M512.264004,139.112793 C512.962246,139.112793 513.517259,138.928385 513.929043,138.55957 C514.340827,138.190755 514.546719,137.678711 514.546719,137.023438 C514.546719,136.400391 514.374844,135.901774 514.031094,135.527588 C513.687344,135.153402 513.168138,134.853516 512.473477,134.62793 C511.957852,134.438151 511.591722,134.232259 511.375088,134.010254 C511.158454,133.788249 511.050137,133.507161 511.050137,133.166992 C511.050137,132.791016 511.150397,132.485758 511.350918,132.251221 C511.551439,132.016683 511.843268,131.899414 512.226406,131.899414 C512.631029,131.899414 512.938972,132.039062 513.150235,132.318359 C513.361498,132.597656 513.467129,132.970052 513.467129,133.435547 L513.467129,133.435547 L514.546719,133.435547 C514.546719,132.758789 514.337246,132.194824 513.918301,131.743652 C513.499356,131.29248 512.938972,131.066895 512.237149,131.066895 C511.55681,131.066895 511.008959,131.261149 510.593594,131.649658 C510.178229,132.038167 509.970547,132.547526 509.970547,133.177734 C509.970547,133.786458 510.156745,134.268962 510.529141,134.625244 C510.901537,134.981527 511.449388,135.274251 512.172696,135.503418 C512.663255,135.686035 513.00253,135.892822 513.190518,136.123779 C513.378506,136.354736 513.4725,136.658203 513.4725,137.03418 C513.4725,137.42806 513.368659,137.736003 513.160977,137.958008 C512.953294,138.180013 512.654304,138.291016 512.264004,138.291016 C511.830736,138.291016 511.486986,138.16569 511.232754,137.915039 C510.978522,137.664388 510.851406,137.263346 510.851406,136.711914 L510.851406,136.711914 L509.771817,136.711914 C509.771817,137.492513 510.017097,138.087809 510.507656,138.497803 C510.998216,138.907796 511.583666,139.112793 512.264004,139.112793 Z M520.532126,139 L520.532126,132.017578 L522.433493,132.017578 L522.433493,131.179688 L517.567282,131.179688 L517.567282,132.017578 L519.463278,132.017578 L519.463278,139 L520.532126,139 Z M526.914994,139 L526.914994,131.179688 L525.835404,131.179688 L525.835404,139 L526.914994,139 Z M533.002452,139.112793 C533.740082,139.112793 534.309418,138.905111 534.710459,138.489746 C535.111501,138.074382 535.319183,137.465658 535.333506,136.663574 L535.333506,136.663574 L534.259287,136.663574 C534.248545,137.247233 534.144704,137.663493 533.947764,137.912354 C533.750824,138.161214 533.43572,138.285645 533.002452,138.285645 C532.565603,138.285645 532.240651,138.110189 532.027598,137.759277 C531.814545,137.408366 531.708018,136.881999 531.708018,136.180176 L531.708018,136.180176 L531.708018,133.994141 C531.708018,133.30306 531.81723,132.782064 532.035655,132.431152 C532.254079,132.080241 532.576345,131.904785 533.002452,131.904785 C533.442881,131.904785 533.760671,132.034587 533.955821,132.294189 C534.15097,132.553792 534.252126,132.970052 534.259287,133.542969 L534.259287,133.542969 L535.338877,133.542969 C535.313812,132.71224 535.10613,132.091878 534.71583,131.681885 C534.325531,131.271891 533.754405,131.066895 533.002452,131.066895 C532.261241,131.066895 531.681162,131.321126 531.262217,131.82959 C530.843272,132.338053 530.633799,133.064941 530.633799,134.010254 L530.633799,134.010254 L530.633799,136.180176 C530.633799,137.129069 530.841481,137.855062 531.256846,138.358154 C531.672211,138.861247 532.254079,139.112793 533.002452,139.112793 Z M540.921452,139.112793 C541.619694,139.112793 542.174707,138.928385 542.586491,138.55957 C542.998275,138.190755 543.204167,137.678711 543.204167,137.023438 C543.204167,136.400391 543.032292,135.901774 542.688542,135.527588 C542.344792,135.153402 541.825586,134.853516 541.130925,134.62793 C540.6153,134.438151 540.24917,134.232259 540.032536,134.010254 C539.815902,133.788249 539.707585,133.507161 539.707585,133.166992 C539.707585,132.791016 539.807845,132.485758 540.008366,132.251221 C540.208887,132.016683 540.500717,131.899414 540.883855,131.899414 C541.288477,131.899414 541.59642,132.039062 541.807683,132.318359 C542.018946,132.597656 542.124577,132.970052 542.124577,133.435547 L542.124577,133.435547 L543.204167,133.435547 C543.204167,132.758789 542.994694,132.194824 542.575749,131.743652 C542.156804,131.29248 541.59642,131.066895 540.894597,131.066895 C540.214258,131.066895 539.666407,131.261149 539.251042,131.649658 C538.835677,132.038167 538.627995,132.547526 538.627995,133.177734 C538.627995,133.786458 538.814193,134.268962 539.186589,134.625244 C539.558985,134.981527 540.106836,135.274251 540.830144,135.503418 C541.320703,135.686035 541.659978,135.892822 541.847966,136.123779 C542.035954,136.354736 542.129948,136.658203 542.129948,137.03418 C542.129948,137.42806 542.026107,137.736003 541.818425,137.958008 C541.610743,138.180013 541.311752,138.291016 540.921452,138.291016 C540.488184,138.291016 540.144434,138.16569 539.890202,137.915039 C539.63597,137.664388 539.508855,137.263346 539.508855,136.711914 L539.508855,136.711914 L538.429265,136.711914 C538.429265,137.492513 538.674545,138.087809 539.165105,138.497803 C539.655664,138.907796 540.241114,139.112793 540.921452,139.112793 Z" id="DECCANDIAGNOSTICS"></path>
        </g>
    </g>
</svg>