<?xml version="1.0" encoding="UTF-8"?>
<svg width="150px" height="33px" viewBox="0 0 150 33" version="1.1" xmlns="http://www.w3.org/2000/svg" xmlns:xlink="http://www.w3.org/1999/xlink">
    <title>MUSLIMMATERNITYHOSPITAL</title>
    <g id="Page-1" stroke="none" stroke-width="1" fill="none" fill-rule="evenodd">
        <g id="Artboard-Copy-4" transform="translate(-14.000000, -106.000000)" fill="#061F4A" fill-rule="nonzero">
            <path d="M15.9506836,119 L15.9506836,108.321289 L20.4418945,119 L21.4702148,119 L25.987793,108.321289 L25.987793,119 L27.1918945,119 L27.1918945,107.00293 L25.3286133,107.00293 L20.9692383,117.21582 L16.6010742,107.00293 L14.746582,107.00293 L14.746582,119 L15.9506836,119 Z M33.7573242,119.219727 C34.4194336,119.219727 35.0405273,119.076172 35.6206055,118.789062 C36.159668,118.525391 36.6049805,118.162109 36.956543,117.699219 C37.5483398,116.919922 37.8442383,115.847656 37.8442383,114.482422 L37.8442383,114.482422 L37.8442383,107.00293 L36.6401367,107.00293 L36.6401367,114.482422 C36.6401367,115.490234 36.4379883,116.295898 36.0336914,116.899414 C35.7875977,117.256836 35.4624023,117.539551 35.0581055,117.747559 C34.6538086,117.955566 34.2202148,118.05957 33.7573242,118.05957 C33.2944336,118.05957 32.8608398,117.957031 32.456543,117.751953 C32.0522461,117.546875 31.7270508,117.262695 31.480957,116.899414 C31.0766602,116.295898 30.8745117,115.490234 30.8745117,114.482422 L30.8745117,114.482422 L30.8745117,107.00293 L29.6704102,107.00293 L29.6704102,114.482422 C29.6704102,116.310547 30.215332,117.625977 31.3051758,118.428711 C32.0141602,118.956055 32.831543,119.219727 33.7573242,119.219727 Z M43.003418,119.219727 C44.0581055,119.219727 44.9458008,118.847656 45.6665039,118.103516 C46.3344727,117.417969 46.668457,116.615234 46.668457,115.695312 C46.668457,115.191406 46.5629883,114.708008 46.3520508,114.245117 C46.1411133,113.782227 45.8481445,113.392578 45.4731445,113.076172 C45.2036133,112.853516 44.9428711,112.687988 44.690918,112.57959 C44.4389648,112.471191 43.9526367,112.317383 43.2319336,112.118164 C42.3530273,111.87793 41.7583008,111.625977 41.4477539,111.362305 C41.0668945,111.040039 40.8764648,110.577148 40.8764648,109.973633 C40.8764648,109.370117 41.0961914,108.854492 41.5356445,108.426758 C41.9223633,108.051758 42.394043,107.864258 42.9506836,107.864258 C43.5483398,107.864258 44.0478516,108.064941 44.4492188,108.466309 C44.8505859,108.867676 45.074707,109.390625 45.121582,110.035156 L45.121582,110.035156 L46.378418,110.035156 C46.378418,109.115234 46.059082,108.343262 45.4204102,107.719238 C44.7817383,107.095215 43.9907227,106.783203 43.0473633,106.783203 C42.0629883,106.783203 41.2426758,107.111328 40.5864258,107.767578 C39.9770508,108.371094 39.6723633,109.118164 39.6723633,110.008789 C39.6723633,110.881836 39.9536133,111.59668 40.5161133,112.15332 C40.762207,112.405273 41.0449219,112.604492 41.3642578,112.750977 C41.6835938,112.897461 42.1538086,113.049805 42.7749023,113.208008 C43.6362305,113.430664 44.2573242,113.700195 44.6381836,114.016602 C45.1889648,114.473633 45.4643555,115.050781 45.4643555,115.748047 C45.4643555,116.369141 45.2475586,116.908203 44.8139648,117.365234 C44.5913086,117.599609 44.3173828,117.787109 43.9921875,117.927734 C43.6669922,118.068359 43.3461914,118.138672 43.0297852,118.138672 C42.6665039,118.138672 42.3120117,118.056641 41.9663086,117.892578 C41.6206055,117.728516 41.3422852,117.511719 41.1313477,117.242188 C40.8208008,116.849609 40.6303711,116.316406 40.5600586,115.642578 L40.5600586,115.642578 L39.2768555,115.642578 C39.3120117,116.474609 39.5375977,117.174805 39.9536133,117.743164 C40.293457,118.206055 40.7314453,118.567871 41.2675781,118.828613 C41.8037109,119.089355 42.3823242,119.219727 43.003418,119.219727 Z M54.7895508,119 L54.7895508,117.918945 L49.8237305,117.918945 L49.8237305,107.00293 L48.6196289,107.00293 L48.6196289,119 L54.7895508,119 Z M57.6108398,119 L57.6108398,107.00293 L56.4067383,107.00293 L56.4067383,119 L57.6108398,119 Z M61.3989258,119 L61.3989258,108.321289 L65.8901367,119 L66.918457,119 L71.4360352,108.321289 L71.4360352,119 L72.6401367,119 L72.6401367,107.00293 L70.7768555,107.00293 L66.4174805,117.21582 L62.0493164,107.00293 L60.1948242,107.00293 L60.1948242,119 L61.3989258,119 Z M80.9370117,119 L80.9370117,108.321289 L85.4282227,119 L86.456543,119 L90.9741211,108.321289 L90.9741211,119 L92.1782227,119 L92.1782227,107.00293 L90.3149414,107.00293 L85.9555664,117.21582 L81.5874023,107.00293 L79.7329102,107.00293 L79.7329102,119 L80.9370117,119 Z M94.8149414,119 L96.5727539,114.957031 L102.153809,114.957031 L103.885254,119 L105.194824,119 L100.044434,107.00293 L98.7084961,107.00293 L93.5668945,119 L94.8149414,119 Z M101.687988,113.875977 L97.0297852,113.875977 L99.3764648,108.365234 L101.687988,113.875977 Z M108.534668,119 L108.534668,108.083984 L111.276855,108.083984 L111.276855,107.00293 L104.570801,107.00293 L104.570801,108.083984 L107.330566,108.083984 L107.330566,119 L108.534668,119 Z M119.354004,119 L119.354004,117.918945 L113.983887,117.918945 L113.983887,113.480469 L119.178223,113.480469 L119.178223,112.399414 L113.983887,112.399414 L113.983887,108.083984 L119.354004,108.083984 L119.354004,107.00293 L112.779785,107.00293 L112.779785,119 L119.354004,119 Z M122.693848,119 L122.693848,108.083984 L124.794434,108.083984 C125.550293,108.083984 126.155273,108.157227 126.609375,108.303711 C127.063477,108.450195 127.442871,108.696289 127.747559,109.041992 C128.210449,109.557617 128.441895,110.155273 128.441895,110.834961 C128.441895,111.438477 128.257324,111.977539 127.888184,112.452148 C127.560059,112.868164 127.120605,113.169922 126.569824,113.357422 C126.294434,113.445312 126.001465,113.502441 125.690918,113.528809 C125.380371,113.555176 124.776855,113.568359 123.880371,113.568359 L123.880371,113.568359 L127.958496,119 L129.461426,119 L126.077637,114.526367 C127.120605,114.461914 127.976074,114.088379 128.644043,113.405762 C129.312012,112.723145 129.645996,111.880859 129.645996,110.878906 C129.645996,109.935547 129.353027,109.115234 128.76709,108.417969 C128.356934,107.931641 127.847168,107.571289 127.237793,107.336914 C126.657715,107.114258 125.758301,107.00293 124.539551,107.00293 L124.539551,107.00293 L121.489746,107.00293 L121.489746,119 L122.693848,119 Z M132.854004,119 L132.854004,108.444336 L139.999512,119 L141.203613,119 L141.203613,107.00293 L139.999512,107.00293 L139.999512,116.960938 L133.275879,107.00293 L131.649902,107.00293 L131.649902,119 L132.854004,119 Z M145.000488,119 L145.000488,107.00293 L143.796387,107.00293 L143.796387,119 L145.000488,119 Z M150.476074,119 L150.476074,108.083984 L153.218262,108.083984 L153.218262,107.00293 L146.512207,107.00293 L146.512207,108.083984 L149.271973,108.083984 L149.271973,119 L150.476074,119 Z M159.309082,119 L159.309082,114.992188 L163.519043,107.00293 L162.209473,107.00293 L158.693848,113.735352 L155.266113,107.00293 L153.938965,107.00293 L158.10498,114.992188 L158.10498,119 L159.309082,119 Z M54.5917969,138 L54.5917969,132.375 L60.8144531,132.375 L60.8144531,138 L62.0185547,138 L62.0185547,126.00293 L60.8144531,126.00293 L60.8144531,131.293945 L54.5917969,131.293945 L54.5917969,126.00293 L53.3876953,126.00293 L53.3876953,138 L54.5917969,138 Z M70.3242188,138.219727 C71.2441406,138.219727 72.1347656,138.020508 72.9960938,137.62207 C73.7636719,137.270508 74.4345703,136.787109 75.0087891,136.171875 C76.1103516,134.988281 76.6611328,133.59668 76.6611328,131.99707 C76.6611328,131.077148 76.4648438,130.204102 76.0722656,129.37793 C75.5800781,128.352539 74.8447266,127.514648 73.8662109,126.864258 C72.7763672,126.143555 71.5898438,125.783203 70.3066406,125.783203 C69.1699219,125.800781 68.1269531,126.073242 67.1777344,126.600586 C66.1347656,127.186523 65.3291016,127.974609 64.7607422,128.964844 C64.2216797,129.902344 63.9521484,130.892578 63.9521484,131.935547 C63.9521484,132.902344 64.1513672,133.798828 64.5498047,134.625 C65.0419922,135.65625 65.7744141,136.494141 66.7470703,137.138672 C67.8369141,137.859375 69.0292969,138.219727 70.3242188,138.219727 Z M70.3242188,137.138672 C69.5683594,137.138672 68.8447266,136.977539 68.1533203,136.655273 C67.4853516,136.344727 66.9082031,135.914062 66.421875,135.363281 C65.578125,134.396484 65.15625,133.262695 65.15625,131.961914 C65.15625,131.34668 65.2822266,130.728516 65.5341797,130.107422 C65.7919922,129.46875 66.1582031,128.90625 66.6328125,128.419922 C67.6523438,127.382812 68.8769531,126.864258 70.3066406,126.864258 C71.1679688,126.875977 71.9589844,127.072266 72.6796875,127.453125 C73.5527344,127.916016 74.2353516,128.557617 74.7275391,129.37793 C75.2138672,130.198242 75.4570312,131.077148 75.4570312,132.014648 C75.4570312,132.74707 75.3046875,133.447266 75,134.115234 C74.6015625,134.976562 74.0068359,135.679688 73.2158203,136.224609 C72.3310547,136.833984 71.3671875,137.138672 70.3242188,137.138672 Z M81.2929688,138.219727 C82.3476562,138.219727 83.2353516,137.847656 83.9560547,137.103516 C84.6240234,136.417969 84.9580078,135.615234 84.9580078,134.695312 C84.9580078,134.191406 84.8525391,133.708008 84.6416016,133.245117 C84.4306641,132.782227 84.1376953,132.392578 83.7626953,132.076172 C83.4931641,131.853516 83.2324219,131.687988 82.9804688,131.57959 C82.7285156,131.471191 82.2421875,131.317383 81.5214844,131.118164 C80.6425781,130.87793 80.0478516,130.625977 79.7373047,130.362305 C79.3564453,130.040039 79.1660156,129.577148 79.1660156,128.973633 C79.1660156,128.370117 79.3857422,127.854492 79.8251953,127.426758 C80.2119141,127.051758 80.6835938,126.864258 81.2402344,126.864258 C81.8378906,126.864258 82.3374023,127.064941 82.7387695,127.466309 C83.1401367,127.867676 83.3642578,128.390625 83.4111328,129.035156 L83.4111328,129.035156 L84.6679688,129.035156 C84.6679688,128.115234 84.3486328,127.343262 83.7099609,126.719238 C83.0712891,126.095215 82.2802734,125.783203 81.3369141,125.783203 C80.3525391,125.783203 79.5322266,126.111328 78.8759766,126.767578 C78.2666016,127.371094 77.9619141,128.118164 77.9619141,129.008789 C77.9619141,129.881836 78.2431641,130.59668 78.8056641,131.15332 C79.0517578,131.405273 79.3344727,131.604492 79.6538086,131.750977 C79.9731445,131.897461 80.4433594,132.049805 81.0644531,132.208008 C81.9257812,132.430664 82.546875,132.700195 82.9277344,133.016602 C83.4785156,133.473633 83.7539062,134.050781 83.7539062,134.748047 C83.7539062,135.369141 83.5371094,135.908203 83.1035156,136.365234 C82.8808594,136.599609 82.6069336,136.787109 82.2817383,136.927734 C81.956543,137.068359 81.6357422,137.138672 81.3193359,137.138672 C80.9560547,137.138672 80.6015625,137.056641 80.2558594,136.892578 C79.9101562,136.728516 79.6318359,136.511719 79.4208984,136.242188 C79.1103516,135.849609 78.9199219,135.316406 78.8496094,134.642578 L78.8496094,134.642578 L77.5664062,134.642578 C77.6015625,135.474609 77.8271484,136.174805 78.2431641,136.743164 C78.5830078,137.206055 79.0209961,137.567871 79.5571289,137.828613 C80.0932617,138.089355 80.671875,138.219727 81.2929688,138.219727 Z M88.1132812,138 L88.1132812,133.157227 L90.5566406,133.157227 C91.8398438,133.157227 92.8447266,132.878906 93.5712891,132.322266 C94.4267578,131.671875 94.8544922,130.766602 94.8544922,129.606445 C94.8544922,128.979492 94.7167969,128.408203 94.4414062,127.892578 C94.1777344,127.394531 93.8203125,126.996094 93.3691406,126.697266 C92.9824219,126.445312 92.5517578,126.266602 92.0771484,126.161133 C91.6025391,126.055664 90.9960938,126.00293 90.2578125,126.00293 L90.2578125,126.00293 L86.9091797,126.00293 L86.9091797,138 L88.1132812,138 Z M90.3632812,132.076172 L88.1132812,132.076172 L88.1132812,127.083984 L89.8535156,127.083984 C90.6035156,127.083984 91.0898438,127.098633 91.3125,127.12793 C91.9570312,127.209961 92.4873047,127.441406 92.9033203,127.822266 C93.4013672,128.285156 93.6503906,128.874023 93.6503906,129.588867 C93.6503906,130.004883 93.5566406,130.393066 93.3691406,130.753418 C93.1816406,131.11377 92.9267578,131.396484 92.6044922,131.601562 C92.1123047,131.917969 91.3652344,132.076172 90.3632812,132.076172 L90.3632812,132.076172 Z M97.7988281,138 L97.7988281,126.00293 L96.5947266,126.00293 L96.5947266,138 L97.7988281,138 Z M103.274414,138 L103.274414,127.083984 L106.016602,127.083984 L106.016602,126.00293 L99.3105469,126.00293 L99.3105469,127.083984 L102.070312,127.083984 L102.070312,138 L103.274414,138 Z M106.649414,138 L108.407227,133.957031 L113.988281,133.957031 L115.719727,138 L117.029297,138 L111.878906,126.00293 L110.542969,126.00293 L105.401367,138 L106.649414,138 Z M113.522461,132.875977 L108.864258,132.875977 L111.210938,127.365234 L113.522461,132.875977 Z M124.579102,138 L124.579102,136.918945 L119.613281,136.918945 L119.613281,126.00293 L118.40918,126.00293 L118.40918,138 L124.579102,138 Z" id="MUSLIMMATERNITYHOSPITAL"></path>
        </g>
    </g>
</svg>